SplineFontDB: 3.0
FontName: CursiveSerif
FullName: Cursive Serif Bold
FamilyName: Cursive Serif
Weight: Bold
Copyright: Copyright (c) 2020-2024 by Wojciech Kalinowski "wmk69" with Reserved Font Name "CursiveSerif-Bold".\nThis Font Software is licensed under the SIL Open Font License, Version 1.1.
Version: 3.0.0; 2020-03-
ItalicAngle: 0
UnderlinePosition: -80
UnderlineWidth: 320
Ascent: 1638
Descent: 410
InvalidEm: 0
LayerCount: 2
Layer: 0 1 "Warstwa t+AUIA-a" 1
Layer: 1 1 "Plan pierwszy" 0
XUID: [1021 783 23647091 7762759]
StyleMap: 0x0021
FSType: 0
OS2Version: 3
OS2_WeightWidthSlopeOnly: 0
OS2_UseTypoMetrics: 1
CreationTime: 1260698820
ModificationTime: 1584373313
PfmFamily: 17
TTFWeight: 700
TTFWidth: 5
LineGap: 300
VLineGap: 0
Panose: 2 8 8 3 6 3 8 13 5 4
OS2TypoAscent: 1950
OS2TypoAOffset: 0
OS2TypoDescent: -537
OS2TypoDOffset: 0
OS2TypoLinegap: 300
OS2WinAscent: 1950
OS2WinAOffset: 0
OS2WinDescent: 537
OS2WinDOffset: 0
HheadAscent: 1950
HheadAOffset: 0
HheadDescent: -537
HheadDOffset: 0
OS2SubXSize: 1434
OS2SubYSize: 1331
OS2SubXOff: 0
OS2SubYOff: 287
OS2SupXSize: 1434
OS2SupYSize: 1331
OS2SupXOff: 0
OS2SupYOff: 977
OS2StrikeYSize: 102
OS2StrikeYPos: 512
OS2CapHeight: 1530
OS2XHeight: 1120
OS2Vendor: '    '
OS2CodePages: 20000093.00000000
OS2UnicodeRanges: 8000002f.4000204b.00000000.00000000
Lookup: 258 0 0 "'kern' Horizontal Kerning lookup 0" { "'kern' Horizontal Kerning lookup 0-1 subtable" [307,0,4] } ['kern' ('DFLT' <'dflt' > 'grek' <'dflt' > 'latn' <'dflt' > ) ]
MarkAttachClasses: 1
DEI: 91125
KernClass2: 70 56 "'kern' Horizontal Kerning lookup 0-1 subtable"
 84 A Agrave Aacute Acircumflex Atilde Adieresis Aring Amacron Abreve Aogonek Aringacute
 17 B uni1E02 uni1E9E
 47 C Ccedilla Cacute Ccircumflex Cdotaccent Ccaron
 27 D Eth Dcaron Dcroat uni1E0A
 92 E AE Egrave Eacute Ecircumflex Edieresis Emacron Ebreve Edotaccent Eogonek Ecaron OE AEacute
 9 F uni1E1E
 44 G Gcircumflex Gbreve Gdotaccent Gcommaaccent
 18 H Hcircumflex Hbar

StartChar: .notdef
Encoding: 65536 -1 0
Width: 1114
Flags: MW
LayerCount: 2
Fore
SplineSet
150 0 m 5,0,-1
 150 1510 l 5,1,-1
 964 1510 l 5,2,-1
 964 0 l 5,3,-1
 150 0 l 5,0,-1
338 118 m 5,4,-1
 776 118 l 5,5,-1
 776 1392 l 5,6,-1
 338 1392 l 5,7,-1
 338 118 l 5,4,-1
EndSplineSet
Validated: 1
EndChar

StartChar: exclam
Encoding: 33 33 4
Width: 764
GlyphClass: 2
Flags: MW
LayerCount: 2
Fore
SplineSet
382 -20 m 128,-1,1
 306 -20 306 -20 253 34 c 128,-1,2
 200 88 200 88 200 165 c 128,-1,3
 200 242 200 242 253 296 c 128,-1,4
 306 350 306 350 382 350 c 128,-1,5
 458 350 458 350 511 296 c 128,-1,6
 564 242 564 242 564 165 c 128,-1,7
 564 88 564 88 511 34 c 128,-1,0
 458 -20 458 -20 382 -20 c 128,-1,1
382 1530 m 128,-1,9
 458 1530 458 1530 511 1476 c 128,-1,10
 564 1422 564 1422 564 1345 c 0,11,12
 564 1331 564 1331 563 1324 c 2,13,-1
 441 429 l 2,14,15
 437 400 437 400 404 400 c 2,16,-1
 360 400 l 2,17,18
 327 400 327 400 323 429 c 2,19,-1
 201 1324 l 2,20,21
 200 1331 200 1331 200 1345 c 0,22,23
 200 1422 200 1422 253 1476 c 128,-1,8
 306 1530 306 1530 382 1530 c 128,-1,9
EndSplineSet
Validated: 1
EndChar

StartChar: quotedbl
Encoding: 34 34 5
Width: 741
GlyphClass: 2
Flags: MW
LayerCount: 2
Fore
SplineSet
389 1550 m 1,0,1
 635 1550 l 1,2,3
 691 1470 691 1470 691 1379 c 0,4,5
 691 1251 691 1251 605 1125 c 1,6,-1
 419 1125 l 1,7,8
 471 1234 471 1234 471 1343 c 0,9,10
 471 1460 471 1460 389 1550 c 1,0,1
50 1550 m 1,11,-1
 296 1550 l 1,12,13
 352 1470 352 1470 352 1379 c 0,14,15
 352 1251 352 1251 266 1125 c 1,16,-1
 80 1125 l 1,17,18
 132 1234 132 1234 132 1343 c 0,19,20
 132 1460 132 1460 50 1550 c 1,11,-1
EndSplineSet
Validated: 1
EndChar

StartChar: numbersign
Encoding: 35 35 6
Width: 1474
GlyphClass: 2
Flags: MW
LayerCount: 2
Fore
SplineSet
532 1290 m 2,0,-1
 602 1290 l 2,1,2
 646 1290 646 1290 646 1246 c 2,3,-1
 646 1004 l 1,4,-1
 828 1004 l 1,5,-1
 828 1246 l 2,6,7
 828 1290 828 1290 872 1290 c 2,8,-1
 942 1290 l 2,9,10
 988 1290 988 1290 988 1246 c 2,11,-1
 988 1004 l 1,12,-1
 1229 1004 l 2,13,14
 1274 1004 1274 1004 1274 959 c 2,15,-1
 1274 889 l 2,16,17
 1274 844 1274 844 1229 844 c 2,18,-1
 988 844 l 1,19,-1
 988 663 l 1,20,-1
 1229 663 l 2,21,22
 1274 663 1274 663 1274 618 c 2,23,-1
 1274 548 l 2,24,25
 1274 503 1274 503 1229 503 c 2,26,-1
 988 503 l 1,27,-1
 988 262 l 2,28,29
 988 216 988 216 942 216 c 2,30,-1
 872 216 l 2,31,32
 828 216 828 216 828 262 c 2,33,-1
 828 503 l 1,34,-1
 646 503 l 1,35,-1
 646 262 l 2,36,37
 646 216 646 216 602 216 c 2,38,-1
 530 216 l 2,39,40
 486 216 486 216 486 262 c 2,41,-1
 486 503 l 1,42,-1
 245 503 l 2,43,44
 200 503 200 503 200 548 c 2,45,-1
 200 619 l 2,46,47
 200 663 200 663 245 663 c 2,48,-1
 486 663 l 1,49,-1
 486 844 l 1,50,-1
 245 844 l 2,51,52
 200 844 200 844 200 889 c 2,53,-1
 200 960 l 2,54,55
 200 1004 200 1004 245 1004 c 2,56,-1
 486 1004 l 1,57,-1
 486 1246 l 2,58,59
 486 1290 486 1290 532 1290 c 2,0,-1
646 663 m 1,60,-1
 828 663 l 1,61,-1
 828 844 l 1,62,-1
 646 844 l 1,63,-1
 646 663 l 1,60,-1
EndSplineSet
Validated: 1
EndChar

StartChar: dollar
Encoding: 36 36 7
Width: 1261
GlyphClass: 2
Flags: MW
LayerCount: 2
Fore
SplineSet
618 -19 m 1,0,1
 360 -10 360 -10 232 118 c 0,2,3
 120 230 120 230 120 356 c 0,4,5
 120 433 120 433 173 487 c 128,-1,6
 226 541 226 541 302 541 c 128,-1,7
 378 541 378 541 431 487 c 128,-1,8
 484 433 484 433 484 356 c 0,9,10
 484 277 484 277 431 225 c 0,11,12
 394 188 394 188 330 179 c 1,13,14
 447 87 447 87 618 86 c 1,15,-1
 618 715 l 1,16,-1
 516 758 l 2,17,18
 222 882 222 882 222 1137 c 0,19,20
 222 1318 222 1318 365 1431 c 0,21,22
 465 1510 465 1510 618 1526 c 1,23,-1
 618 1620 l 2,24,25
 618 1660 618 1660 658 1660 c 2,26,-1
 708 1660 l 2,27,28
 748 1660 748 1660 748 1620 c 2,29,-1
 748 1529 l 1,30,31
 999 1514 999 1514 1104 1336 c 0,32,33
 1136 1280 1136 1280 1136 1217 c 0,34,35
 1136 1140 1136 1140 1083 1086 c 128,-1,36
 1030 1032 1030 1032 954 1032 c 128,-1,37
 878 1032 878 1032 825 1086 c 128,-1,38
 772 1140 772 1140 772 1217 c 0,39,40
 772 1293 772 1293 825 1348 c 0,41,42
 857 1380 857 1380 898 1388 c 1,43,44
 841 1423 841 1423 748 1423 c 1,45,-1
 748 1001 l 1,46,-1
 925 926 l 2,47,48
 1261 784 1261 784 1261 470 c 0,49,50
 1261 268 1261 268 1097 124 c 0,51,52
 962 5 962 5 748 -16 c 1,53,-1
 748 -110 l 2,54,55
 748 -150 748 -150 708 -150 c 2,56,-1
 658 -150 l 2,57,58
 618 -150 618 -150 618 -110 c 2,59,-1
 618 -19 l 1,0,1
618 1069 m 1,60,-1
 618 1389 l 1,61,62
 606 1382 606 1382 596 1373 c 0,63,64
 530 1316 530 1316 530 1214 c 0,65,66
 530 1133 530 1133 618 1069 c 1,60,-1
748 658 m 1,67,-1
 748 110 l 1,68,69
 816 139 816 139 866 202 c 0,70,71
 937 292 937 292 937 409 c 0,72,73
 937 561 937 561 748 658 c 1,67,-1
EndSplineSet
Validated: 1
EndChar

StartChar: percent
Encoding: 37 37 8
Width: 1828
GlyphClass: 2
Flags: MW
LayerCount: 2
Fore
SplineSet
1270 1550 m 0,0,1
 1289 1550 1289 1550 1312 1537 c 2,2,-1
 1410 1481 l 2,3,4
 1449 1459 1449 1459 1449 1423 c 0,5,6
 1449 1401 1449 1401 1437 1381 c 2,7,-1
 613 0 l 2,8,9
 589 -40 589 -40 558 -40 c 0,10,11
 536 -40 536 -40 513 -27 c 2,12,-1
 415 29 l 2,13,14
 376 51 376 51 376 87 c 0,15,16
 376 107 376 107 389 129 c 2,17,-1
 1213 1510 l 2,18,19
 1237 1550 1237 1550 1270 1550 c 0,0,1
1316 623 m 128,-1,21
 1250 623 1250 623 1213 556 c 0,22,23
 1176 486 1176 486 1176 339 c 0,24,25
 1176 191 1176 191 1213 122 c 0,26,27
 1249 55 1249 55 1317.5 55 c 128,-1,28
 1386 55 1386 55 1419 122 c 0,29,30
 1456 193 1456 193 1456 339 c 0,31,32
 1456 489 1456 489 1419 556 c 128,-1,20
 1382 623 1382 623 1316 623 c 128,-1,21
1316 -20 m 128,-1,34
 1180 -20 1180 -20 1076 66 c 0,35,36
 954 166 954 166 954 340 c 0,37,38
 954 512 954 512 1076 612 c 0,39,40
 1179 698 1179 698 1315.5 698 c 128,-1,41
 1452 698 1452 698 1556 612 c 0,42,43
 1678 511 1678 511 1678 339 c 128,-1,44
 1678 167 1678 167 1556 66 c 0,45,33
 1452 -20 1452 -20 1316 -20 c 128,-1,34
512 1530 m 128,-1,47
 648 1530 648 1530 752 1444 c 0,48,49
 874 1344 874 1344 874 1170 c 0,50,51
 874 998 874 998 752 898 c 0,52,53
 649 812 649 812 512.5 812 c 128,-1,54
 376 812 376 812 272 898 c 0,55,56
 150 999 150 999 150 1171 c 128,-1,57
 150 1343 150 1343 272 1444 c 0,58,46
 376 1530 376 1530 512 1530 c 128,-1,47
512 1455 m 128,-1,60
 446 1455 446 1455 409 1388 c 0,61,62
 372 1318 372 1318 372 1171 c 0,63,64
 372 1023 372 1023 409 954 c 0,65,66
 445 887 445 887 513.5 887 c 128,-1,67
 582 887 582 887 615 954 c 0,68,69
 652 1025 652 1025 652 1171 c 0,70,71
 652 1321 652 1321 615 1388 c 128,-1,59
 578 1455 578 1455 512 1455 c 128,-1,60
EndSplineSet
Validated: 1
EndChar

StartChar: ampersand
Encoding: 38 38 9
Width: 1752
GlyphClass: 2
Flags: MW
LayerCount: 2
Fore
SplineSet
737 -20 m 0,0,1
 450 -20 450 -20 292 112 c 0,2,3
 120 256 120 256 120 475 c 0,4,5
 120 646 120 646 220.5 753 c 128,-1,6
 321 860 321 860 473 889 c 1,7,8
 403 918 403 918 355 961 c 0,9,10
 252 1053 252 1053 252 1199 c 0,11,12
 252 1339 252 1339 383 1437 c 0,13,14
 509 1530 509 1530 720 1530 c 0,15,16
 910 1530 910 1530 1025 1415 c 0,17,18
 1102 1338 1102 1338 1102 1238 c 0,19,20
 1102 1159 1102 1159 1049 1105 c 128,-1,21
 996 1051 996 1051 920 1051 c 128,-1,22
 844 1051 844 1051 791 1104.5 c 128,-1,23
 738 1158 738 1158 738 1235 c 0,24,25
 738 1307 738 1307 786 1355 c 0,26,27
 816 1384 816 1384 865 1394 c 1,28,29
 818 1435 818 1435 748 1435 c 0,30,31
 676 1435 676 1435 629 1388 c 0,32,33
 566 1325 566 1325 566 1200 c 0,34,35
 566 1064 566 1064 633 990 c 24,36,37
 710 905 710 905 1029 881 c 1,38,-1
 1246 488 l 1,39,40
 1314 602 1314 602 1349 697 c 1,41,42
 1273 697 1273 697 1220 751 c 128,-1,43
 1167 805 1167 805 1167 882 c 128,-1,44
 1167 959 1167 959 1220 1013 c 128,-1,45
 1273 1067 1273 1067 1349 1067 c 128,-1,46
 1425 1067 1425 1067 1478 1013 c 128,-1,47
 1531 959 1531 959 1531 882 c 0,48,49
 1531 749 1531 749 1307 378 c 1,50,-1
 1412 189 l 2,51,52
 1448 125 1448 125 1506 125 c 0,53,54
 1569 125 1569 125 1618 227 c 1,55,-1
 1632 227 l 1,56,57
 1632 147 1632 147 1591 81 c 0,58,59
 1527 -20 1527 -20 1376 -20 c 0,60,61
 1224 -20 1224 -20 1124 131 c 1,62,63
 988 -20 988 -20 737 -20 c 0,0,1
735 837 m 1,64,65
 650 808 650 808 578 750 c 0,66,67
 460 655 460 655 460 475 c 128,-1,68
 460 295 460 295 543 196 c 0,69,70
 636 85 636 85 779 85 c 0,71,72
 938 85 938 85 1074 228 c 1,73,-1
 735 837 l 1,64,65
EndSplineSet
Validated: 1
EndChar

StartChar: quotesingle
Encoding: 39 39 10
Width: 402
GlyphClass: 2
Flags: MW
LayerCount: 2
Fore
SplineSet
50 1550 m 1,0,1
 296 1550 l 1,2,3
 352 1470 352 1470 352 1379 c 0,4,5
 352 1251 352 1251 266 1125 c 1,6,-1
 80 1125 l 1,7,8
 132 1234 132 1234 132 1343 c 0,9,10
 132 1460 132 1460 50 1550 c 1,0,1
EndSplineSet
Validated: 1
EndChar

StartChar: parenleft
Encoding: 40 40 11
Width: 748
GlyphClass: 2
Flags: MW
LayerCount: 2
Fore
SplineSet
591 1730 m 1,0,1
 698 1673 l 1,2,3
 584 1481 584 1481 543 1235 c 128,-1,4
 502 989 502 989 502 755 c 0,5,6
 502 522 502 522 543 275 c 0,7,8
 584 29 584 29 698 -163 c 1,9,-1
 591 -220 l 1,10,11
 398 -16 398 -16 299 211 c 128,-1,12
 200 438 200 438 200 755 c 128,-1,13
 200 1072 200 1072 299 1299 c 128,-1,14
 398 1526 398 1526 591 1730 c 1,0,1
EndSplineSet
Validated: 1
EndChar

StartChar: parenright
Encoding: 41 41 12
Width: 748
GlyphClass: 2
Flags: MW
LayerCount: 2
Fore
SplineSet
157 1730 m 1,0,1
 350 1526 350 1526 449 1299 c 128,-1,2
 548 1072 548 1072 548 755 c 128,-1,3
 548 438 548 438 449 211 c 128,-1,4
 350 -16 350 -16 157 -220 c 1,5,-1
 50 -163 l 1,6,7
 164 29 164 29 205 275 c 0,8,9
 246 522 246 522 246 755 c 128,-1,10
 246 988 246 988 205 1235 c 0,11,12
 164 1481 164 1481 50 1673 c 1,13,-1
 157 1730 l 1,0,1
EndSplineSet
Validated: 1
EndChar

StartChar: asterisk
Encoding: 42 42 13
Width: 1129
GlyphClass: 2
Flags: MW
LayerCount: 2
Fore
SplineSet
555 1669 m 1,0,-1
 569 1669 l 1,1,-1
 665 1337 l 1,2,-1
 819 1409 l 1,3,-1
 747 1262 l 1,4,-1
 1079 1164 l 1,5,-1
 1079 1150 l 1,6,-1
 747 1054 l 1,7,-1
 819 900 l 1,8,-1
 672 972 l 1,9,-1
 574 640 l 1,10,-1
 560 640 l 1,11,-1
 464 972 l 1,12,-1
 310 900 l 1,13,-1
 382 1047 l 1,14,-1
 50 1145 l 1,15,-1
 50 1159 l 1,16,-1
 382 1255 l 1,17,-1
 310 1409 l 1,18,-1
 457 1337 l 1,19,-1
 555 1669 l 1,0,-1
EndSplineSet
Validated: 1
EndChar

StartChar: plus
Encoding: 43 43 14
Width: 1373
GlyphClass: 2
Flags: MW
LayerCount: 2
Fore
SplineSet
646 1291 m 2,0,-1
 727 1291 l 2,1,2
 792 1291 792 1291 792 1226 c 2,3,-1
 792 860 l 1,4,-1
 1158 860 l 2,5,6
 1223 860 1223 860 1223 795 c 2,7,-1
 1223 714 l 2,8,9
 1223 649 1223 649 1158 649 c 2,10,-1
 792 649 l 1,11,-1
 792 283 l 2,12,13
 792 218 792 218 727 218 c 2,14,-1
 646 218 l 2,15,16
 581 218 581 218 581 283 c 2,17,-1
 581 649 l 1,18,-1
 215 649 l 2,19,20
 150 649 150 649 150 714 c 2,21,-1
 150 795 l 2,22,23
 150 860 150 860 215 860 c 2,24,-1
 581 860 l 1,25,-1
 581 1226 l 2,26,27
 581 1291 581 1291 646 1291 c 2,0,-1
EndSplineSet
Validated: 1
EndChar

StartChar: comma
Encoding: 44 44 15
Width: 484
GlyphClass: 2
Flags: MW
LayerCount: 2
Fore
SplineSet
232 351 m 0,0,1
 314 351 314 351 369 294 c 0,2,3
 434 227 434 227 434 118 c 0,4,5
 434 -4 434 -4 350 -103 c 0,6,7
 236 -236 236 -236 6 -236 c 1,8,-1
 6 -205 l 1,9,10
 93 -169 93 -169 153 -117 c 0,11,12
 200 -75 200 -75 223 -19 c 1,13,14
 144 -19 144 -19 92 33 c 0,15,16
 41 84 41 84 41 164 c 0,17,18
 41 243 41 243 93 297 c 128,-1,19
 145 351 145 351 232 351 c 0,0,1
EndSplineSet
Validated: 1
EndChar

StartChar: hyphen
Encoding: 45 45 16
Width: 1373
GlyphClass: 2
Flags: MW
LayerCount: 2
Fore
SplineSet
215 860 m 2,0,-1
 1158 860 l 2,1,2
 1223 860 1223 860 1223 795 c 2,3,-1
 1223 714 l 2,4,5
 1223 649 1223 649 1158 649 c 2,6,-1
 215 649 l 2,7,8
 150 649 150 649 150 714 c 2,9,-1
 150 795 l 2,10,11
 150 860 150 860 215 860 c 2,0,-1
EndSplineSet
Validated: 1
EndChar

StartChar: period
Encoding: 46 46 17
Width: 464
GlyphClass: 2
Flags: MW
LayerCount: 2
Fore
SplineSet
232 -20 m 128,-1,1
 156 -20 156 -20 103 34 c 128,-1,2
 50 88 50 88 50 165 c 128,-1,3
 50 242 50 242 103 296 c 128,-1,4
 156 350 156 350 232 350 c 128,-1,5
 308 350 308 350 361 296 c 128,-1,6
 414 242 414 242 414 165 c 128,-1,7
 414 88 414 88 361 34 c 128,-1,0
 308 -20 308 -20 232 -20 c 128,-1,1
EndSplineSet
Validated: 1
EndChar

StartChar: slash
Encoding: 47 47 18
Width: 1194
GlyphClass: 2
Flags: MW
LayerCount: 2
Fore
SplineSet
1005 1662 m 0,0,1
 1024 1662 1024 1662 1047 1649 c 2,2,-1
 1145 1593 l 2,3,4
 1184 1571 1184 1571 1184 1535 c 0,5,6
 1184 1514 1184 1514 1172 1493 c 2,7,-1
 247 -110 l 2,8,9
 224 -150 224 -150 192 -150 c 0,10,11
 170 -150 170 -150 147 -137 c 2,12,-1
 49 -81 l 2,13,14
 10 -59 10 -59 10 -23 c 0,15,16
 10 -4 10 -4 23 19 c 2,17,-1
 948 1622 l 2,18,19
 971 1662 971 1662 1005 1662 c 0,0,1
EndSplineSet
Validated: 1
EndChar

StartChar: zero
Encoding: 48 48 19
Width: 1542
GlyphClass: 2
Flags: MW
LayerCount: 2
Fore
SplineSet
771 85 m 128,-1,1
 888 85 888 85 960 202 c 0,2,3
 1073 386 1073 386 1073.08398438 755.051757812 c 128,-1,4
 1073 1124 1073 1124 960 1308 c 0,5,6
 888 1425 888 1425 771 1425 c 128,-1,7
 654 1425 654 1425 582 1308 c 0,8,9
 469 1124 469 1124 469 755 c 128,-1,10
 469 386 469 386 582 202 c 0,11,0
 654 85 654 85 771 85 c 128,-1,1
771 -20 m 128,-1,13
 506 -20 506 -20 349 142 c 0,14,15
 130 367 130 367 130 755 c 128,-1,16
 130 1143 130 1143 349 1368 c 0,17,18
 506 1530 506 1530 771 1530 c 128,-1,19
 1036 1530 1036 1530 1193 1368 c 0,20,21
 1412 1143 1412 1143 1412 755 c 128,-1,22
 1412 367 1412 367 1193 142 c 0,23,12
 1036 -20 1036 -20 771 -20 c 128,-1,13
EndSplineSet
Validated: 1
EndChar

StartChar: one
Encoding: 49 49 20
Width: 820
GlyphClass: 2
Flags: MW
LayerCount: 2
Fore
SplineSet
330 0 m 2,0,1
 250 0 250 0 250 80 c 2,2,-1
 250 1010 l 2,3,4
 250 1203 250 1203 80 1244 c 1,5,-1
 80 1259 l 1,6,7
 355 1356 355 1356 555 1580 c 1,8,-1
 570 1580 l 1,9,-1
 570 80 l 2,10,11
 570 0 570 0 490 0 c 2,12,-1
 330 0 l 2,0,1
EndSplineSet
Validated: 1
EndChar

StartChar: two
Encoding: 50 50 21
Width: 1481
GlyphClass: 2
Flags: MW
LayerCount: 2
Fore
SplineSet
150 -10 m 1,0,1
 223 280 223 280 378 454 c 0,2,3
 519 612 519 612 724 768 c 0,4,5
 902 903 902 903 902 1108 c 0,6,7
 902 1232 902 1232 844 1313 c 0,8,9
 779 1404 779 1404 652 1404 c 0,10,11
 546 1404 546 1404 465 1354 c 0,12,13
 391 1308 391 1308 334 1233 c 1,14,15
 355 1236 355 1236 371 1236 c 0,16,17
 434 1236 434 1236 477 1198 c 0,18,19
 535 1147 535 1147 535 1068.5 c 128,-1,20
 535 990 535 990 482 936.5 c 128,-1,21
 429 883 429 883 353 883 c 128,-1,22
 277 883 277 883 224 937 c 0,23,24
 172 990 172 990 171 1068 c 0,25,26
 171 1242 171 1242 308 1377 c 0,27,28
 463 1530 463 1530 725 1530 c 128,-1,29
 987 1530 987 1530 1117 1402 c 128,-1,30
 1247 1274 1247 1274 1247 1115 c 0,31,32
 1247 868 1247 868 994 704 c 0,33,34
 847 609 847 609 654 498 c 0,35,36
 503 411 503 411 424 289 c 1,37,38
 541 373 541 373 643.5 373 c 128,-1,39
 746 373 746 373 857 335 c 0,40,41
 992 290 992 290 1069 290 c 0,42,43
 1207 291 1207 291 1316 388 c 1,44,-1
 1331 388 l 1,45,46
 1199 -10 1199 -10 974 -10 c 0,47,48
 861 -10 861 -10 712 43 c 0,49,50
 608 80 608 80 448 80 c 0,51,52
 293 80 293 80 165 -10 c 1,53,-1
 150 -10 l 1,0,1
EndSplineSet
Validated: 1
EndChar

StartChar: three
Encoding: 51 51 22
Width: 1333
GlyphClass: 2
Flags: MW
LayerCount: 2
Fore
SplineSet
566 -20 m 0,0,1
 314 -20 314 -20 180 124 c 0,2,3
 120 188 120 188 120 287 c 0,4,5
 120 364 120 364 173 418 c 128,-1,6
 226 472 226 472 302 472 c 128,-1,7
 378 472 378 472 431 418 c 128,-1,8
 484 364 484 364 484 287 c 0,9,10
 484 212 484 212 431 156 c 0,11,12
 411 135 411 135 381 121 c 1,13,14
 446 85 446 85 524 85 c 0,15,16
 667 85 667 85 760 196 c 0,17,18
 843 295 843 295 843 475 c 128,-1,19
 843 655 843 655 725 750 c 128,-1,20
 607 845 607 845 466 859 c 1,21,-1
 466 874 l 1,22,23
 605 918 605 918 670 990 c 0,24,25
 737 1064 737 1064 737 1200 c 0,26,27
 737 1325 737 1325 674 1388 c 0,28,29
 627 1435 627 1435 556 1435 c 0,30,31
 486 1435 486 1435 438 1394 c 1,32,33
 487 1384 487 1384 517 1355 c 0,34,35
 565 1307 565 1307 565 1235 c 0,36,37
 565 1158 565 1158 512 1104.5 c 128,-1,38
 459 1051 459 1051 383 1051 c 128,-1,39
 307 1051 307 1051 254 1105 c 128,-1,40
 201 1159 201 1159 201 1238 c 0,41,42
 201 1338 201 1338 278 1415 c 0,43,44
 393 1530 393 1530 583 1530 c 0,45,46
 794 1530 794 1530 920 1437 c 0,47,48
 1051 1339 1051 1339 1051 1199 c 0,49,50
 1051 1053 1051 1053 948 961 c 0,51,52
 900 918 900 918 830 889 c 1,53,54
 982 860 982 860 1082.5 753 c 128,-1,55
 1183 646 1183 646 1183 475 c 0,56,57
 1183 256 1183 256 1011 112 c 0,58,59
 853 -20 853 -20 566 -20 c 0,0,1
EndSplineSet
Validated: 1
EndChar

StartChar: four
Encoding: 52 52 23
Width: 1296
GlyphClass: 2
Flags: MW
LayerCount: 2
Fore
SplineSet
807 0 m 2,0,1
 727 0 727 0 727 80 c 2,2,-1
 727 356 l 1,3,-1
 97 356 l 2,4,5
 50 356 50 356 50 397 c 2,6,-1
 50 421 l 2,7,8
 50 449 50 449 67 468 c 2,9,-1
 1032 1550 l 1,10,-1
 1047 1550 l 1,11,-1
 1047 476 l 1,12,-1
 1156 476 l 2,13,14
 1196 476 1196 476 1196 441 c 2,15,-1
 1196 391 l 2,16,17
 1196 356 1196 356 1156 356 c 2,18,-1
 1047 356 l 1,19,-1
 1047 80 l 2,20,21
 1047 0 1047 0 967 0 c 2,22,-1
 807 0 l 2,0,1
727 476 m 1,23,-1
 727 1026 l 1,24,-1
 235 476 l 1,25,-1
 727 476 l 1,23,-1
EndSplineSet
Validated: 1
EndChar

StartChar: five
Encoding: 53 53 24
Width: 1322
GlyphClass: 2
Flags: MW
LayerCount: 2
Fore
SplineSet
556 -20 m 0,0,1
 304 -20 304 -20 170 124 c 0,2,3
 110 188 110 188 110 287 c 0,4,5
 110 364 110 364 163 418 c 128,-1,6
 216 472 216 472 292 472 c 128,-1,7
 368 472 368 472 421 418 c 128,-1,8
 474 364 474 364 474 287 c 0,9,10
 474 212 474 212 421 156 c 0,11,12
 401 135 401 135 371 121 c 1,13,14
 436 85 436 85 514 85 c 0,15,16
 657 85 657 85 751 197 c 8,17,18
 832 294 832 294 832 470 c 0,19,20
 832 650 832 650 764 732 c 128,-1,21
 696 814 696 814 581 814 c 0,22,23
 484 814 484 814 399 739 c 1,24,-1
 169 894 l 1,25,-1
 336 1510 l 1,26,-1
 1124 1510 l 1,27,28
 1023 1290 1023 1290 814 1290 c 0,29,30
 593 1290 593 1290 507 1445 c 1,31,-1
 507 919 l 1,32,33
 567 926 567 926 625 926 c 0,34,35
 860 926 860 926 1018 804 c 0,36,37
 1172 685 1172 685 1172 470 c 0,38,39
 1172 253 1172 253 1001 112 c 0,40,41
 841 -20 841 -20 556 -20 c 0,0,1
EndSplineSet
Validated: 1
EndChar

StartChar: six
Encoding: 54 54 25
Width: 1485
GlyphClass: 2
Flags: MW
LayerCount: 2
Fore
SplineSet
766 -20 m 0,0,1
 509 -20 509 -20 367 113 c 0,2,3
 150 316 150 316 150 706 c 0,4,5
 150 1134 150 1134 369 1363 c 0,6,7
 529 1530 529 1530 815 1530 c 0,8,9
 1073 1530 1073 1530 1200 1391 c 0,10,11
 1261 1324 1261 1324 1261 1248 c 0,12,13
 1261 1169 1261 1169 1208 1115 c 128,-1,14
 1155 1061 1155 1061 1079 1061 c 128,-1,15
 1003 1061 1003 1061 950 1114 c 0,16,17
 897 1168 897 1168 897 1245 c 0,18,19
 897 1320 897 1320 946 1366 c 0,20,21
 965 1384 965 1384 990 1394 c 1,22,23
 932 1425 932 1425 841 1425 c 0,24,25
 706 1425 706 1425 609 1281 c 24,26,27
 523 1153 523 1153 501 979 c 1,28,29
 605 1046 605 1046 754 1046 c 0,30,31
 1019 1046 1019 1046 1180 888 c 0,32,33
 1335 735 1335 735 1335 513 c 0,34,35
 1335 294 1335 294 1182 141 c 0,36,37
 1021 -20 1021 -20 766 -20 c 0,0,1
748 938 m 128,-1,39
 626 938 626 938 558 814 c 0,40,41
 501 710 501 710 501 514 c 0,42,43
 501 312 501 312 558 211 c 0,44,45
 628 87 628 87 748 87 c 128,-1,46
 868 87 868 87 938 211 c 0,47,48
 995 312 995 312 995 514 c 0,49,50
 995 710 995 710 938 814 c 0,51,38
 870 938 870 938 748 938 c 128,-1,39
EndSplineSet
Validated: 1
EndChar

StartChar: seven
Encoding: 55 55 26
Width: 1261
GlyphClass: 2
Flags: MW
LayerCount: 2
Fore
SplineSet
603.5 -20 m 128,-1,1
 520 -20 520 -20 464 28 c 0,2,3
 338 137 338 137 338 346 c 0,4,5
 338 589 338 589 477 775 c 0,6,7
 572 900 572 900 695 1003 c 0,8,-1
 905 1187 l 1,9,10
 805 1157 805 1157 728 1157 c 128,-1,11
 651 1157 651 1157 558 1185 c 0,12,13
 422 1226 422 1226 346 1226 c 0,14,15
 176 1226 176 1226 65 1132 c 1,16,-1
 50 1132 l 1,17,18
 181 1520 181 1520 466 1520 c 0,19,20
 587 1520 587 1520 701 1476 c 128,-1,21
 815 1432 815 1432 949 1432 c 0,22,23
 1097 1432 1097 1432 1196 1520 c 1,24,-1
 1211 1520 l 1,25,26
 1124 1250 1124 1250 958 1069 c 0,27,28
 865 968 865 968 809 896 c 0,29,30
 643 683 643 683 643 456 c 0,31,32
 643 336 643 336 711 282 c 0,33,34
 781 226 781 226 781 149 c 0,35,36
 781 82 781 82 734 31 c 128,-1,0
 687 -20 687 -20 603.5 -20 c 128,-1,1
EndSplineSet
Validated: 1
EndChar

StartChar: eight
Encoding: 56 56 27
Width: 1365
GlyphClass: 2
Flags: MW
LayerCount: 2
Fore
SplineSet
712 1432 m 0,0,1
 625 1432 625 1432 580 1373 c 0,2,3
 536 1315 536 1315 536 1218 c 0,4,5
 536 1083 536 1083 683 1000 c 2,6,-1
 810 928 l 1,7,8
 889 1035 889 1035 889 1188 c 0,9,10
 889 1286 889 1286 844 1356 c 0,11,12
 795 1432 795 1432 712 1432 c 0,0,1
676 -20 m 0,13,14
 414 -20 414 -20 267 113 c 128,-1,15
 120 246 120 246 120 430 c 0,16,17
 120 693 120 693 440 810 c 1,18,19
 243 945 243 945 243 1154 c 0,20,21
 243 1335 243 1335 375 1435 c 0,22,23
 501 1530 501 1530 697 1530 c 0,24,25
 892 1530 892 1530 1000 1439 c 0,26,27
 1121 1337 1121 1337 1121 1183 c 0,28,29
 1121 974 1121 974 923 873 c 1,30,31
 1245 729 1245 729 1245 462 c 0,32,33
 1245 263 1245 263 1091 120 c 24,34,35
 940 -20 940 -20 676 -20 c 0,13,14
660 82 m 0,36,37
 796 82 796 82 873 171 c 0,38,39
 944 253 944 253 944 381 c 0,40,41
 944 532 944 532 786 618 c 2,42,-1
 537 754 l 1,43,44
 360 665 360 665 360 427 c 0,45,46
 360 277 360 277 432 185 c 0,47,48
 513 82 513 82 660 82 c 0,36,37
EndSplineSet
Validated: 1
EndChar

StartChar: nine
Encoding: 57 57 28
Width: 1485
GlyphClass: 2
Flags: MW
LayerCount: 2
Fore
SplineSet
670 -20 m 0,0,1
 412 -20 412 -20 285 119 c 0,2,3
 224 186 224 186 224 262 c 0,4,5
 224 341 224 341 277 395 c 128,-1,6
 330 449 330 449 406 449 c 128,-1,7
 482 449 482 449 535 396 c 0,8,9
 588 342 588 342 588 265 c 0,10,11
 588 190 588 190 539 144 c 0,12,13
 520 126 520 126 495 116 c 1,14,15
 555 85 555 85 644 85 c 0,16,17
 779 85 779 85 876 229 c 24,18,19
 962 357 962 357 984 531 c 1,20,21
 880 464 880 464 731 464 c 0,22,23
 466 464 466 464 305 622 c 0,24,25
 150 775 150 775 150 997 c 0,26,27
 150 1216 150 1216 303 1369 c 0,28,29
 464 1530 464 1530 720 1530 c 128,-1,31
 976 1530 976 1530 1118 1397 c 0,32,33
 1335 1194 1335 1194 1335 804 c 0,34,35
 1335 376 1335 376 1116 147 c 0,36,37
 956 -20 956 -20 670 -20 c 0,0,1
737 572 m 128,-1,39
 859 572 859 572 927 696 c 0,40,41
 984 800 984 800 984 996 c 0,42,43
 984 1198 984 1198 927 1299 c 0,44,45
 857 1423 857 1423 737 1423 c 128,-1,46
 617 1423 617 1423 547 1299 c 0,47,48
 490 1198 490 1198 490 996 c 0,49,50
 490 800 490 800 547 696 c 0,51,38
 615 572 615 572 737 572 c 128,-1,39
EndSplineSet
Validated: 1
EndChar

StartChar: colon
Encoding: 58 58 29
Width: 464
GlyphClass: 2
Flags: MW
LayerCount: 2
Fore
SplineSet
232 939 m 128,-1,1
 308 939 308 939 361 885 c 128,-1,2
 414 831 414 831 414 754 c 128,-1,3
 414 677 414 677 361 623 c 128,-1,4
 308 569 308 569 232 569 c 128,-1,5
 156 569 156 569 103 623 c 128,-1,6
 50 677 50 677 50 754 c 128,-1,7
 50 831 50 831 103 885 c 128,-1,0
 156 939 156 939 232 939 c 128,-1,1
232 -19 m 128,-1,9
 156 -19 156 -19 103 35 c 128,-1,10
 50 89 50 89 50 166 c 128,-1,11
 50 243 50 243 103 297 c 128,-1,12
 156 351 156 351 232 351 c 128,-1,13
 308 351 308 351 361 297 c 128,-1,14
 414 243 414 243 414 166 c 128,-1,15
 414 89 414 89 361 35 c 128,-1,8
 308 -19 308 -19 232 -19 c 128,-1,9
EndSplineSet
Validated: 1
EndChar

StartChar: semicolon
Encoding: 59 59 30
Width: 484
GlyphClass: 2
Flags: MW
LayerCount: 2
Fore
SplineSet
232 939 m 128,-1,1
 308 939 308 939 361 885 c 128,-1,2
 414 831 414 831 414 754 c 128,-1,3
 414 677 414 677 361 623 c 128,-1,4
 308 569 308 569 232 569 c 128,-1,5
 156 569 156 569 103 623 c 128,-1,6
 50 677 50 677 50 754 c 128,-1,7
 50 831 50 831 103 885 c 128,-1,0
 156 939 156 939 232 939 c 128,-1,1
232 351 m 0,8,9
 314 351 314 351 369 294 c 0,10,11
 434 227 434 227 434 118 c 0,12,13
 434 -4 434 -4 350 -103 c 0,14,15
 236 -236 236 -236 6 -236 c 1,16,-1
 6 -205 l 1,17,18
 93 -169 93 -169 153 -117 c 0,19,20
 200 -75 200 -75 223 -19 c 1,21,22
 144 -19 144 -19 92 33 c 0,23,24
 41 84 41 84 41 164 c 0,25,26
 41 243 41 243 93 297 c 128,-1,27
 145 351 145 351 232 351 c 0,8,9
EndSplineSet
Validated: 1
EndChar

StartChar: less
Encoding: 60 60 31
Width: 1242
GlyphClass: 2
Flags: MW
LayerCount: 2
Fore
SplineSet
956 1274 m 0,0,1
 981 1274 981 1274 997 1247 c 2,2,-1
 1034 1183 l 2,3,4
 1042 1169 1042 1169 1042 1156 c 0,5,6
 1042 1129 1042 1129 1015 1114 c 2,7,-1
 451 794 l 1,8,-1
 1000 494 l 2,9,10
 1037 474 1037 474 1037 441 c 0,11,12
 1037 423 1037 423 1026 404 c 2,13,-1
 976 317 l 2,14,15
 956 282 956 282 924 282 c 0,16,17
 905 282 905 282 885 293 c 2,18,-1
 200 669 l 2,19,20
 150 696 150 696 150 739 c 2,21,-1
 150 780 l 2,22,23
 150 821 150 821 200 850 c 2,24,-1
 928 1266 l 2,25,26
 942 1274 942 1274 956 1274 c 0,0,1
EndSplineSet
Validated: 1
EndChar

StartChar: equal
Encoding: 61 61 32
Width: 1373
GlyphClass: 2
Flags: MW
LayerCount: 2
Fore
SplineSet
215 655 m 2,0,-1
 1158 655 l 2,1,2
 1223 655 1223 655 1223 590 c 2,3,-1
 1223 509 l 2,4,5
 1223 444 1223 444 1158 444 c 2,6,-1
 215 444 l 2,7,8
 150 444 150 444 150 509 c 2,9,-1
 150 590 l 2,10,11
 150 655 150 655 215 655 c 2,0,-1
215 1065 m 2,12,-1
 1158 1065 l 2,13,14
 1223 1065 1223 1065 1223 1000 c 2,15,-1
 1223 919 l 2,16,17
 1223 854 1223 854 1158 854 c 2,18,-1
 215 854 l 2,19,20
 150 854 150 854 150 919 c 2,21,-1
 150 1000 l 2,22,23
 150 1065 150 1065 215 1065 c 2,12,-1
EndSplineSet
Validated: 1
EndChar

StartChar: greater
Encoding: 62 62 33
Width: 1242
GlyphClass: 2
Flags: MW
LayerCount: 2
Fore
SplineSet
318 1274 m 0,0,1
 337 1274 337 1274 357 1263 c 2,2,-1
 1042 887 l 2,3,4
 1092 860 1092 860 1092 817 c 2,5,-1
 1092 776 l 2,6,7
 1092 735 1092 735 1042 706 c 2,8,-1
 314 290 l 2,9,10
 300 282 300 282 286 282 c 0,11,12
 261 282 261 282 245 309 c 2,13,-1
 208 373 l 2,14,15
 200 387 200 387 200 400 c 0,16,17
 200 427 200 427 227 442 c 2,18,-1
 791 762 l 1,19,-1
 242 1062 l 2,20,21
 205 1082 205 1082 205 1115 c 0,22,23
 205 1133 205 1133 216 1152 c 2,24,-1
 266 1239 l 2,25,26
 286 1274 286 1274 318 1274 c 0,0,1
EndSplineSet
Validated: 1
EndChar

StartChar: question
Encoding: 63 63 34
Width: 1376
GlyphClass: 2
Flags: MW
LayerCount: 2
Fore
SplineSet
704 1530 m 128,-1,1
 966 1530 966 1530 1096 1402 c 128,-1,2
 1226 1274 1226 1274 1226 1115 c 0,3,4
 1226 874 1226 874 1024 730 c 2,5,-1
 755 538 l 2,6,7
 691 492 691 492 691 434 c 0,8,9
 691 400 691 400 652 400 c 2,10,-1
 588 400 l 2,11,12
 549 400 549 400 549 434 c 0,13,14
 549 579 549 579 632 669 c 2,15,-1
 728 773 l 2,16,17
 881 939 881 939 881 1120 c 0,18,19
 881 1232 881 1232 823 1313 c 0,20,21
 758 1404 758 1404 631 1404 c 0,22,23
 525 1404 525 1404 444 1354 c 0,24,25
 370 1308 370 1308 313 1233 c 1,26,27
 334 1236 334 1236 350 1236 c 0,28,29
 413 1236 413 1236 456 1198 c 0,30,31
 514 1147 514 1147 514 1068.5 c 128,-1,32
 514 990 514 990 461 936.5 c 128,-1,33
 408 883 408 883 332 883 c 128,-1,34
 256 883 256 883 203 937 c 0,35,36
 151 990 151 990 150 1068 c 0,37,38
 150 1242 150 1242 287 1377 c 0,39,0
 442 1530 442 1530 704 1530 c 128,-1,1
622 -18 m 128,-1,41
 546 -18 546 -18 493 36 c 128,-1,42
 440 90 440 90 440 167 c 128,-1,43
 440 244 440 244 493 298 c 128,-1,44
 546 352 546 352 622 352 c 128,-1,45
 698 352 698 352 751 298 c 128,-1,46
 804 244 804 244 804 167 c 128,-1,47
 804 90 804 90 751 36 c 128,-1,40
 698 -18 698 -18 622 -18 c 128,-1,41
EndSplineSet
Validated: 1
EndChar

StartChar: at
Encoding: 64 64 35
Width: 1594
GlyphClass: 2
Flags: MW
LayerCount: 2
Fore
SplineSet
912 -20 m 0,0,1
 746 -20 746 -20 655 62 c 0,2,3
 554 153 554 153 554 290 c 0,4,5
 554 443 554 443 682.5 556 c 128,-1,6
 811 669 811 669 1044 681 c 1,7,-1
 1044 791 l 2,8,9
 1044 917 1044 917 999.5 968 c 128,-1,10
 955 1019 955 1019 867 1019 c 0,11,12
 687 1019 687 1019 591 864 c 0,13,14
 467 669 467 669 467 343 c 0,15,16
 467 13 467 13 598 -166 c 0,17,18
 719 -333 719 -333 931 -333 c 0,19,20
 1149 -333 1149 -333 1306 -209 c 1,21,-1
 1358 -277 l 1,22,23
 1142 -430 1142 -430 829 -430 c 0,24,25
 557 -430 557 -430 392 -282 c 0,26,27
 150 -64 150 -64 150 338 c 128,-1,28
 150 740 150 740 392 957 c 0,29,30
 574 1120 574 1120 900 1120 c 0,31,32
 1094 1120 1094 1120 1220 1032 c 0,33,34
 1344 945 1344 945 1344 780 c 2,35,-1
 1344 230 l 2,36,37
 1344 124 1344 124 1432 124 c 0,38,39
 1502 124 1502 124 1539 230 c 1,40,-1
 1554 230 l 1,41,42
 1554 143 1554 143 1511 85 c 0,43,44
 1433 -20 1433 -20 1290 -20 c 0,45,46
 1157 -20 1157 -20 1085 83 c 1,47,48
 1040 -20 1040 -20 912 -20 c 0,0,1
1044 613 m 1,49,50
 978 588 978 588 927 540 c 0,51,52
 843 460 843 460 843 302 c 0,53,54
 843 209 843 209 866 159 c 0,55,56
 904 77 904 77 970 77 c 0,57,58
 1015 77 1015 77 1033 134 c 0,59,60
 1044 170 1044 170 1044 271 c 2,61,-1
 1044 613 l 1,49,50
EndSplineSet
Validated: 1
EndChar

StartChar: A
Encoding: 65 65 36
Width: 1744
GlyphClass: 2
Flags: MW
LayerCount: 2
Fore
SplineSet
176 -20 m 0,0,1
 93 -20 93 -20 48 48 c 0,2,3
 10 106 10 106 10 230 c 1,4,-1
 25 230 l 1,5,6
 60 103 60 103 158 103 c 0,7,8
 212 103 212 103 247 188 c 2,9,-1
 704 1296 l 1,10,11
 676 1385 676 1385 615 1385 c 0,12,13
 548 1385 548 1385 503 1286 c 0,14,-1
 488 1286 l 1,15,16
 488 1370 488 1370 530 1430 c 0,17,18
 600 1530 600 1530 756 1530 c 0,19,20
 954 1530 954 1530 1030 1349 c 2,21,-1
 1504 227 l 2,22,23
 1545 130 1545 130 1607 130 c 0,24,25
 1682 130 1682 130 1719 230 c 1,26,-1
 1734 230 l 1,27,28
 1734 144 1734 144 1697 84 c 0,29,30
 1633 -20 1633 -20 1465 -20 c 0,31,32
 1259 -20 1259 -20 1178 172 c 2,33,-1
 1043 491 l 1,34,-1
 521 491 l 1,35,-1
 372 136 l 2,36,37
 307 -20 307 -20 176 -20 c 0,0,1
783 1119 m 1,38,-1
 572 612 l 1,39,-1
 992 612 l 1,40,-1
 783 1119 l 1,38,-1
EndSplineSet
Validated: 1
EndChar

StartChar: C
Encoding: 67 67 37
Width: 1399
GlyphClass: 2
Flags: MW
LayerCount: 2
Fore
SplineSet
821.5 -20 m 128,-1,1
 516 -20 516 -20 349 142 c 0,2,3
 130 354 130 354 130 755 c 128,-1,4
 130 1156 130 1156 349 1368 c 0,5,6
 516 1529 516 1529 806 1530 c 0,7,8
 1041 1530 1041 1530 1186 1388 c 0,9,10
 1299 1278 1299 1278 1299 1154 c 0,11,12
 1299 1067 1299 1067 1245 1012 c 0,13,14
 1193 959 1193 959 1117 959 c 128,-1,15
 1041 959 1041 959 988 1013.5 c 128,-1,16
 935 1068 935 1068 935 1145 c 128,-1,17
 935 1222 935 1222 992 1274 c 0,18,19
 1027 1306 1027 1306 1082 1311 c 1,20,21
 1059 1339 1059 1339 1031 1362 c 0,22,23
 954 1425 954 1425 841 1425 c 0,24,25
 690 1425 690 1425 604 1305 c 0,26,27
 479 1131 479 1131 479 755 c 0,28,29
 479 352 479 352 603 207 c 0,30,31
 707 85 707 85 863.5 85 c 128,-1,32
 1020 85 1020 85 1121 181 c 0,33,34
 1210 265 1210 265 1281 390 c 1,35,-1
 1296 390 l 1,36,-1
 1296 189 l 1,37,-1
 1295 188 l 1,38,0
 1127 -20 1127 -20 821.5 -20 c 128,-1,1
EndSplineSet
Validated: 1
EndChar

StartChar: D
Encoding: 68 68 38
Width: 1625
GlyphClass: 2
Flags: MW
LayerCount: 2
Fore
SplineSet
338 -20 m 0,0,1
 181 -20 181 -20 118 82 c 0,2,3
 82 140 82 140 81 230 c 1,4,-1
 96 230 l 1,5,6
 133 124 133 124 203 124 c 0,7,8
 290 124 290 124 290 230 c 2,9,-1
 291 1125 l 2,10,11
 291 1205 291 1205 371 1205 c 2,12,-1
 531 1205 l 2,13,14
 610 1205 610 1205 610 1125 c 2,15,-1
 610 278 l 2,16,17
 610 90 610 90 759 90 c 0,18,19
 958 90 958 90 1060 318 c 0,20,21
 1140 498 1140 498 1140 755 c 0,22,23
 1140 1011 1140 1011 1044 1189 c 0,24,25
 924 1410 924 1410 671 1410 c 0,26,27
 284 1410 284 1410 34 1036 c 1,28,-1
 20 1044 l 1,29,30
 228 1530 228 1530 773 1530 c 0,31,32
 1086 1530 1086 1530 1273 1338 c 0,33,34
 1495 1110 1495 1110 1495 755 c 0,35,36
 1495 462 1495 462 1331 239 c 0,37,38
 1141 -20 1141 -20 790 -20 c 0,39,40
 617 -20 617 -20 544 61 c 1,41,42
 480 -20 480 -20 338 -20 c 0,0,1
EndSplineSet
Validated: 1
EndChar

StartChar: E
Encoding: 69 69 39
Width: 1312
GlyphClass: 2
Flags: MW
LayerCount: 2
Fore
SplineSet
737 -20 m 0,0,1
 450 -20 450 -20 292 112 c 0,2,3
 120 256 120 256 120 475 c 0,4,5
 120 646 120 646 220.5 753 c 128,-1,6
 321 860 321 860 473 889 c 1,7,8
 403 918 403 918 355 961 c 0,9,10
 252 1053 252 1053 252 1199 c 0,11,12
 252 1339 252 1339 383 1437 c 0,13,14
 509 1530 509 1530 720 1530 c 0,15,16
 910 1530 910 1530 1025 1415 c 0,17,18
 1102 1338 1102 1338 1102 1238 c 0,19,20
 1102 1159 1102 1159 1049 1105 c 128,-1,21
 996 1051 996 1051 920 1051 c 128,-1,22
 844 1051 844 1051 791 1104.5 c 128,-1,23
 738 1158 738 1158 738 1235 c 0,24,25
 738 1307 738 1307 786 1355 c 0,26,27
 816 1384 816 1384 865 1394 c 1,28,29
 817 1435 817 1435 747.5 1435 c 128,-1,30
 678 1435 678 1435 629 1388 c 0,31,32
 566 1323 566 1323 566 1200 c 0,33,34
 566 1064 566 1064 633 990 c 0,35,36
 698 918 698 918 837 874 c 1,37,-1
 837 859 l 1,38,39
 696 845 696 845 578 750 c 128,-1,40
 460 655 460 655 460 475 c 128,-1,41
 460 295 460 295 543 196 c 0,42,43
 636 85 636 85 779 85 c 0,44,45
 934 85 934 85 1036 181 c 0,46,47
 1124 265 1124 265 1196 390 c 1,48,-1
 1212 390 l 1,49,-1
 1212 189 l 1,50,-1
 1210 188 l 1,51,52
 1042 -20 1042 -20 737 -20 c 0,0,1
EndSplineSet
Validated: 1
EndChar

StartChar: F
Encoding: 70 70 40
Width: 1248
GlyphClass: 2
Flags: MW
LayerCount: 2
Fore
SplineSet
287 -20 m 0,0,1
 130 -20 130 -20 67 82 c 0,2,3
 31 140 31 140 30 230 c 1,4,-1
 45 230 l 1,5,6
 82 124 82 124 152 124 c 0,7,8
 240 124 240 124 240 230 c 2,9,-1
 240 586 l 1,10,-1
 99 586 l 2,11,12
 59 586 59 586 59 621 c 2,13,-1
 59 671 l 2,14,15
 59 706 59 706 99 706 c 2,16,-1
 240 706 l 1,17,-1
 240 956 l 2,18,19
 240 1239 240 1239 395 1380 c 0,20,21
 560 1530 560 1530 790 1530 c 0,22,23
 1031 1530 1031 1530 1157 1393 c 0,24,25
 1218 1327 1218 1327 1218 1242 c 0,26,27
 1218 1155 1218 1155 1164 1100 c 0,28,29
 1112 1047 1112 1047 1036 1047 c 128,-1,30
 960 1047 960 1047 907 1101.5 c 128,-1,31
 854 1156 854 1156 854 1233 c 0,32,33
 854 1320 854 1320 911 1362 c 0,34,35
 943 1386 943 1386 976 1396 c 1,36,37
 922 1425 922 1425 841 1425 c 0,38,39
 759 1425 759 1425 693 1368 c 0,40,41
 560 1253 560 1253 560 955 c 2,42,-1
 560 706 l 1,43,-1
 949 706 l 2,44,45
 989 706 989 706 989 671 c 2,46,-1
 989 621 l 2,47,48
 989 586 989 586 949 586 c 2,49,-1
 560 586 l 1,50,-1
 560 279 l 2,51,52
 560 153 560 153 509 83 c 0,53,54
 434 -20 434 -20 287 -20 c 0,0,1
EndSplineSet
Validated: 1
EndChar

StartChar: G
Encoding: 71 71 41
Width: 1466
GlyphClass: 2
Flags: MW
LayerCount: 2
Fore
SplineSet
804 -20 m 0,0,1
 516 -20 516 -20 349 142 c 0,2,3
 130 354 130 354 130 755 c 128,-1,4
 130 1156 130 1156 349 1368 c 0,5,6
 516 1529 516 1529 806 1530 c 0,7,8
 1041 1530 1041 1530 1186 1388 c 0,9,10
 1299 1278 1299 1278 1299 1154 c 0,11,12
 1299 1067 1299 1067 1245 1012 c 0,13,14
 1193 959 1193 959 1117 959 c 128,-1,15
 1041 959 1041 959 988 1013.5 c 128,-1,16
 935 1068 935 1068 935 1145 c 128,-1,17
 935 1222 935 1222 992 1274 c 0,18,19
 1027 1306 1027 1306 1082 1311 c 1,20,21
 1059 1339 1059 1339 1031 1362 c 0,22,23
 954 1425 954 1425 841 1425 c 0,24,25
 690 1425 690 1425 604 1305 c 0,26,27
 479 1131 479 1131 479 755 c 0,28,29
 479 408 479 408 598 207 c 0,30,31
 670 85 670 85 807 85 c 0,32,33
 927 85 927 85 997 190 c 0,34,35
 1058 282 1058 282 1058 393 c 0,36,37
 1058 586 1058 586 822 586 c 0,38,39
 782 586 782 586 782 621 c 2,40,-1
 782 671 l 2,41,42
 782 706 782 706 822 706 c 2,43,-1
 1067 706 l 2,44,45
 1366 706 1366 706 1366 478 c 0,46,47
 1366 300 1366 300 1240 156 c 0,48,49
 1086 -20 1086 -20 804 -20 c 0,0,1
EndSplineSet
Validated: 1
EndChar

StartChar: H
Encoding: 72 72 42
Width: 1537
GlyphClass: 2
Flags: MW
LayerCount: 2
Fore
SplineSet
287 -20 m 0,0,1
 130 -20 130 -20 67 82 c 0,2,3
 31 140 31 140 30 230 c 1,4,-1
 45 230 l 1,5,6
 82 124 82 124 152 124 c 0,7,8
 240 124 240 124 240 230 c 2,9,-1
 240 1280 l 2,10,11
 240 1386 240 1386 152 1386 c 0,12,13
 82 1386 82 1386 45 1280 c 1,14,-1
 30 1280 l 1,15,16
 31 1370 31 1370 67 1428 c 0,17,18
 130 1530 130 1530 287 1530 c 0,19,20
 434 1530 434 1530 509 1427 c 0,21,22
 560 1357 560 1357 560 1231 c 2,23,-1
 560 707 l 1,24,-1
 977 707 l 1,25,-1
 977 1231 l 2,26,27
 977 1357 977 1357 1028 1427 c 0,28,29
 1103 1530 1103 1530 1250 1530 c 0,30,31
 1407 1530 1407 1530 1470 1428 c 0,32,33
 1506 1370 1506 1370 1507 1280 c 1,34,-1
 1492 1280 l 1,35,36
 1455 1386 1455 1386 1385 1386 c 0,37,38
 1297 1386 1297 1386 1297 1280 c 2,39,-1
 1297 230 l 2,40,41
 1297 124 1297 124 1385 124 c 0,42,43
 1455 124 1455 124 1492 230 c 1,44,-1
 1507 230 l 1,45,46
 1506 140 1506 140 1470 82 c 0,47,48
 1407 -20 1407 -20 1250 -20 c 0,49,50
 1103 -20 1103 -20 1028 83 c 0,51,52
 977 153 977 153 977 279 c 2,53,-1
 977 586 l 1,54,-1
 560 586 l 1,55,-1
 560 279 l 2,56,57
 560 153 560 153 509 83 c 0,58,59
 434 -20 434 -20 287 -20 c 0,0,1
EndSplineSet
Validated: 1
EndChar

StartChar: I
Encoding: 73 73 43
Width: 800
GlyphClass: 2
Flags: MW
LayerCount: 2
Fore
SplineSet
287 -20 m 0,0,1
 130 -20 130 -20 67 82 c 0,2,3
 31 140 31 140 30 230 c 1,4,-1
 45 230 l 1,5,6
 82 124 82 124 152 124 c 0,7,8
 240 124 240 124 240 230 c 2,9,-1
 240 1430 l 2,10,11
 240 1510 240 1510 320 1510 c 2,12,-1
 480 1510 l 2,13,14
 560 1510 560 1510 560 1430 c 2,15,-1
 560 279 l 2,16,17
 560 153 560 153 509 83 c 0,18,19
 434 -20 434 -20 287 -20 c 0,0,1
EndSplineSet
Validated: 1
EndChar

StartChar: J
Encoding: 74 74 44
Width: 1248
GlyphClass: 2
Flags: MW
LayerCount: 2
Fore
SplineSet
458 -20 m 0,0,1
 217 -20 217 -20 91 117 c 0,2,3
 30 183 30 183 30 268 c 0,4,5
 30 355 30 355 84 410 c 0,6,7
 136 463 136 463 212 463 c 128,-1,8
 288 463 288 463 341 408.5 c 128,-1,9
 394 354 394 354 394 277 c 0,10,11
 394 190 394 190 337 148 c 0,12,13
 305 124 305 124 272 114 c 1,14,15
 326 85 326 85 407 85 c 0,16,17
 489 85 489 85 555 142 c 0,18,19
 688 257 688 257 688 555 c 2,20,-1
 688 1280 l 2,21,22
 688 1386 688 1386 600 1386 c 0,23,24
 530 1386 530 1386 493 1280 c 1,25,-1
 478 1280 l 1,26,27
 479 1370 479 1370 515 1428 c 0,28,29
 578 1530 578 1530 735 1530 c 0,30,31
 882 1530 882 1530 957 1427 c 0,32,33
 1008 1357 1008 1357 1008 1231 c 2,34,-1
 1008 554 l 2,35,36
 1008 271 1008 271 853 130 c 0,37,38
 688 -20 688 -20 458 -20 c 0,0,1
EndSplineSet
Validated: 1
EndChar

StartChar: K
Encoding: 75 75 45
Width: 1562
GlyphClass: 2
Flags: MW
LayerCount: 2
Fore
SplineSet
287 -20 m 0,0,1
 130 -20 130 -20 67 82 c 0,2,3
 31 140 31 140 30 230 c 1,4,-1
 45 230 l 1,5,6
 82 124 82 124 152 124 c 0,7,8
 240 124 240 124 240 230 c 2,9,-1
 240 1280 l 2,10,11
 240 1386 240 1386 152 1386 c 0,12,13
 82 1386 82 1386 45 1280 c 1,14,-1
 30 1280 l 1,15,16
 31 1370 31 1370 67 1428 c 0,17,18
 130 1530 130 1530 287 1530 c 0,19,20
 434 1530 434 1530 509 1427 c 0,21,22
 560 1357 560 1357 560 1231 c 2,23,-1
 560 635 l 1,24,25
 1003 914 1003 914 1081 1171 c 1,26,27
 1012 1171 1012 1171 971 1213 c 0,28,29
 917 1268 917 1268 917 1345 c 128,-1,30
 917 1422 917 1422 970 1476 c 128,-1,31
 1023 1530 1023 1530 1099 1530 c 128,-1,32
 1175 1530 1175 1530 1228 1476 c 128,-1,33
 1281 1422 1281 1422 1281 1345 c 0,34,35
 1281 1290 1281 1290 1255 1217 c 0,36,37
 1136 883 1136 883 826 662 c 1,38,39
 1067 662 1067 662 1166 415 c 2,40,-1
 1347 -37 l 2,41,42
 1392 -149 1392 -149 1478 -149 c 0,43,44
 1535 -149 1535 -149 1569 -111 c 0,45,46
 1605 -71 1605 -71 1622 -19 c 1,47,-1
 1632 -19 l 1,48,49
 1620 -143 1620 -143 1549 -218 c 0,50,51
 1460 -312 1460 -312 1321 -312 c 0,52,53
 1102 -312 1102 -312 1014 -94 c 2,54,-1
 839 342 l 2,55,56
 770 515 770 515 666 515 c 0,57,58
 560 515 560 515 560 279 c 0,59,60
 560 153 560 153 509 83 c 0,61,62
 434 -20 434 -20 287 -20 c 0,0,1
EndSplineSet
Validated: 1
EndChar

StartChar: L
Encoding: 76 76 46
Width: 1338
GlyphClass: 2
Flags: MW
LayerCount: 2
Fore
SplineSet
287 -20 m 0,0,1
 130 -20 130 -20 67 82 c 0,2,3
 31 140 31 140 30 230 c 1,4,-1
 45 230 l 1,5,6
 82 124 82 124 152 124 c 0,7,8
 240 124 240 124 240 230 c 2,9,-1
 240 956 l 2,10,11
 240 1239 240 1239 395 1380 c 0,12,13
 560 1530 560 1530 790 1530 c 0,14,15
 1031 1530 1031 1530 1157 1393 c 0,16,17
 1218 1327 1218 1327 1218 1242 c 0,18,19
 1218 1155 1218 1155 1164 1100 c 0,20,21
 1112 1047 1112 1047 1036 1047 c 128,-1,22
 960 1047 960 1047 907 1101.5 c 128,-1,23
 854 1156 854 1156 854 1233 c 0,24,25
 854 1320 854 1320 911 1362 c 0,26,27
 943 1386 943 1386 976 1396 c 1,28,29
 922 1425 922 1425 841 1425 c 0,30,31
 759 1425 759 1425 693 1368 c 0,32,33
 560 1253 560 1253 560 955 c 2,34,-1
 560 279 l 2,35,36
 560 211 560 211 541 146 c 1,37,38
 568 147 568 147 592 147 c 0,39,40
 707 147 707 147 797 116 c 128,-1,41
 887 85 887 85 965 85 c 0,42,43
 1005 85 1005 85 1040 97 c 1,44,45
 943 140 943 140 943 225 c 0,46,47
 943 301 943 301 996 355 c 0,48,49
 1050 409 1050 409 1126 409 c 128,-1,50
 1202 409 1202 409 1255 355 c 128,-1,51
 1308 301 1308 301 1308 224 c 0,52,53
 1308 114 1308 114 1229 51 c 0,54,55
 1141 -19 1141 -19 999 -19 c 0,56,57
 860 -19 860 -19 745 8 c 0,58,59
 634 35 634 35 587 35 c 0,60,61
 532 35 532 35 484 15 c 0,62,63
 401 -20 401 -20 287 -20 c 0,0,1
EndSplineSet
Validated: 1
EndChar

StartChar: M
Encoding: 77 77 47
Width: 2086
GlyphClass: 2
Flags: MW
LayerCount: 2
Fore
SplineSet
177 -20 m 0,0,1
 76 -20 76 -20 36 66 c 0,2,3
 10 122 10 122 10 230 c 1,4,-1
 25 230 l 1,5,6
 60 94 60 94 147 94 c 0,7,8
 221 94 221 94 239 216 c 2,9,-1
 389 1219 l 1,10,-1
 356 1293 l 2,11,12
 322 1370 322 1370 266 1370 c 0,13,14
 201 1370 201 1370 163 1250 c 1,15,-1
 147 1250 l 1,16,17
 147 1368 147 1368 187 1426 c 0,18,19
 259 1530 259 1530 414 1530 c 0,20,21
 608 1530 608 1530 697 1332 c 2,22,-1
 1076 492 l 1,23,-1
 1462 1374 l 2,24,25
 1530 1530 1530 1530 1700 1530 c 0,26,27
 1806 1530 1806 1530 1860 1456 c 0,28,29
 1906 1393 1906 1393 1906 1280 c 1,30,-1
 1891 1280 l 1,31,32
 1854 1419 1854 1419 1762 1419 c 0,33,34
 1697 1419 1697 1419 1684 1384 c 1,35,-1
 1873 216 l 2,36,37
 1886 134 1886 134 1956 134 c 0,38,39
 2027 134 2027 134 2060 230 c 1,40,-1
 2076 230 l 1,41,42
 2076 142 2076 142 2039 84 c 0,43,44
 1972 -20 1972 -20 1821 -20 c 0,45,46
 1684 -20 1684 -20 1616 67 c 0,47,48
 1562 136 1562 136 1543 253 c 2,49,-1
 1428 972 l 1,50,-1
 981 -40 l 1,51,-1
 966 -40 l 1,52,-1
 490 998 l 1,53,-1
 372 214 l 2,54,55
 356 110 356 110 324 62 c 0,56,57
 269 -20 269 -20 177 -20 c 0,0,1
EndSplineSet
Validated: 1
EndChar

StartChar: N
Encoding: 78 78 48
Width: 1647
GlyphClass: 2
Flags: MW
LayerCount: 2
Fore
SplineSet
204 -20 m 0,0,1
 104 -20 104 -20 56 68 c 0,2,3
 30 116 30 116 30 230 c 1,4,-1
 45 230 l 1,5,6
 84 91 84 91 171 91 c 0,7,8
 261 91 261 91 261 230 c 2,9,-1
 261 1238 l 1,10,11
 183 1350 183 1350 126 1350 c 0,12,13
 73 1350 73 1350 45 1250 c 1,14,-1
 30 1250 l 1,15,16
 30 1380 30 1380 99 1455 c 128,-1,17
 168 1530 168 1530 293 1530 c 0,18,19
 440 1530 440 1530 540 1414 c 2,20,-1
 1236 604 l 1,21,-1
 1236 1280 l 2,22,23
 1236 1392 1236 1392 1272 1446 c 0,24,25
 1328 1530 1328 1530 1442 1530 c 0,26,27
 1543 1530 1543 1530 1591 1442 c 0,28,29
 1617 1394 1617 1394 1617 1280 c 1,30,-1
 1602 1280 l 1,31,32
 1563 1419 1563 1419 1476 1419 c 0,33,34
 1386 1419 1386 1419 1386 1280 c 2,35,-1
 1386 -40 l 1,36,-1
 1371 -40 l 1,37,-1
 411 1065 l 1,38,-1
 411 230 l 2,39,40
 411 121 411 121 377 66 c 0,41,42
 324 -20 324 -20 204 -20 c 0,0,1
EndSplineSet
Validated: 1
EndChar

StartChar: P
Encoding: 80 80 49
Width: 1538
GlyphClass: 2
Flags: MW
LayerCount: 2
Fore
SplineSet
339 -20 m 0,0,1
 182 -20 182 -20 119 82 c 0,2,3
 83 140 83 140 82 230 c 1,4,-1
 97 230 l 1,5,6
 134 124 134 124 204 124 c 0,7,8
 292 124 292 124 292 230 c 2,9,-1
 292 1125 l 2,10,11
 292 1205 292 1205 372 1205 c 2,12,-1
 532 1205 l 2,13,14
 612 1205 612 1205 612 1125 c 2,15,-1
 612 660 l 1,16,17
 670 547 670 547 789 547 c 0,18,19
 869 547 869 547 928 601 c 0,20,21
 1063 724 1063 724 1063 988 c 0,22,23
 1063 1183 1063 1183 975 1287 c 0,24,25
 872 1410 872 1410 659 1410 c 0,26,27
 287 1410 287 1410 35 1036 c 1,28,-1
 20 1042 l 1,29,30
 222 1530 222 1530 763 1530 c 0,31,32
 1074 1530 1074 1530 1242 1373 c 0,33,34
 1408 1218 1408 1218 1408 1003 c 0,35,36
 1408 789 1408 789 1295 649 c 0,37,38
 1131 446 1131 446 840 446 c 0,39,40
 703 446 703 446 612 505 c 1,41,-1
 612 279 l 2,42,43
 612 154 612 154 561 83 c 0,44,45
 486 -20 486 -20 339 -20 c 0,0,1
EndSplineSet
Validated: 1
EndChar

StartChar: R
Encoding: 82 82 50
Width: 1593
GlyphClass: 2
Flags: MW
LayerCount: 2
Fore
SplineSet
339 -20 m 0,0,1
 182 -20 182 -20 119 82 c 0,2,3
 83 140 83 140 82 230 c 1,4,-1
 97 230 l 1,5,6
 134 124 134 124 204 124 c 0,7,8
 292 124 292 124 292 230 c 2,9,-1
 292 1125 l 2,10,11
 292 1205 292 1205 372 1205 c 2,12,-1
 532 1205 l 2,13,14
 612 1205 612 1205 612 1125 c 2,15,-1
 612 660 l 1,16,17
 663 547 663 547 789 547 c 0,18,19
 869 547 869 547 928 601 c 0,20,21
 1063 724 1063 724 1063 988 c 0,22,23
 1063 1183 1063 1183 975 1287 c 0,24,25
 872 1410 872 1410 659 1410 c 0,26,27
 287 1410 287 1410 35 1036 c 1,28,-1
 20 1042 l 1,29,30
 222 1530 222 1530 763 1530 c 0,31,32
 1074 1530 1074 1530 1242 1373 c 0,33,34
 1408 1218 1408 1218 1408 1003 c 0,35,36
 1408 789 1408 789 1295 649 c 0,37,38
 1194 524 1194 524 1046 476 c 1,39,40
 1171 446 1171 446 1238 289 c 2,41,-1
 1378 -38 l 2,42,43
 1426 -150 1426 -150 1509 -150 c 0,44,45
 1564 -150 1564 -150 1599.5 -111.5 c 128,-1,46
 1635 -73 1635 -73 1653 -19 c 1,47,-1
 1663 -19 l 1,48,49
 1651 -147 1651 -147 1586 -216 c 0,50,51
 1494 -313 1494 -313 1361 -313 c 0,52,53
 1139 -313 1139 -313 1046 -95 c 2,54,-1
 893 263 l 2,55,56
 822 430 822 430 714 455 c 0,57,58
 661 468 661 468 612 505 c 1,59,-1
 612 279 l 2,60,61
 612 149 612 149 561 83 c 0,62,63
 482 -20 482 -20 339 -20 c 0,0,1
EndSplineSet
Validated: 1
EndChar

StartChar: S
Encoding: 83 83 51
Width: 1381
GlyphClass: 2
Flags: MW
LayerCount: 2
Fore
SplineSet
653 -20 m 0,0,1
 370 -20 370 -20 232 118 c 0,2,3
 120 230 120 230 120 356 c 0,4,5
 120 433 120 433 173 487 c 128,-1,6
 226 541 226 541 302 541 c 128,-1,7
 378 541 378 541 431 487 c 128,-1,8
 484 433 484 433 484 356 c 0,9,10
 484 277 484 277 431 225 c 0,11,12
 394 188 394 188 330 179 c 1,13,14
 448 86 448 86 622 86 c 0,15,16
 775 86 775 86 866 202 c 0,17,18
 937 292 937 292 937 409 c 0,19,20
 937 581 937 581 694 683 c 2,21,-1
 516 758 l 2,22,23
 222 882 222 882 222 1137 c 0,24,25
 222 1318 222 1318 365 1431 c 0,26,27
 490 1530 490 1530 700 1530 c 0,28,29
 989 1530 989 1530 1104 1336 c 0,30,31
 1136 1280 1136 1280 1136 1217 c 0,32,33
 1136 1140 1136 1140 1083 1086 c 128,-1,34
 1030 1032 1030 1032 954 1032 c 128,-1,35
 878 1032 878 1032 825 1086 c 128,-1,36
 772 1140 772 1140 772 1217 c 0,37,38
 772 1293 772 1293 825 1348 c 0,39,40
 856 1380 856 1380 898 1388 c 1,41,42
 841 1423 841 1423 747.5 1423 c 128,-1,43
 654 1423 654 1423 596 1373 c 0,44,45
 530 1316 530 1316 530 1214 c 0,46,47
 530 1093 530 1093 724 1011 c 2,48,-1
 925 926 l 2,49,50
 1261 784 1261 784 1261 470 c 0,51,52
 1261 269 1261 269 1097 124.5 c 128,-1,53
 933 -20 933 -20 653 -20 c 0,0,1
EndSplineSet
Validated: 1
EndChar

StartChar: T
Encoding: 84 84 52
Width: 1416
GlyphClass: 2
Flags: MW
LayerCount: 2
Fore
SplineSet
617 -20 m 0,0,1
 460 -20 460 -20 397 82 c 0,2,3
 361 140 361 140 360 230 c 1,4,-1
 375 230 l 1,5,6
 412 124 412 124 482 124 c 0,7,8
 570 124 570 124 570 230 c 2,9,-1
 570 1125 l 2,10,11
 570 1205 570 1205 650 1205 c 2,12,-1
 810 1205 l 2,13,14
 890 1205 890 1205 890 1125 c 2,15,-1
 890 279 l 2,16,17
 890 153 890 153 839 83 c 0,18,19
 764 -20 764 -20 617 -20 c 0,0,1
700 1510 m 2,20,-1
 999 1510 l 2,21,22
 1241 1510 1241 1510 1337 1386 c 0,23,24
 1386 1323 1386 1323 1386 1245 c 0,25,26
 1386 1154 1386 1154 1332 1099 c 0,27,28
 1280 1046 1280 1046 1204 1046 c 128,-1,29
 1128 1046 1128 1046 1075 1100.5 c 128,-1,30
 1022 1155 1022 1155 1022 1231 c 0,31,32
 1022 1305 1022 1305 1066 1346 c 0,33,34
 1098 1376 1098 1376 1139 1383 c 1,35,36
 1082 1390 1082 1390 1001 1390 c 2,37,-1
 692 1390 l 2,38,39
 211 1390 211 1390 24 1015 c 1,40,-1
 10 1023 l 1,41,42
 141 1510 141 1510 700 1510 c 2,20,-1
EndSplineSet
Validated: 1
EndChar

StartChar: U
Encoding: 85 85 53
Width: 1600
GlyphClass: 2
Flags: MW
LayerCount: 2
Fore
SplineSet
725 -20 m 0,0,1
 461 -20 461 -20 329 144 c 0,2,3
 240 255 240 255 240 442 c 2,4,-1
 240 1280 l 2,5,6
 240 1386 240 1386 152 1386 c 0,7,8
 82 1386 82 1386 45 1280 c 1,9,-1
 30 1280 l 1,10,11
 31 1370 31 1370 67 1428 c 0,12,13
 130 1530 130 1530 287 1530 c 0,14,15
 434 1530 434 1530 509 1427 c 0,16,17
 560 1357 560 1357 560 1231 c 2,18,-1
 560 452 l 2,19,20
 560 314 560 314 594 250 c 0,21,22
 662 122 662 122 798 122 c 0,23,24
 937 122 937 122 1004 245 c 0,25,26
 1040 311 1040 311 1040 452 c 2,27,-1
 1040 1430 l 2,28,29
 1040 1510 1040 1510 1120 1510 c 2,30,-1
 1280 1510 l 2,31,32
 1360 1510 1360 1510 1360 1430 c 2,33,-1
 1360 230 l 2,34,35
 1360 124 1360 124 1448 124 c 0,36,37
 1518 124 1518 124 1555 230 c 1,38,-1
 1570 230 l 1,39,40
 1569 140 1569 140 1533 82 c 0,41,42
 1470 -20 1470 -20 1313 -20 c 0,43,44
 1171 -20 1171 -20 1091 83 c 0,45,46
 1076 102 1076 102 1066 129 c 1,47,48
 933 -20 933 -20 725 -20 c 0,0,1
EndSplineSet
Validated: 1
EndChar

StartChar: V
Encoding: 86 86 54
Width: 1565
GlyphClass: 2
Flags: MW
LayerCount: 2
Fore
SplineSet
763 -20 m 24,0,1
 450 -20 450 -20 318 175 c 0,2,3
 240 290 240 290 240 515 c 2,4,-1
 240 1280 l 2,5,6
 240 1386 240 1386 152 1386 c 0,7,8
 82 1386 82 1386 45 1280 c 1,9,-1
 30 1280 l 1,10,11
 31 1370 31 1370 67 1428 c 0,12,13
 130 1530 130 1530 287 1530 c 0,14,15
 434 1530 434 1530 509 1427 c 0,16,17
 560 1357 560 1357 560 1231 c 2,18,-1
 560 515 l 2,19,20
 560 341 560 341 600 265 c 0,21,22
 672 129 672 129 811 129 c 0,23,24
 941 129 941 129 1025 208 c 0,25,26
 1117 294 1117 294 1162 426 c 0,27,28
 1210 567 1210 567 1210 730 c 0,29,30
 1210 879 1210 879 1130 1015 c 0,31,32
 1076 1106 1076 1106 970 1189 c 0,33,34
 878 1261 878 1261 878 1349 c 0,35,36
 878 1432 878 1432 929 1480 c 0,37,38
 981 1530 981 1530 1066 1530 c 0,39,40
 1185 1530 1185 1530 1260 1426 c 0,41,42
 1435 1180 1435 1180 1435 825 c 0,43,44
 1435 522 1435 522 1322 324 c 0,45,46
 1127 -20 1127 -20 763 -20 c 24,0,1
EndSplineSet
Validated: 1
EndChar

StartChar: W
Encoding: 87 87 55
Width: 2365
GlyphClass: 2
Flags: MW
LayerCount: 2
Fore
SplineSet
725 -20 m 0,0,1
 461 -20 461 -20 329 144 c 0,2,3
 240 255 240 255 240 442 c 2,4,-1
 240 1280 l 2,5,6
 240 1386 240 1386 152 1386 c 0,7,8
 82 1386 82 1386 45 1280 c 1,9,-1
 30 1280 l 1,10,11
 31 1370 31 1370 67 1428 c 0,12,13
 130 1530 130 1530 287 1530 c 0,14,15
 434 1530 434 1530 509 1427 c 0,16,17
 560 1357 560 1357 560 1231 c 2,18,-1
 560 452 l 2,19,20
 560 314 560 314 594 250 c 0,21,22
 662 122 662 122 798 122 c 0,23,24
 936 122 936 122 1004 245 c 0,25,26
 1040 311 1040 311 1040 452 c 2,27,-1
 1040 1430 l 2,28,29
 1040 1510 1040 1510 1120 1510 c 2,30,-1
 1280 1510 l 2,31,32
 1360 1510 1360 1510 1360 1430 c 2,33,-1
 1360 515 l 2,34,35
 1360 341 1360 341 1400 265 c 0,36,37
 1472 129 1472 129 1611 129 c 0,38,39
 1741 129 1741 129 1825 208 c 0,40,41
 1917 294 1917 294 1962 426 c 0,42,43
 2010 567 2010 567 2010 730 c 0,44,45
 2010 879 2010 879 1930 1015 c 0,46,47
 1876 1106 1876 1106 1770 1189 c 0,48,49
 1678 1261 1678 1261 1678 1349 c 0,50,51
 1678 1432 1678 1432 1729 1480 c 0,52,53
 1781 1530 1781 1530 1866 1530 c 0,54,55
 1985 1530 1985 1530 2060 1426 c 0,56,57
 2235 1180 2235 1180 2235 825 c 0,58,59
 2235 522 2235 522 2122 324 c 0,60,61
 1927 -20 1927 -20 1563 -20 c 0,62,63
 1250 -20 1250 -20 1118 175 c 1,64,65
 998 -20 998 -20 725 -20 c 0,0,1
EndSplineSet
Validated: 1
EndChar

StartChar: X
Encoding: 88 88 56
Width: 1409
GlyphClass: 2
Flags: MW
LayerCount: 2
Fore
SplineSet
247 -20 m 0,0,1
 138 -20 138 -20 84 47 c 0,2,3
 32 111 32 111 32 226 c 1,4,-1
 47 226 l 1,5,6
 99 96 99 96 218 96 c 0,7,8
 279 96 279 96 333 128 c 0,9,10
 532 246 532 246 694 415 c 1,11,-1
 251 1310 l 2,12,13
 215 1382 215 1382 160 1382 c 0,14,15
 76 1382 76 1382 45 1284 c 1,16,-1
 30 1284 l 1,17,18
 30 1376 30 1376 70 1428 c 0,19,20
 148 1530 148 1530 305 1530 c 0,21,22
 499 1530 499 1530 589 1349 c 2,23,-1
 923 675 l 1,24,25
 1102 902 1102 902 1163 1160 c 1,26,27
 1073 1160 1073 1160 1023 1211 c 0,28,29
 969 1266 969 1266 969 1344 c 128,-1,30
 969 1422 969 1422 1022 1476 c 128,-1,31
 1075 1530 1075 1530 1151 1530 c 128,-1,32
 1227 1530 1227 1530 1280 1472.5 c 128,-1,33
 1333 1415 1333 1415 1333 1328 c 0,34,35
 1333 1286 1333 1286 1321 1222 c 0,36,37
 1259 890 1259 890 992 534 c 1,38,-1
 1148 220 l 2,39,40
 1194 128 1194 128 1259 128 c 0,41,42
 1331 128 1331 128 1364 226 c 1,43,-1
 1379 226 l 1,44,45
 1379 138 1379 138 1340 83 c 0,46,47
 1267 -20 1267 -20 1103 -20 c 0,48,49
 910 -20 910 -20 820 161 c 2,50,-1
 760 281 l 1,51,52
 585 121 585 121 426 26 c 0,53,54
 349 -20 349 -20 247 -20 c 0,0,1
EndSplineSet
Validated: 1
EndChar

StartChar: Y
Encoding: 89 89 57
Width: 1540
GlyphClass: 2
Flags: MW
LayerCount: 2
Fore
SplineSet
730 -20 m 0,0,1
 469 -20 469 -20 343 117 c 0,2,3
 282 183 282 183 282 268 c 0,4,5
 282 355 282 355 336 410 c 0,6,7
 388 463 388 463 464 463 c 128,-1,8
 540 463 540 463 593 408.5 c 128,-1,9
 646 354 646 354 646 277 c 0,10,11
 646 190 646 190 589 148 c 0,12,13
 557 124 557 124 524 114 c 1,14,15
 578 85 578 85 679 85 c 0,16,17
 781 85 781 85 847 142 c 0,18,19
 980 257 980 257 980 555 c 2,20,-1
 980 594 l 1,21,22
 863 492 863 492 695 492 c 0,23,24
 453 492 453 492 329 631 c 0,25,26
 240 732 240 732 240 904 c 2,27,-1
 240 1280 l 2,28,29
 240 1386 240 1386 152 1386 c 0,30,31
 82 1386 82 1386 45 1280 c 1,32,-1
 30 1280 l 1,33,34
 31 1370 31 1370 67 1428 c 0,35,36
 130 1530 130 1530 287 1530 c 0,37,38
 434 1530 434 1530 509 1427 c 0,39,40
 560 1357 560 1357 560 1231 c 2,41,-1
 560 914 l 2,42,43
 560 810 560 810 594 737 c 0,44,45
 642 634 642 634 770 634 c 0,46,47
 894 634 894 634 944 732 c 0,48,49
 980 803 980 803 980 914 c 2,50,-1
 980 1430 l 2,51,52
 980 1510 980 1510 1060 1510 c 2,53,-1
 1220 1510 l 2,54,55
 1300 1510 1300 1510 1300 1430 c 2,56,-1
 1300 554 l 2,57,58
 1300 271 1300 271 1145 130 c 0,59,60
 980 -20 980 -20 730 -20 c 0,0,1
EndSplineSet
Validated: 1
EndChar

StartChar: Z
Encoding: 90 90 58
Width: 1520
GlyphClass: 2
Flags: MW
LayerCount: 2
Fore
SplineSet
109 -20 m 1,0,-1
 100 -8 l 1,1,-1
 898 1354 l 1,2,3
 789 1356 789 1356 704 1388 c 0,4,5
 626 1417 626 1417 542 1417 c 0,6,7
 466 1417 466 1417 412 1386 c 1,8,9
 501 1346 501 1346 501 1245 c 0,10,11
 501 1174 501 1174 450 1123 c 0,12,13
 396 1069 396 1069 319.5 1069 c 128,-1,14
 243 1069 243 1069 190 1123 c 128,-1,15
 137 1177 137 1177 137 1254 c 0,16,17
 137 1368 137 1368 263 1450 c 0,18,19
 385 1530 385 1530 562 1530 c 0,20,21
 651 1530 651 1530 786 1502 c 0,22,23
 915 1474 915 1474 1009 1474 c 0,24,25
 1169 1474 1169 1474 1330 1530 c 1,26,-1
 1340 1518 l 1,27,-1
 544 156 l 1,28,29
 656 149 656 149 765 122 c 0,30,31
 883 93 883 93 960 93 c 0,32,33
 1063 93 1063 93 1115 123 c 1,34,35
 1026 163 1026 163 1026 264 c 0,36,37
 1026 335 1026 335 1077 386 c 0,38,39
 1131 440 1131 440 1207.5 440 c 128,-1,40
 1284 440 1284 440 1337 386 c 128,-1,41
 1390 332 1390 332 1390 255 c 0,42,43
 1390 148 1390 148 1264 59 c 24,44,45
 1152 -20 1152 -20 969 -20 c 0,46,47
 806 -20 806 -20 679 8 c 128,-1,48
 552 36 552 36 409 36 c 128,-1,49
 266 36 266 36 109 -20 c 1,0,-1
EndSplineSet
Validated: 1
EndChar

StartChar: bracketleft
Encoding: 91 91 59
Width: 885
GlyphClass: 2
Flags: MW
LayerCount: 2
Fore
SplineSet
320 1710 m 2,0,1
 800 1710 l 2,2,3
 835 1710 835 1710 835 1675 c 2,4,-1
 835 1614 l 2,5,6
 835 1579 835 1579 800 1579 c 2,7,-1
 550 1579 l 1,8,-1
 550 -74 l 1,9,-1
 800 -74 l 2,10,11
 835 -74 835 -74 835 -109 c 2,12,-1
 835 -170 l 2,13,14
 835 -205 835 -205 800 -205 c 2,15,-1
 320 -205 l 2,16,17
 250 -205 250 -205 250 -135 c 2,18,-1
 250 1640 l 2,19,20
 250 1710 250 1710 320 1710 c 2,0,1
EndSplineSet
Validated: 1
EndChar

StartChar: backslash
Encoding: 92 92 60
Width: 1194
GlyphClass: 2
Flags: MW
LayerCount: 2
Fore
SplineSet
189 1662 m 0,0,1
 223 1662 223 1662 246 1622 c 2,2,-1
 1171 19 l 2,3,4
 1184 -4 1184 -4 1184 -23 c 0,5,6
 1184 -59 1184 -59 1145 -81 c 2,7,-1
 1047 -137 l 2,8,9
 1024 -150 1024 -150 1002 -150 c 0,10,11
 970 -150 970 -150 947 -110 c 2,12,-1
 22 1493 l 2,13,14
 10 1514 10 1514 10 1535 c 0,15,16
 10 1571 10 1571 49 1593 c 2,17,-1
 147 1649 l 2,18,19
 170 1662 170 1662 189 1662 c 0,0,1
EndSplineSet
Validated: 1
EndChar

StartChar: bracketright
Encoding: 93 93 61
Width: 885
GlyphClass: 2
Flags: MW
LayerCount: 2
Fore
SplineSet
565 1710 m 2,0,1
 635 1710 635 1710 635 1640 c 2,2,-1
 635 -135 l 2,3,4
 635 -205 635 -205 565 -205 c 2,5,-1
 85 -205 l 2,6,7
 50 -205 50 -205 50 -170 c 2,8,-1
 50 -109 l 2,9,10
 50 -74 50 -74 85 -74 c 2,11,-1
 335 -74 l 1,12,-1
 335 1579 l 1,13,-1
 85 1579 l 2,14,15
 50 1579 50 1579 50 1614 c 2,16,-1
 50 1675 l 2,17,18
 50 1710 50 1710 85 1710 c 2,19,-1
 565 1710 l 2,0,1
EndSplineSet
Validated: 1
EndChar

StartChar: asciicircum
Encoding: 94 94 62
Width: 789
GlyphClass: 2
Flags: MW
LayerCount: 2
Fore
SplineSet
335 1530 m 2,0,-1
 480 1530 l 2,1,2
 522 1530 522 1530 550 1480 c 2,3,-1
 730 1153 l 2,4,5
 739 1137 739 1137 739 1124 c 0,6,7
 739 1093 739 1093 712 1085 c 2,8,-1
 598 1050 l 2,9,10
 582 1045 582 1045 571 1045 c 0,11,12
 543 1045 543 1045 530 1068 c 2,13,-1
 373 1355 l 1,14,-1
 204 1059 l 2,15,16
 195 1043 195 1043 177 1043 c 0,17,18
 170 1043 170 1043 157 1046 c 2,19,-1
 69 1067 l 2,20,21
 50 1072 50 1072 50 1093 c 0,22,23
 50 1103 50 1103 56 1114 c 2,24,-1
 265 1480 l 2,25,26
 294 1530 294 1530 335 1530 c 2,0,-1
EndSplineSet
Validated: 1
EndChar

StartChar: underscore
Encoding: 95 95 63
Width: 1353
GlyphClass: 2
Flags: MW
LayerCount: 2
Fore
SplineSet
190 -72 m 2,0,-1
 1163 -72 l 2,1,2
 1203 -72 1203 -72 1203 -112 c 2,3,4
 1203 -176 l 2,5,6
 1203 -216 1203 -216 1163 -216 c 2,7,-1
 190 -216 l 2,8,9
 150 -216 150 -216 150 -176 c 2,10,-1
 150 -112 l 2,11,12
 150 -72 150 -72 190 -72 c 2,0,-1
EndSplineSet
Validated: 1
EndChar

StartChar: grave
Encoding: 96 96 64
Width: 460
GlyphClass: 2
Flags: MW
LayerCount: 2
Fore
SplineSet
170 1508 m 0,0,1
 246 1508 246 1508 276 1450 c 2,2,-1
 410 1184 l 1,3,-1
 390 1160 l 1,4,-1
 106 1290 l 2,5,6
 50 1316 50 1316 50 1388 c 0,7,8
 50 1436 50 1436 82 1472 c 128,-1,9
 114 1508 114 1508 170 1508 c 0,0,1
EndSplineSet
Validated: 1
EndChar

StartChar: a
Encoding: 97 97 65
Width: 1319
GlyphClass: 2
Flags: MW
LayerCount: 2
Fore
SplineSet
661 85 m 0,0,1
 725 85 725 85 765 148 c 0,2,3
 799 201 799 201 799 327 c 2,4,-1
 799 773 l 2,5,6
 799 897 799 897 764 952 c 0,7,8
 725 1015 725 1015 661 1015 c 0,9,10
 562 1015 562 1015 491 879 c 0,11,12
 430 760 430 760 430 550 c 0,13,14
 430 347 430 347 491 221 c 0,15,16
 558 85 558 85 661 85 c 0,0,1
604 -20 m 0,17,18
 393 -20 393 -20 240 151 c 0,19,20
 110 297 110 297 110 550 c 0,21,22
 110 788 110 788 236 942 c 0,23,24
 381 1120 381 1120 610 1120 c 0,25,26
 723 1120 723 1120 800 1040 c 1,27,28
 800 1100 800 1100 879 1100 c 2,29,-1
 1019 1100 l 2,30,31
 1099 1100 1099 1100 1099 1020 c 2,32,-1
 1099 230 l 2,33,34
 1099 124 1099 124 1187 124 c 0,35,36
 1257 124 1257 124 1294 230 c 1,37,-1
 1309 230 l 1,38,39
 1309 143 1309 143 1266 85 c 0,40,41
 1188 -20 1188 -20 1045 -20 c 0,42,43
 912 -20 912 -20 840 83 c 1,44,45
 762 -20 762 -20 604 -20 c 0,17,18
EndSplineSet
Validated: 1
EndChar

StartChar: c
Encoding: 99 99 66
Width: 1197
GlyphClass: 2
Flags: MW
LayerCount: 2
Fore
SplineSet
663 -20 m 0,0,1
 415 -20 415 -20 271 124 c 0,2,3
 110 285 110 285 110 550 c 0,4,5
 110 808 110 808 273 972 c 0,6,7
 420 1120 420 1120 676 1120 c 0,8,9
 872 1120 872 1120 998 1004 c 0,10,11
 1087 922 1087 922 1087 815 c 0,12,13
 1087 735 1087 735 1034 680.5 c 128,-1,14
 981 626 981 626 905 626 c 128,-1,15
 829 626 829 626 776 674 c 128,-1,16
 723 722 723 722 723 799 c 0,17,18
 723 882 723 882 781 929 c 0,19,20
 817 958 817 958 875 965 c 1,21,22
 801 1015 801 1015 708 1015 c 0,23,24
 570 1015 570 1015 500 886 c 0,25,26
 434 764 434 764 434 550 c 0,27,28
 434 346 434 346 489 235 c 0,29,30
 563 86 563 86 721 86 c 0,31,32
 828 86 828 86 903 140 c 0,33,34
 989 201 989 201 1052 284 c 1,35,-1
 1065 284 l 1,36,-1
 1065 128 l 1,37,38
 917 -20 917 -20 663 -20 c 0,0,1
EndSplineSet
Validated: 1
EndChar

StartChar: d
Encoding: 100 100 67
Width: 1319
GlyphClass: 2
Flags: MW
LayerCount: 2
Fore
SplineSet
604 -20 m 0,0,1
 393 -20 393 -20 240 151 c 0,2,3
 110 297 110 297 110 550 c 0,4,5
 110 788 110 788 236 942 c 0,6,7
 381 1120 381 1120 610 1120 c 0,8,9
 723 1120 723 1120 800 1040 c 1,10,-1
 799 1280 l 2,11,12
 799 1386 799 1386 711 1386 c 0,13,14
 641 1386 641 1386 604 1280 c 1,15,-1
 589 1280 l 1,16,17
 589 1369 589 1369 632 1425 c 0,18,19
 709 1530 709 1530 851.5 1530 c 128,-1,20
 994 1530 994 1530 1058 1427 c 0,21,22
 1099 1361 1099 1361 1099 1231 c 2,23,-1
 1099 230 l 2,24,25
 1099 124 1099 124 1187 124 c 0,26,27
 1257 124 1257 124 1294 230 c 1,28,-1
 1309 230 l 1,29,30
 1309 143 1309 143 1266 85 c 0,31,32
 1188 -20 1188 -20 1045 -20 c 0,33,34
 912 -20 912 -20 840 83 c 1,35,36
 762 -20 762 -20 604 -20 c 0,0,1
661 85 m 0,37,38
 725 85 725 85 765 148 c 0,39,40
 799 201 799 201 799 327 c 2,41,-1
 799 773 l 2,42,43
 799 897 799 897 764 952 c 0,44,45
 725 1015 725 1015 661 1015 c 0,46,47
 562 1015 562 1015 491 879 c 0,48,49
 430 760 430 760 430 550 c 0,50,51
 430 347 430 347 491 221 c 0,52,53
 558 85 558 85 661 85 c 0,37,38
EndSplineSet
Validated: 1
EndChar

StartChar: e
Encoding: 101 101 68
Width: 1259
GlyphClass: 2
Flags: MW
LayerCount: 2
Fore
SplineSet
663 -20 m 0,0,1
 415 -20 415 -20 271 124 c 0,2,3
 110 285 110 285 110 550 c 0,4,5
 110 808 110 808 273 972 c 0,6,7
 420 1120 420 1120 662 1120 c 128,-1,8
 904 1120 904 1120 1029 991 c 0,9,10
 1149 867 1149 867 1149 706 c 0,11,12
 1149 549 1149 549 978 495 c 2,13,-1
 456 329 l 1,14,15
 469 276 469 276 489 235 c 0,16,17
 563 86 563 86 721 86 c 0,18,19
 828 86 828 86 903 140 c 0,20,21
 989 201 989 201 1052 284 c 1,22,-1
 1065 284 l 1,23,-1
 1065 128 l 1,24,25
 917 -20 917 -20 663 -20 c 0,0,1
436 446 m 1,26,-1
 727 539 l 2,27,28
 836 574 836 574 836 700 c 0,29,30
 836 830 836 830 797 909 c 0,31,32
 740 1025 740 1025 651 1025 c 0,33,34
 558 1025 558 1025 500 910 c 0,35,36
 434 778 434 778 434 550 c 0,37,38
 434 485 434 485 436 446 c 1,26,-1
EndSplineSet
Validated: 1
EndChar

StartChar: f
Encoding: 102 102 69
Width: 1098
GlyphClass: 2
Flags: MW
LayerCount: 2
Fore
SplineSet
273 -430 m 128,-1,1
 131 -430 131 -430 53 -325 c 0,2,3
 10 -267 10 -267 10 -180 c 1,4,-1
 25 -180 l 1,5,6
 62 -286 62 -286 132 -286 c 0,7,8
 220 -286 220 -286 220 -180 c 2,9,-1
 220 583 l 1,10,-1
 99 583 l 2,11,12
 59 583 59 583 59 618 c 2,13,-1
 59 668 l 2,14,15
 59 703 59 703 99 703 c 2,16,-1
 220 703 l 1,17,-1
 220 1123 l 2,18,19
 220 1310 220 1310 340 1416 c 0,20,21
 469 1530 469 1530 694 1530 c 0,22,23
 876 1530 876 1530 991 1415 c 0,24,25
 1068 1338 1068 1338 1068 1238 c 0,26,27
 1068 1159 1068 1159 1015 1105 c 128,-1,28
 962 1051 962 1051 886 1051 c 128,-1,29
 810 1051 810 1051 757 1104.5 c 128,-1,30
 704 1158 704 1158 704 1235 c 0,31,32
 704 1307 704 1307 752 1355 c 0,33,34
 782 1384 782 1384 831 1394 c 1,35,36
 782 1430 782 1430 721 1430 c 0,37,38
 633 1430 633 1430 582 1360 c 0,39,40
 520 1275 520 1275 520 1122 c 2,41,-1
 520 703 l 1,42,-1
 799 703 l 2,43,44
 839 703 839 703 839 668 c 2,45,-1
 839 618 l 2,46,47
 839 583 839 583 799 583 c 2,48,-1
 520 583 l 1,49,-1
 520 -131 l 2,50,51
 520 -261 520 -261 479 -327 c 0,52,0
 415 -430 415 -430 273 -430 c 128,-1,1
EndSplineSet
Validated: 1
EndChar

StartChar: h
Encoding: 104 104 70
Width: 1390
GlyphClass: 2
Flags: MW
LayerCount: 2
Fore
SplineSet
300 0 m 2,0,1
 220 0 220 0 220 80 c 2,2,-1
 220 1280 l 2,3,4
 220 1386 220 1386 132 1386 c 0,5,6
 62 1386 62 1386 25 1280 c 1,7,-1
 10 1280 l 1,8,9
 10 1369 10 1369 53 1425 c 0,10,11
 130 1530 130 1530 272.5 1530 c 128,-1,12
 415 1530 415 1530 479 1427 c 0,13,14
 520 1361 520 1361 520 1231 c 2,15,-1
 520 977 l 1,16,17
 609 1120 609 1120 800 1120 c 0,18,19
 964 1120 964 1120 1061 1017 c 0,20,21
 1170 901 1170 901 1170 706 c 2,22,-1
 1170 230 l 2,23,24
 1170 124 1170 124 1258 124 c 0,25,26
 1328 124 1328 124 1365 230 c 1,27,-1
 1380 230 l 1,28,29
 1380 143 1380 143 1337 85 c 0,30,31
 1259 -20 1259 -20 1117 -20 c 128,-1,32
 975 -20 975 -20 911 83 c 0,33,34
 870 149 870 149 870 279 c 2,35,-1
 870 703 l 2,36,37
 870 833 870 833 831 897 c 0,38,39
 782 978 782 978 691 978 c 0,40,41
 602 978 602 978 550 884 c 0,42,43
 520 829 520 829 520 703 c 2,44,-1
 520 80 l 2,45,46
 520 0 520 0 440 0 c 2,47,-1
 300 0 l 2,0,1
EndSplineSet
Validated: 1
EndChar

StartChar: i
Encoding: 105 105 71
Width: 740
GlyphClass: 2
Flags: MW
LayerCount: 2
Fore
SplineSet
333 1530 m 128,-1,1
 409 1530 409 1530 462 1476 c 128,-1,2
 515 1422 515 1422 515 1345 c 128,-1,3
 515 1268 515 1268 462 1214 c 128,-1,4
 409 1160 409 1160 333 1160 c 128,-1,5
 257 1160 257 1160 204 1214 c 128,-1,6
 151 1268 151 1268 151 1345 c 128,-1,7
 151 1422 151 1422 204 1476 c 128,-1,0
 257 1530 257 1530 333 1530 c 128,-1,1
467 -20 m 128,-1,9
 325 -20 325 -20 261 83 c 0,10,11
 220 149 220 149 220 279 c 2,12,-1
 220 870 l 2,13,14
 220 976 220 976 132 976 c 0,15,16
 62 976 62 976 25 870 c 1,17,-1
 10 870 l 1,18,19
 10 956 10 956 53 1015 c 0,20,21
 130 1120 130 1120 272.5 1120 c 128,-1,22
 415 1120 415 1120 479 1017 c 0,23,24
 520 951 520 951 520 821 c 2,25,-1
 520 230 l 2,26,27
 520 124 520 124 608 124 c 0,28,29
 678 124 678 124 715 230 c 1,30,-1
 730 230 l 1,31,32
 730 143 730 143 687 85 c 0,33,8
 609 -20 609 -20 467 -20 c 128,-1,9
EndSplineSet
Validated: 1
EndChar

StartChar: j
Encoding: 106 106 72
Width: 740
GlyphClass: 2
Flags: MW
LayerCount: 2
Fore
SplineSet
333 1530 m 128,-1,1
 409 1530 409 1530 462 1476 c 128,-1,2
 515 1422 515 1422 515 1345 c 128,-1,3
 515 1268 515 1268 462 1214 c 128,-1,4
 409 1160 409 1160 333 1160 c 128,-1,5
 257 1160 257 1160 204 1214 c 128,-1,6
 151 1268 151 1268 151 1345 c 128,-1,7
 151 1422 151 1422 204 1476 c 128,-1,0
 257 1530 257 1530 333 1530 c 128,-1,1
10 -430 m 1,8,9
 10 -415 l 1,10,11
 220 -309 220 -309 220 0 c 2,12,-1
 220 870 l 2,13,14
 220 976 220 976 132 976 c 0,15,16
 62 976 62 976 25 870 c 1,17,-1
 10 870 l 1,18,19
 10 956 10 956 53 1015 c 0,20,21
 130 1120 130 1120 272.5 1120 c 128,-1,22
 415 1120 415 1120 479 1017 c 0,23,24
 520 951 520 951 520 821 c 2,25,-1
 520 0 l 2,26,27
 520 -430 520 -430 10 -430 c 1,8,9
EndSplineSet
Validated: 1
EndChar

StartChar: l
Encoding: 108 108 73
Width: 740
GlyphClass: 2
Flags: MW
LayerCount: 2
Fore
SplineSet
467 -20 m 128,-1,1
 325 -20 325 -20 261 83 c 0,2,3
 220 149 220 149 220 279 c 2,4,-1
 220 1280 l 2,5,6
 220 1386 220 1386 132 1386 c 0,7,8
 62 1386 62 1386 25 1280 c 1,9,-1
 10 1280 l 1,10,11
 10 1369 10 1369 53 1425 c 0,12,13
 130 1530 130 1530 272.5 1530 c 128,-1,14
 415 1530 415 1530 479 1427 c 0,15,16
 520 1361 520 1361 520 1231 c 2,17,-1
 520 230 l 2,18,19
 520 124 520 124 608 124 c 0,20,21
 678 124 678 124 715 230 c 1,22,-1
 730 230 l 1,23,24
 730 145 730 145 687 85 c 0,25,0
 609 -20 609 -20 467 -20 c 128,-1,1
EndSplineSet
Validated: 1
EndChar

StartChar: m
Encoding: 109 109 74
Width: 2040
GlyphClass: 2
Flags: MW
LayerCount: 2
Fore
SplineSet
300 0 m 2,0,1
 220 0 220 0 220 80 c 2,2,-1
 220 870 l 2,3,4
 220 976 220 976 132 976 c 0,5,6
 62 976 62 976 25 870 c 1,7,-1
 10 870 l 1,8,9
 10 957 10 957 53 1015 c 0,10,11
 131 1120 131 1120 274 1120 c 0,12,13
 419 1120 419 1120 479 1017 c 0,14,15
 496 988 496 988 506 952 c 1,16,17
 610 1120 610 1120 809 1120 c 0,18,19
 974 1120 974 1120 1066 1002 c 0,20,21
 1097 963 1097 963 1119 912 c 1,22,23
 1221 1120 1221 1120 1450 1120 c 0,24,25
 1614 1120 1614 1120 1711 1017 c 0,26,27
 1820 901 1820 901 1820 706 c 2,28,-1
 1820 230 l 2,29,30
 1820 124 1820 124 1908 124 c 0,31,32
 1978 124 1978 124 2015 230 c 1,33,-1
 2030 230 l 1,34,35
 2030 143 2030 143 1987 85 c 0,36,37
 1909 -20 1909 -20 1767 -20 c 128,-1,38
 1625 -20 1625 -20 1561 83 c 0,39,40
 1520 149 1520 149 1520 279 c 2,41,-1
 1520 703 l 2,42,43
 1520 833 1520 833 1481 897 c 0,44,45
 1432 978 1432 978 1341 978 c 0,46,47
 1252 978 1252 978 1200 884 c 0,48,49
 1170 829 1170 829 1170 703 c 2,50,-1
 1170 80 l 2,51,52
 1170 0 1170 0 1090 0 c 2,53,-1
 950 0 l 2,54,55
 870 0 870 0 870 80 c 2,56,-1
 870 703 l 2,57,58
 870 833 870 833 831 897 c 0,59,60
 782 978 782 978 691 978 c 0,61,62
 602 978 602 978 550 884 c 0,63,64
 520 829 520 829 520 703 c 2,65,-1
 520 80 l 2,66,67
 520 0 520 0 440 0 c 2,68,-1
 300 0 l 2,0,1
EndSplineSet
Validated: 1
EndChar

StartChar: n
Encoding: 110 110 75
Width: 1390
GlyphClass: 2
Flags: MW
LayerCount: 2
Fore
SplineSet
300 0 m 2,0,1
 220 0 220 0 220 80 c 2,2,-1
 220 870 l 2,3,4
 220 976 220 976 132 976 c 0,5,6
 62 976 62 976 25 870 c 1,7,-1
 10 870 l 1,8,9
 10 957 10 957 53 1015 c 0,10,11
 131 1120 131 1120 274 1120 c 0,12,13
 419 1120 419 1120 479 1017 c 0,14,15
 496 988 496 988 506 952 c 1,16,17
 593 1120 593 1120 800 1120 c 0,18,19
 964 1120 964 1120 1061 1017 c 0,20,21
 1170 901 1170 901 1170 706 c 2,22,-1
 1170 230 l 2,23,24
 1170 124 1170 124 1258 124 c 0,25,26
 1328 124 1328 124 1365 230 c 1,27,-1
 1380 230 l 1,28,29
 1380 143 1380 143 1337 85 c 0,30,31
 1259 -20 1259 -20 1117 -20 c 128,-1,32
 975 -20 975 -20 911 83 c 0,33,34
 870 149 870 149 870 279 c 2,35,-1
 870 703 l 2,36,37
 870 833 870 833 831 897 c 0,38,39
 782 978 782 978 691 978 c 0,40,41
 602 978 602 978 550 884 c 0,42,43
 520 829 520 829 520 703 c 2,44,-1
 520 80 l 2,45,46
 520 0 520 0 440 0 c 2,47,-1
 300 0 l 2,0,1
EndSplineSet
Validated: 1
EndChar

StartChar: o
Encoding: 111 111 76
Width: 1286
GlyphClass: 2
Flags: MW
LayerCount: 2
Fore
SplineSet
643 75 m 128,-1,1
 748 75 748 75 802.5 204 c 128,-1,2
 857 333 857 333 857 550 c 128,-1,3
 857 767 857 767 802.5 896 c 128,-1,4
 748 1025 748 1025 643 1025 c 128,-1,5
 538 1025 538 1025 483.5 896 c 128,-1,6
 429 767 429 767 429 550 c 128,-1,7
 429 333 429 333 483.5 204 c 128,-1,0
 538 75 538 75 643 75 c 128,-1,1
643 -20 m 128,-1,9
 411 -20 411 -20 271 124 c 0,10,11
 110 290 110 290 110 550 c 128,-1,12
 110 810 110 810 271 976 c 0,13,14
 411 1120 411 1120 643 1120 c 128,-1,15
 875 1120 875 1120 1015 976 c 0,16,17
 1176 810 1176 810 1176 550 c 128,-1,18
 1176 290 1176 290 1015 124 c 0,19,8
 875 -20 875 -20 643 -20 c 128,-1,9
EndSplineSet
Validated: 1
EndChar

StartChar: p
Encoding: 112 112 77
Width: 1319
GlyphClass: 2
Flags: MW
LayerCount: 2
Fore
SplineSet
658 1015 m 0,0,1
 594 1015 594 1015 554 952 c 0,2,3
 520 899 520 899 520 773 c 2,4,-1
 520 327 l 2,5,6
 520 203 520 203 555 148 c 0,7,8
 594 85 594 85 658 85 c 0,9,10
 757 85 757 85 828 221 c 0,11,12
 889 340 889 340 889 550 c 0,13,14
 889 753 889 753 828 879 c 0,15,16
 761 1015 761 1015 658 1015 c 0,0,1
709 -20 m 0,17,18
 596 -20 596 -20 519 60 c 1,19,-1
 520 -330 l 2,20,21
 520 -410 520 -410 440 -410 c 2,22,-1
 300 -410 l 2,23,24
 220 -410 220 -410 220 -330 c 2,25,-1
 220 870 l 2,26,27
 220 976 220 976 132 976 c 0,28,29
 62 976 62 976 25 870 c 1,30,-1
 10 870 l 1,31,32
 10 957 10 957 53 1015 c 0,33,34
 131 1120 131 1120 274 1120 c 0,35,36
 407 1120 407 1120 479 1017 c 1,37,38
 557 1120 557 1120 715 1120 c 0,39,40
 940 1120 940 1120 1079 949 c 0,41,42
 1209 785 1209 785 1209 550 c 0,43,44
 1209 312 1209 312 1083 158 c 0,45,46
 938 -20 938 -20 709 -20 c 0,17,18
EndSplineSet
Validated: 1
EndChar

StartChar: q
Encoding: 113 113 78
Width: 1319
GlyphClass: 2
Flags: MW
LayerCount: 2
Fore
SplineSet
661 85 m 0,0,1
 725 85 725 85 765 148 c 0,2,3
 799 201 799 201 799 327 c 2,4,-1
 799 773 l 2,5,6
 799 897 799 897 764 952 c 0,7,8
 725 1015 725 1015 661 1015 c 0,9,10
 554 1015 554 1015 491 879 c 0,11,12
 430 751 430 751 430 550 c 0,13,14
 430 347 430 347 491 221 c 0,15,16
 558 85 558 85 661 85 c 0,0,1
604 -20 m 0,17,18
 393 -20 393 -20 240 151 c 0,19,20
 110 297 110 297 110 550 c 0,21,22
 110 788 110 788 236 942 c 0,23,24
 381 1120 381 1120 610 1120 c 0,25,26
 723 1120 723 1120 800 1040 c 1,27,28
 800 1100 800 1100 879 1100 c 2,29,-1
 1019 1100 l 2,30,31
 1099 1100 1099 1100 1099 1020 c 2,32,-1
 1099 -180 l 2,33,34
 1099 -286 1099 -286 1187 -286 c 0,35,36
 1257 -286 1257 -286 1294 -180 c 1,37,-1
 1309 -180 l 1,38,39
 1309 -267 1309 -267 1266 -325 c 0,40,41
 1188 -430 1188 -430 1047 -430 c 0,42,43
 903 -430 903 -430 840 -327 c 0,44,45
 799 -260 799 -260 799 -131 c 2,46,-1
 799 40 l 1,47,48
 729 -20 729 -20 604 -20 c 0,17,18
EndSplineSet
Validated: 1
EndChar

StartChar: r
Encoding: 114 114 79
Width: 1099
GlyphClass: 2
Flags: MW
LayerCount: 2
Fore
SplineSet
300 0 m 2,0,1
 220 0 220 0 220 80 c 2,2,-1
 220 870 l 2,3,4
 220 976 220 976 132 976 c 0,5,6
 62 976 62 976 25 870 c 1,7,-1
 10 870 l 1,8,9
 10 957 10 957 53 1015 c 0,10,11
 131 1120 131 1120 274 1120 c 0,12,13
 399 1120 399 1120 461 1043 c 1,14,15
 569 1120 569 1120 705 1120 c 0,16,17
 870 1120 870 1120 980 1019 c 0,18,19
 1069 936 1069 936 1069 838 c 0,20,21
 1069 755 1069 755 1015 699 c 0,22,23
 962 644 962 644 886 644 c 128,-1,24
 810 644 810 644 757 698.5 c 128,-1,25
 704 753 704 753 704 830 c 0,26,27
 704 910 704 910 759 958 c 0,28,29
 790 985 790 985 828 991 c 1,30,31
 786 1019 786 1019 722 1019 c 0,32,33
 665 1019 665 1019 618 985 c 0,34,35
 520 914 520 914 520 703 c 2,36,-1
 520 80 l 2,37,38
 520 0 520 0 440 0 c 2,39,-1
 300 0 l 2,0,1
EndSplineSet
Validated: 1
EndChar

StartChar: s
Encoding: 115 115 80
Width: 1140
GlyphClass: 2
Flags: MW
LayerCount: 2
Fore
SplineSet
538 -20 m 0,0,1
 282 -20 282 -20 160 149 c 0,2,3
 110 218 110 218 110 288 c 0,4,5
 110 365 110 365 163 419 c 128,-1,6
 216 473 216 473 292 473 c 128,-1,7
 368 473 368 473 421 419 c 128,-1,8
 474 365 474 365 474 288 c 0,9,10
 474 224 474 224 425 177 c 0,11,12
 392 145 392 145 346 133 c 1,13,14
 431 93 431 93 520 93 c 128,-1,15
 609 93 609 93 666 139 c 0,16,17
 740 199 740 199 740 294 c 0,18,19
 739 408 739 408 602 471 c 2,20,-1
 432 549 l 2,21,22
 207 652 207 652 207 826 c 0,23,24
 207 969 207 969 322 1047 c 0,25,26
 430 1120 430 1120 612 1120 c 0,27,28
 807 1120 807 1120 897 1012 c 0,29,30
 947 952 947 952 947 885 c 128,-1,31
 947 818 947 818 902 774 c 0,32,33
 855 728 855 728 792 728 c 0,34,35
 727 728 727 728 682 774 c 0,36,37
 644 813 644 813 644 873 c 0,38,39
 644 977 644 977 750 996 c 1,40,41
 711 1017 711 1017 650 1017 c 0,42,43
 586 1017 586 1017 543 983 c 0,44,45
 485 937 485 937 485 864 c 0,46,47
 485 770 485 770 621 709 c 2,48,-1
 776 639 l 2,49,50
 1030 524 1030 524 1030 332 c 0,51,52
 1030 176 1030 176 896 78 c 0,53,54
 764 -20 764 -20 538 -20 c 0,0,1
EndSplineSet
Validated: 1
EndChar

StartChar: t
Encoding: 116 116 81
Width: 820
GlyphClass: 2
Flags: MW
LayerCount: 2
Fore
SplineSet
507 -20 m 128,-1,1
 365 -20 365 -20 301 83 c 0,2,3
 260 149 260 149 260 279 c 2,4,-1
 260 980 l 1,5,-1
 60 980 l 2,6,7
 20 980 20 980 20 1015 c 2,8,-1
 20 1065 l 2,9,10
 20 1100 20 1100 60 1100 c 2,11,-1
 260 1100 l 1,12,-1
 260 1280 l 2,13,14
 260 1386 260 1386 172 1386 c 0,15,16
 102 1386 102 1386 65 1280 c 1,17,-1
 50 1280 l 1,18,19
 50 1369 50 1369 93 1425 c 0,20,21
 170 1530 170 1530 312.5 1530 c 128,-1,22
 455 1530 455 1530 519 1427 c 0,23,24
 560 1361 560 1361 560 1231 c 2,25,-1
 560 1100 l 1,26,-1
 760 1100 l 2,27,28
 800 1100 800 1100 800 1065 c 2,29,-1
 800 1015 l 2,30,31
 800 980 800 980 760 980 c 2,32,-1
 560 980 l 1,33,-1
 560 230 l 2,34,35
 560 124 560 124 648 124 c 0,36,37
 718 124 718 124 755 230 c 1,38,-1
 770 230 l 1,39,40
 770 145 770 145 727 85 c 0,41,0
 649 -20 649 -20 507 -20 c 128,-1,1
EndSplineSet
Validated: 1
EndChar

StartChar: u
Encoding: 117 117 82
Width: 1390
GlyphClass: 2
Flags: MW
LayerCount: 2
Fore
SplineSet
590 -20 m 0,0,1
 426 -20 426 -20 329 83 c 0,2,3
 220 199 220 199 220 394 c 2,4,-1
 220 870 l 2,5,6
 220 976 220 976 132 976 c 0,7,8
 62 976 62 976 25 870 c 1,9,-1
 10 870 l 1,10,11
 10 957 10 957 53 1015 c 0,12,13
 131 1120 131 1120 273 1120 c 128,-1,14
 415 1120 415 1120 479 1017 c 0,15,16
 520 951 520 951 520 821 c 2,17,-1
 520 397 l 2,18,19
 520 267 520 267 559 203 c 0,20,21
 608 122 608 122 699 122 c 0,22,23
 788 122 788 122 840 216 c 0,24,25
 870 271 870 271 870 397 c 2,26,-1
 870 1020 l 2,27,28
 870 1100 870 1100 950 1100 c 2,29,-1
 1090 1100 l 2,30,31
 1170 1100 1170 1100 1170 1020 c 2,32,-1
 1170 230 l 2,33,34
 1170 124 1170 124 1258 124 c 0,35,36
 1328 124 1328 124 1365 230 c 1,37,-1
 1380 230 l 1,38,39
 1380 143 1380 143 1337 85 c 0,40,41
 1259 -20 1259 -20 1116 -20 c 0,42,43
 971 -20 971 -20 911 83 c 0,44,45
 894 112 894 112 884 148 c 1,46,47
 797 -20 797 -20 590 -20 c 0,0,1
EndSplineSet
Validated: 1
EndChar

StartChar: braceleft
Encoding: 123 123 83
Width: 853
GlyphClass: 2
Flags: MW
LayerCount: 2
Fore
SplineSet
778 1710 m 8,0,1
 803 1710 803 1710 803 1685 c 2,2,-1
 803 1653 l 2,3,4
 803 1628 803 1628 778 1628 c 16,5,6
 685 1628 685 1628 624 1574 c 0,7,8
 550 1510 550 1510 550 1301 c 2,9,-1
 550 1027 l 2,10,11
 550 796 550 796 287 755 c 1,12,13
 550 705 550 705 550 483 c 2,14,-1
 550 209 l 2,15,16
 550 0 550 0 624 -64 c 0,17,18
 685 -118 685 -118 778 -118 c 8,19,20
 803 -118 803 -118 803 -143 c 2,21,-1
 803 -175 l 2,22,23
 803 -200 803 -200 778 -200 c 16,24,25
 502 -200 502 -200 374 -99 c 0,26,27
 250 -1 250 -1 250 214 c 2,28,-1
 250 482 l 2,29,30
 250 693 250 693 50 755 c 1,31,32
 250 815 250 815 250 1028 c 2,33,-1
 250 1296 l 2,34,35
 250 1509 250 1509 374 1609 c 0,36,37
 499 1710 499 1710 778 1710 c 8,0,1
EndSplineSet
Validated: 1
EndChar

StartChar: bar
Encoding: 124 124 84
Width: 775
GlyphClass: 2
Flags: MW
LayerCount: 2
Fore
SplineSet
320 1660 m 2,0,-1
 455 1660 l 2,1,2
 525 1660 525 1660 525 1590 c 2,3,-1
 525 -80 l 2,4,5
 525 -150 525 -150 455 -150 c 2,6,-1
 320 -150 l 2,7,8
 250 -150 250 -150 250 -80 c 2,9,-1
 250 1590 l 2,10,11
 250 1660 250 1660 320 1660 c 2,0,-1
EndSplineSet
Validated: 1
EndChar

StartChar: braceright
Encoding: 125 125 85
Width: 853
GlyphClass: 2
Flags: MW
LayerCount: 2
Fore
SplineSet
75 1710 m 16,0,1
 354 1710 354 1710 479 1609 c 0,2,3
 603 1509 603 1509 603 1296 c 2,4,-1
 603 1028 l 2,5,6
 603 815 603 815 803 755 c 1,7,8
 603 693 603 693 603 482 c 2,9,-1
 603 214 l 2,10,11
 603 -1 603 -1 479 -99 c 0,12,13
 351 -200 351 -200 75 -200 c 8,14,15
 50 -200 50 -200 50 -175 c 2,16,-1
 50 -143 l 2,17,18
 50 -118 50 -118 75 -118 c 16,19,20
 168 -118 168 -118 229 -64 c 0,21,22
 303 0 303 0 303 209 c 2,23,-1
 303 483 l 2,24,25
 303 705 303 705 566 755 c 1,26,27
 303 796 303 796 303 1027 c 2,28,-1
 303 1301 l 2,29,30
 303 1510 303 1510 229 1574 c 0,31,32
 168 1628 168 1628 75 1628 c 8,33,34
 50 1628 50 1628 50 1653 c 2,35,-1
 50 1685 l 2,36,37
 50 1710 50 1710 75 1710 c 16,0,1
EndSplineSet
Validated: 1
EndChar

StartChar: asciitilde
Encoding: 126 126 86
Width: 1313
GlyphClass: 2
Flags: MW
LayerCount: 2
Fore
SplineSet
442 926 m 0,0,1
 509 926 509 926 582 894 c 2,2,-1
 826 787 l 2,3,4
 878 764 878 764 931 764 c 0,5,6
 1086 764 1086 764 1144 900 c 1,7,-1
 1163 900 l 1,8,9
 1119 583 1119 583 872 583 c 0,10,11
 805 583 805 583 732 615 c 2,12,-1
 488 722 l 2,13,14
 436 745 436 745 382 745 c 0,15,16
 228 745 228 745 170 609 c 1,17,-1
 150 609 l 1,18,19
 183 926 183 926 442 926 c 0,0,1
EndSplineSet
Validated: 1
EndChar

StartChar: exclamdown
Encoding: 161 161 88
Width: 764
VWidth: 1638
GlyphClass: 2
Flags: MW
LayerCount: 2
Fore
SplineSet
382 1120 m 128,-1,1
 458 1120 458 1120 511 1066 c 128,-1,2
 564 1012 564 1012 564 935 c 128,-1,3
 564 858 564 858 511 804 c 128,-1,4
 458 750 458 750 382 750 c 128,-1,5
 306 750 306 750 253 804 c 128,-1,6
 200 858 200 858 200 935 c 128,-1,7
 200 1012 200 1012 253 1066 c 128,-1,0
 306 1120 306 1120 382 1120 c 128,-1,1
382 -430 m 128,-1,9
 306 -430 306 -430 253 -376 c 128,-1,10
 200 -322 200 -322 200 -245 c 0,11,12
 200 -231 200 -231 201 -224 c 2,13,-1
 323 671 l 2,14,15
 327 700 327 700 360 700 c 2,16,-1
 404 700 l 2,17,18
 437 700 437 700 441 671 c 2,19,-1
 563 -224 l 2,20,21
 564 -231 564 -231 564 -245 c 0,22,23
 564 -322 564 -322 511 -376 c 128,-1,8
 458 -430 458 -430 382 -430 c 128,-1,9
EndSplineSet
Validated: 1
EndChar

StartChar: cent
Encoding: 162 162 89
Width: 1078
GlyphClass: 2
Flags: MW
LayerCount: 2
Fore
SplineSet
575 -15 m 1,0,1
 388 7 388 7 271 124 c 0,2,3
 110 285 110 285 110 550 c 0,4,5
 110 808 110 808 273 972 c 0,6,7
 390 1089 390 1089 575 1114 c 1,8,-1
 575 1210 l 2,9,10
 575 1250 575 1250 615 1250 c 2,11,-1
 665 1250 l 2,12,13
 705 1250 705 1250 705 1210 c 2,14,-1
 705 1119 l 1,15,16
 881 1111 881 1111 998 1004 c 0,17,18
 1087 922 1087 922 1087 815 c 0,19,20
 1087 735 1087 735 1034 680.5 c 128,-1,21
 981 626 981 626 905 626 c 128,-1,22
 829 626 829 626 776 674 c 128,-1,23
 723 722 723 722 723 799 c 0,24,25
 723 882 723 882 781 929 c 0,26,27
 817 958 817 958 875 965 c 1,28,29
 801 1015 801 1015 705 1015 c 1,30,-1
 705 86 l 1,31,32
 828 86 828 86 903 140 c 0,33,34
 989 201 989 201 1052 284 c 1,35,-1
 1065 284 l 1,36,-1
 1065 128 l 1,37,38
 929 -8 929 -8 705 -19 c 1,39,-1
 705 -110 l 2,40,41
 705 -150 705 -150 665 -150 c 2,42,-1
 615 -150 l 2,43,44
 575 -150 575 -150 575 -110 c 2,45,-1
 575 -15 l 1,0,1
575 129 m 1,46,-1
 575 975 l 1,47,48
 531 943 531 943 500 886 c 0,49,50
 434 764 434 764 434 550 c 0,51,52
 434 346 434 346 489 235 c 0,53,54
 523 166 523 166 575 129 c 1,46,-1
EndSplineSet
Validated: 1
EndChar

StartChar: sterling
Encoding: 163 163 90
Width: 1338
GlyphClass: 2
Flags: MW
LayerCount: 2
Fore
SplineSet
287 -20 m 0,0,1
 130 -20 130 -20 67 82 c 0,2,3
 31 140 31 140 30 230 c 1,4,-1
 45 230 l 1,5,6
 82 124 82 124 152 124 c 0,7,8
 240 124 240 124 240 230 c 2,9,-1
 240 586 l 1,10,-1
 99 586 l 2,11,12
 59 586 59 586 59 621 c 2,13,-1
 59 671 l 2,14,15
 59 706 59 706 99 706 c 2,16,-1
 240 706 l 1,17,-1
 240 956 l 2,18,19
 240 1239 240 1239 395 1380 c 0,20,21
 560 1530 560 1530 790 1530 c 0,22,23
 1031 1530 1031 1530 1157 1393 c 0,24,25
 1218 1327 1218 1327 1218 1242 c 0,26,27
 1218 1155 1218 1155 1164 1100 c 0,28,29
 1112 1047 1112 1047 1036 1047 c 128,-1,30
 960 1047 960 1047 907 1101.5 c 128,-1,31
 854 1156 854 1156 854 1233 c 0,32,33
 854 1320 854 1320 911 1362 c 0,34,35
 943 1386 943 1386 976 1396 c 1,36,37
 922 1425 922 1425 841 1425 c 0,38,39
 759 1425 759 1425 693 1368 c 0,40,41
 560 1253 560 1253 560 955 c 2,42,-1
 560 706 l 1,43,-1
 799 706 l 2,44,45
 839 706 839 706 839 671 c 2,46,-1
 839 621 l 2,47,48
 839 586 839 586 799 586 c 2,49,-1
 560 586 l 1,50,-1
 560 279 l 2,51,52
 560 211 560 211 541 146 c 1,53,54
 568 147 568 147 592 147 c 0,55,56
 707 147 707 147 797 116 c 128,-1,57
 887 85 887 85 965 85 c 0,58,59
 1005 85 1005 85 1040 97 c 1,60,61
 943 140 943 140 943 225 c 0,62,63
 943 301 943 301 996 355 c 0,64,65
 1050 409 1050 409 1126 409 c 128,-1,66
 1202 409 1202 409 1255 355 c 128,-1,67
 1308 301 1308 301 1308 224 c 0,68,69
 1308 114 1308 114 1229 51 c 0,70,71
 1141 -19 1141 -19 999 -19 c 0,72,73
 860 -19 860 -19 745 8 c 0,74,75
 634 35 634 35 587 35 c 0,76,77
 532 35 532 35 484 15 c 0,78,79
 401 -20 401 -20 287 -20 c 0,0,1
EndSplineSet
Validated: 1
EndChar

StartChar: currency
Encoding: 164 164 91
Width: 1646
GlyphClass: 2
Flags: MW
LayerCount: 2
Fore
SplineSet
827 311 m 128,-1,1
 943 311 943 311 1010 428 c 0,2,3
 1078 545 1078 545 1078 760 c 128,-1,4
 1078 975 1078 975 1010 1092 c 0,5,6
 943 1209 943 1209 827 1209 c 0,7,8
 712 1209 712 1209 644 1092 c 128,-1,9
 576 975 576 975 576 760 c 128,-1,10
 576 545 576 545 644 428 c 0,11,0
 711 311 711 311 827 311 c 128,-1,1
827 1330 m 0,12,13
 1018 1330 1018 1330 1159 1241 c 1,14,-1
 1278 1361 l 1,15,-1
 1446 1193 l 1,16,-1
 1327 1074 l 1,17,18
 1408 943 1408 943 1408 760 c 0,19,20
 1408 558 1408 558 1309 420 c 1,21,-1
 1446 283 l 1,22,-1
 1279 114 l 1,23,-1
 1131 262 l 1,24,25
 999 190 999 190 827 190 c 0,26,27
 652 190 652 190 518 265 c 1,28,-1
 368 114 l 1,29,-1
 200 282 l 1,30,-1
 341 424 l 1,31,32
 246 561 246 561 246 760 c 0,33,34
 246 940 246 940 324 1069 c 1,35,-1
 200 1193 l 1,36,-1
 368 1361 l 1,37,-1
 491 1238 l 1,38,39
 633 1330 633 1330 827 1330 c 0,12,13
EndSplineSet
Validated: 1
EndChar

StartChar: brokenbar
Encoding: 166 166 92
Width: 775
GlyphClass: 2
Flags: MW
LayerCount: 2
Fore
SplineSet
320 660 m 2,0,-1
 455 660 l 2,1,2
 525 660 525 660 525 590 c 2,3,-1
 525 -80 l 2,4,5
 525 -150 525 -150 455 -150 c 2,6,-1
 320 -150 l 2,7,8
 250 -150 250 -150 250 -80 c 2,9,-1
 250 590 l 2,10,11
 250 660 250 660 320 660 c 2,0,-1
320 1660 m 2,12,-1
 455 1660 l 2,13,14
 525 1660 525 1660 525 1590 c 2,15,-1
 525 920 l 2,16,17
 525 850 525 850 455 850 c 2,18,-1
 320 850 l 2,19,20
 250 850 250 850 250 920 c 2,21,-1
 250 1590 l 2,22,23
 250 1660 250 1660 320 1660 c 2,12,-1
EndSplineSet
Validated: 1
EndChar

StartChar: section
Encoding: 167 167 93
Width: 1262
GlyphClass: 2
Flags: MW
LayerCount: 2
Fore
SplineSet
618 -20 m 0,0,1
 406 -20 406 -20 310 89 c 0,2,3
 260 146 260 146 260 216 c 0,4,5
 260 280 260 280 306 328 c 0,6,7
 349 373 349 373 414.5 373 c 128,-1,8
 480 373 480 373 525 327.5 c 128,-1,9
 570 282 570 282 570 216 c 0,10,11
 569 151 569 151 525 105 c 1,12,13
 563 83 563 83 612 83 c 0,14,15
 675 83 675 83 711 114 c 0,16,17
 751 149 751 149 751 210 c 0,18,19
 751 302 751 302 581 378 c 2,20,-1
 426 447 l 2,21,22
 150 570 150 570 150 759 c 0,23,24
 150 911 150 911 280 1020 c 1,25,-1
 481 919 l 1,26,27
 406 874 406 874 406 785 c 0,28,29
 406 698 406 698 597 611 c 2,30,-1
 767 534 l 2,31,32
 989 433 989 433 989 262 c 0,33,34
 989 128 989 128 890 52 c 0,35,36
 795 -20 795 -20 618 -20 c 0,0,1
644 1530 m 0,37,38
 856 1530 856 1530 952 1421 c 0,39,40
 1002 1364 1002 1364 1002 1294 c 0,41,42
 1002 1230 1002 1230 956 1182 c 0,43,44
 913 1137 913 1137 847.5 1137 c 128,-1,45
 782 1137 782 1137 737 1182.5 c 128,-1,46
 692 1228 692 1228 692 1293.5 c 128,-1,47
 692 1359 692 1359 736 1405 c 1,48,49
 698 1427 698 1427 650 1427 c 0,50,51
 587 1427 587 1427 551 1396 c 0,52,53
 511 1361 511 1361 511 1300 c 0,54,55
 511 1208 511 1208 681 1132 c 2,56,-1
 836 1063 l 2,57,58
 1112 940 1112 940 1112 751 c 0,59,60
 1112 599 1112 599 982 490 c 1,61,-1
 781 591 l 1,62,63
 856 636 856 636 856 725 c 0,64,65
 856 812 856 812 665 899 c 2,66,-1
 495 976 l 2,67,68
 273 1077 273 1077 273 1248 c 0,69,70
 273 1382 273 1382 372 1458 c 0,71,72
 467 1530 467 1530 644 1530 c 0,37,38
EndSplineSet
Validated: 1
EndChar

StartChar: dieresis
Encoding: 168 168 94
Width: 758
GlyphClass: 2
Flags: MW
LayerCount: 2
Fore
SplineSet
553 1484 m 128,-1,1
 618 1484 618 1484 663 1438 c 128,-1,2
 708 1392 708 1392 708 1326.5 c 128,-1,3
 708 1261 708 1261 663 1215.5 c 128,-1,4
 618 1170 618 1170 553 1170 c 128,-1,5
 488 1170 488 1170 443 1215.5 c 128,-1,6
 398 1261 398 1261 398 1326.5 c 128,-1,7
 398 1392 398 1392 443 1438 c 128,-1,0
 488 1484 488 1484 553 1484 c 128,-1,1
205 1484 m 128,-1,9
 270 1484 270 1484 315 1438 c 128,-1,10
 360 1392 360 1392 360 1326.5 c 128,-1,11
 360 1261 360 1261 315 1215.5 c 128,-1,12
 270 1170 270 1170 205 1170 c 128,-1,13
 140 1170 140 1170 95 1215.5 c 128,-1,14
 50 1261 50 1261 50 1326.5 c 128,-1,15
 50 1392 50 1392 95 1438 c 128,-1,8
 140 1484 140 1484 205 1484 c 128,-1,9
EndSplineSet
Validated: 1
EndChar

StartChar: guillemotleft
Encoding: 171 171 95
Width: 1338
GlyphClass: 2
Flags: MW
LayerCount: 2
Fore
SplineSet
1010 1336 m 0,0,1
 1022 1336 1022 1336 1035 1328 c 2,2,-1
 1082 1298 l 2,3,4
 1102 1285 1102 1285 1102 1265 c 0,5,6
 1102 1254 1102 1254 1094 1242 c 2,7,-1
 804 806 l 1,8,-1
 1123 360 l 2,9,10
 1138 339 1138 339 1138 322 c 0,11,12
 1138 295 1138 295 1111 274 c 2,13,-1
 1033 212 l 2,14,15
 1013 196 1013 196 993 196 c 0,16,17
 967 196 967 196 948 223 c 2,18,-1
 589 730 l 1,19,-1
 979 1317 l 2,20,21
 992 1336 992 1336 1010 1336 c 0,0,1
571 1336 m 0,22,23
 583 1336 583 1336 596 1328 c 2,24,-1
 643 1298 l 2,25,26
 663 1285 663 1285 663 1265 c 0,27,28
 663 1254 663 1254 655 1242 c 2,29,-1
 365 806 l 1,30,-1
 684 360 l 2,31,32
 699 339 699 339 699 322 c 0,33,34
 699 295 699 295 672 274 c 2,35,-1
 594 212 l 2,36,37
 574 196 574 196 554 196 c 0,38,39
 528 196 528 196 509 223 c 2,40,-1
 150 730 l 1,41,-1
 540 1317 l 2,42,43
 553 1336 553 1336 571 1336 c 0,22,23
EndSplineSet
Validated: 1
EndChar

StartChar: logicalnot
Encoding: 172 172 96
Width: 1373
GlyphClass: 2
Flags: MW
LayerCount: 2
Fore
SplineSet
215 860 m 2,0,-1
 1164 860 l 2,1,2
 1223 860 1223 860 1223 804 c 0,3,4
 1223 791 1223 791 1215 777 c 2,5,-1
 994 390 l 2,6,7
 971 349 971 349 929 349 c 2,8,-1
 829 349 l 2,9,10
 803 349 803 349 803 370 c 0,11,12
 803 381 803 381 810 393 c 2,13,-1
 957 649 l 1,14,-1
 215 649 l 2,15,16
 150 649 150 649 150 714 c 2,17,-1
 150 795 l 2,18,19
 150 860 150 860 215 860 c 2,0,-1
EndSplineSet
Validated: 1
EndChar

StartChar: uni00AD
Encoding: 173 173 97
Width: 1373
GlyphClass: 2
Flags: MW
LayerCount: 2
Fore
SplineSet
215 860 m 2,0,-1
 1158 860 l 2,1,2
 1223 860 1223 860 1223 795 c 2,3,-1
 1223 714 l 2,4,5
 1223 649 1223 649 1158 649 c 2,6,-1
 215 649 l 2,7,8
 150 649 150 649 150 714 c 2,9,-1
 150 795 l 2,10,11
 150 860 150 860 215 860 c 2,0,-1
EndSplineSet
Validated: 1
EndChar

StartChar: registered
Encoding: 174 174 98
Width: 1401
GlyphClass: 2
Flags: MW
LayerCount: 2
Fore
SplineSet
700 1375 m 0,0,1
 871 1375 871 1375 960 1293 c 0,2,3
 1043 1216 1043 1216 1043 1106 c 128,-1,4
 1043 996 1043 996 986 928 c 0,5,6
 928 859 928 859 840 835 c 1,7,8
 934 823 934 823 949 773 c 2,9,-1
 960 737 l 2,10,11
 975 688 975 688 1026 688 c 0,12,13
 1063 688 1063 688 1088 747 c 1,14,-1
 1102 747 l 1,15,16
 1095 675 1095 675 1063 643 c 0,17,18
 1011 591 1011 591 930 591 c 0,19,20
 780 591 780 591 753 704 c 2,21,-1
 745 738 l 2,22,23
 728 809 728 809 661 831 c 0,24,25
 652 834 652 834 644 836 c 1,26,-1
 644 744 l 2,27,28
 644 689 644 689 614 648 c 0,29,30
 571 591 571 591 484 591 c 0,31,32
 339 591 339 591 339 724 c 1,33,-1
 353 724 l 1,34,35
 372 672 372 672 403 672 c 0,36,37
 444 672 444 672 444 719 c 2,38,-1
 444 1167 l 2,39,40
 444 1212 444 1212 504 1212 c 2,41,-1
 584 1212 l 2,42,43
 644 1212 644 1212 644 1167 c 2,44,-1
 644 934 l 1,45,46
 657 884 657 884 706 884 c 0,47,48
 739 884 739 884 763 906 c 0,49,50
 829 967 829 967 829 1081 c 0,51,52
 829 1304 829 1304 648 1304 c 0,53,54
 436 1304 436 1304 327 1116 c 1,55,-1
 307 1124 l 1,56,57
 413 1375 413 1375 700 1375 c 0,0,1
701 1530 m 0,58,59
 943 1530 943 1530 1099 1357 c 0,60,61
 1251 1188 1251 1188 1251 953 c 0,62,63
 1251 701 1251 701 1090 549 c 0,64,65
 919 386 919 386 699 386 c 0,66,67
 476 386 476 386 311 549 c 0,68,69
 150 708 150 708 150 953 c 0,70,71
 150 1197 150 1197 308 1362 c 0,72,73
 469 1530 469 1530 701 1530 c 0,58,59
699 1453 m 0,74,75
 509 1453 509 1453 367 1312 c 0,76,77
 224 1170 224 1170 224 953 c 0,78,79
 224 760 224 760 364 605 c 0,80,81
 495 459 495 459 701 459 c 0,82,83
 892 459 892 459 1037 605 c 0,84,85
 1176 745 1176 745 1176 953 c 0,86,87
 1176 1174 1176 1174 1039 1309 c 0,88,89
 893 1453 893 1453 699 1453 c 0,74,75
EndSplineSet
Validated: 1
EndChar

StartChar: macron
Encoding: 175 175 99
Width: 770
GlyphClass: 2
Flags: MW
LayerCount: 2
Fore
SplineSet
90 1391 m 2,0,-1
 680 1391 l 2,1,2
 720 1391 720 1391 720 1351 c 2,3,4
 720 1270 l 2,5,6
 720 1230 720 1230 680 1230 c 2,7,-1
 90 1230 l 2,8,9
 50 1230 50 1230 50 1270 c 2,10,-1
 50 1351 l 2,11,12
 50 1391 50 1391 90 1391 c 2,0,-1
EndSplineSet
Validated: 1
EndChar

StartChar: degree
Encoding: 176 176 100
Width: 680
GlyphClass: 2
Flags: MW
LayerCount: 2
Fore
SplineSet
340 1594 m 0,0,1
 448 1594 448 1594 532 1524 c 0,2,3
 630 1442 630 1442 630 1306 c 0,4,5
 630 1166 630 1166 532 1088 c 0,6,7
 447 1019 447 1019 341 1019 c 0,8,9
 231 1019 231 1019 148 1088 c 0,10,11
 50 1170 50 1170 50 1307 c 0,12,13
 50 1442 50 1442 148 1524 c 0,14,15
 231 1594 231 1594 340 1594 c 0,0,1
340 1542 m 0,16,17
 284 1542 284 1542 256 1488 c 0,18,19
 226 1431 226 1431 226 1307 c 128,-1,20
 226 1183 226 1183 255 1124 c 0,21,22
 281 1071 281 1071 340.5 1071 c 128,-1,23
 400 1071 400 1071 425 1124 c 0,24,25
 452 1181 452 1181 452 1306 c 0,26,27
 452 1434 452 1434 425.5 1488 c 128,-1,28
 399 1542 399 1542 340 1542 c 0,16,17
EndSplineSet
Validated: 1
EndChar

StartChar: plusminus
Encoding: 177 177 101
Width: 1473
GlyphClass: 2
Flags: MW
LayerCount: 2
Fore
SplineSet
265 341 m 2,0,-1
 1208 341 l 2,1,2
 1273 341 1273 341 1273 276 c 2,3,-1
 1273 195 l 2,4,5
 1273 130 1273 130 1208 130 c 2,6,-1
 265 130 l 2,7,8
 200 130 200 130 200 195 c 2,9,-1
 200 276 l 2,10,11
 200 341 200 341 265 341 c 2,0,-1
696 1443 m 2,12,-1
 777 1443 l 2,13,14
 842 1443 842 1443 842 1378 c 2,15,-1
 842 1012 l 1,16,-1
 1208 1012 l 2,17,18
 1273 1012 1273 1012 1273 947 c 2,19,-1
 1273 866 l 2,20,21
 1273 801 1273 801 1208 801 c 2,22,-1
 842 801 l 1,23,-1
 842 435 l 2,24,25
 842 370 842 370 777 370 c 2,26,-1
 696 370 l 2,27,28
 631 370 631 370 631 435 c 2,29,-1
 631 801 l 1,30,-1
 265 801 l 2,31,32
 200 801 200 801 200 866 c 2,33,-1
 200 947 l 2,34,35
 200 1012 200 1012 265 1012 c 2,36,-1
 631 1012 l 1,37,-1
 631 1378 l 2,38,39
 631 1443 631 1443 696 1443 c 2,12,-1
EndSplineSet
Validated: 1
EndChar

StartChar: acute
Encoding: 180 180 102
Width: 460
GlyphClass: 2
Flags: MW
LayerCount: 2
Fore
SplineSet
290 1508 m 0,0,1
 346 1508 346 1508 378 1472 c 128,-1,2
 410 1436 410 1436 410 1388 c 0,3,4
 410 1316 410 1316 354 1290 c 2,5,6
 70 1160 l 1,7,-1
 50 1184 l 1,8,-1
 184 1450 l 2,9,10
 214 1508 214 1508 290 1508 c 0,0,1
EndSplineSet
Validated: 1
EndChar

StartChar: uni00B5
Encoding: 181 181 103
Width: 1390
GlyphClass: 2
Flags: MW
LayerCount: 2
Fore
SplineSet
1116 -20 m 0,0,1
 971 -20 971 -20 911 83 c 0,2,3
 894 112 894 112 884 148 c 1,4,5
 797 -20 797 -20 590 -20 c 0,6,7
 559 -20 559 -20 520 -14 c 1,8,9
 520 -309 520 -309 730 -415 c 1,10,-1
 730 -430 l 1,11,12
 220 -430 220 -430 220 0 c 2,13,-1
 220 870 l 2,14,15
 220 976 220 976 132 976 c 0,16,17
 62 976 62 976 25 870 c 1,18,-1
 10 870 l 1,19,20
 10 957 10 957 53 1015 c 0,21,22
 131 1120 131 1120 273 1120 c 128,-1,23
 415 1120 415 1120 479 1017 c 0,24,25
 520 951 520 951 520 821 c 2,26,-1
 520 397 l 2,27,28
 520 267 520 267 559 203 c 0,29,30
 608 122 608 122 699 122 c 0,31,32
 788 122 788 122 840 216 c 0,33,34
 870 271 870 271 870 397 c 2,35,-1
 870 1020 l 2,36,37
 870 1100 870 1100 950 1100 c 2,38,-1
 1090 1100 l 2,39,40
 1170 1100 1170 1100 1170 1020 c 2,41,-1
 1170 230 l 2,42,43
 1170 124 1170 124 1258 124 c 0,44,45
 1328 124 1328 124 1365 230 c 1,46,-1
 1380 230 l 1,47,48
 1380 143 1380 143 1337 85 c 0,49,50
 1259 -20 1259 -20 1116 -20 c 0,0,1
EndSplineSet
Validated: 1
EndChar

StartChar: paragraph
Encoding: 182 182 104
Width: 1222
GlyphClass: 2
Flags: MW
LayerCount: 2
Fore
SplineSet
732 0 m 2,0,1
 652 0 652 0 652 80 c 2,2,-1
 652 730 l 1,3,4
 420 730 420 730 303 818 c 0,5,6
 150 933 150 933 150 1136 c 0,7,8
 150 1342 150 1342 316 1449 c 0,9,10
 441 1530 441 1530 631 1530 c 0,11,12
 972 1530 972 1530 972 1244 c 2,13,-1
 972 80 l 2,14,15
 972 0 972 0 892 0 c 2,16,-1
 732 0 l 2,0,1
863 85 m 1,17,-1
 863 1244 l 1,18,-1
 763 1244 l 1,19,-1
 763 85 l 1,20,-1
 863 85 l 1,17,-1
EndSplineSet
Validated: 1
EndChar

StartChar: periodcentered
Encoding: 183 183 105
Width: 464
GlyphClass: 2
Flags: MW
LayerCount: 2
Fore
SplineSet
232 939 m 132,-1,1
 308 939 308 939 361 885 c 132,-1,2
 414 831 414 831 414 754 c 132,-1,3
 414 677 414 677 361 623 c 132,-1,4
 308 569 308 569 232 569 c 132,-1,5
 156 569 156 569 103 623 c 132,-1,6
 50 677 50 677 50 754 c 132,-1,7
 50 831 50 831 103 885 c 132,-1,0
 156 939 156 939 232 939 c 132,-1,1
EndSplineSet
Validated: 1
EndChar

StartChar: cedilla
Encoding: 184 184 106
Width: 435
GlyphClass: 2
Flags: MW
LayerCount: 2
Fore
SplineSet
59 0 m 1,0,-1
 209 0 l 1,1,-1
 209 -39 l 1,2,3
 266 -49 266 -49 311 -82 c 0,4,5
 385 -136 385 -136 385 -221 c 0,6,7
 385 -298 385 -298 326 -356 c 0,8,9
 251 -430 251 -430 85 -430 c 24,10,11
 50 -430 50 -430 50 -395 c 2,12,-1
 50 -327 l 2,13,14
 50 -292 50 -292 88 -292 c 0,15,16
 133 -292 133 -292 160 -265 c 0,17,18
 187 -237 187 -237 187 -197 c 0,19,20
 187 -156 187 -156 150 -129 c 0,21,22
 119 -107 119 -107 59 -107 c 1,23,-1
 59 0 l 1,0,-1
EndSplineSet
Validated: 1
EndChar

StartChar: guillemotright
Encoding: 187 187 107
Width: 1338
GlyphClass: 2
Flags: MW
LayerCount: 2
Fore
SplineSet
345 1336 m 0,0,1
 371 1336 371 1336 390 1309 c 2,2,-1
 749 802 l 1,3,-1
 359 215 l 2,4,5
 346 196 346 196 328 196 c 0,6,7
 316 196 316 196 303 204 c 2,8,-1
 256 234 l 2,9,10
 236 247 236 247 236 267 c 0,11,12
 236 278 236 278 244 290 c 2,13,-1
 534 726 l 1,14,-1
 215 1172 l 2,15,16
 200 1193 200 1193 200 1210 c 0,17,18
 200 1237 200 1237 227 1258 c 2,19,-1
 305 1320 l 2,20,21
 325 1336 325 1336 345 1336 c 0,0,1
784 1336 m 0,22,23
 810 1336 810 1336 829 1309 c 2,24,-1
 1188 802 l 1,25,-1
 798 215 l 2,26,27
 785 196 785 196 767 196 c 0,28,29
 755 196 755 196 742 204 c 2,30,-1
 695 234 l 2,31,32
 675 247 675 247 675 267 c 0,33,34
 675 278 675 278 683 290 c 2,35,-1
 973 726 l 1,36,-1
 654 1172 l 2,37,38
 639 1193 639 1193 639 1210 c 0,39,40
 639 1237 639 1237 666 1258 c 2,41,-1
 744 1320 l 2,42,43
 764 1336 764 1336 784 1336 c 0,22,23
EndSplineSet
Validated: 1
EndChar

StartChar: questiondown
Encoding: 191 191 108
Width: 1376
VWidth: 1638
GlyphClass: 2
Flags: MW
LayerCount: 2
Fore
SplineSet
672 -428 m 128,-1,1
 410 -428 410 -428 280 -300 c 128,-1,2
 150 -172 150 -172 150 -13 c 0,3,4
 150 228 150 228 352 372 c 2,5,-1
 621 564 l 2,6,7
 685 610 685 610 685 668 c 0,8,9
 685 702 685 702 724 702 c 2,10,-1
 788 702 l 2,11,12
 827 702 827 702 827 668 c 0,13,14
 827 523 827 523 744 433 c 2,15,-1
 648 329 l 2,16,17
 495 163 495 163 495 -18 c 0,18,19
 495 -130 495 -130 553 -211 c 0,20,21
 618 -302 618 -302 745 -302 c 0,22,23
 851 -302 851 -302 932 -252 c 0,24,25
 1006 -206 1006 -206 1063 -131 c 1,26,27
 1042 -134 1042 -134 1026 -134 c 0,28,29
 963 -134 963 -134 920 -96 c 0,30,31
 862 -45 862 -45 862 33.5 c 128,-1,32
 862 112 862 112 915 165.5 c 128,-1,33
 968 219 968 219 1044 219 c 128,-1,34
 1120 219 1120 219 1173 165 c 0,35,36
 1225 112 1225 112 1226 34 c 0,37,38
 1226 -140 1226 -140 1089 -275 c 0,39,0
 934 -428 934 -428 672 -428 c 128,-1,1
754 1120 m 128,-1,41
 830 1120 830 1120 883 1066 c 128,-1,42
 936 1012 936 1012 936 935 c 128,-1,43
 936 858 936 858 883 804 c 128,-1,44
 830 750 830 750 754 750 c 128,-1,45
 678 750 678 750 625 804 c 128,-1,46
 572 858 572 858 572 935 c 128,-1,47
 572 1012 572 1012 625 1066 c 128,-1,40
 678 1120 678 1120 754 1120 c 128,-1,41
EndSplineSet
Validated: 1
EndChar

StartChar: endash
Encoding: 8211 8211 109
Width: 1373
GlyphClass: 2
Flags: MW
LayerCount: 2
Fore
SplineSet
215 860 m 2,0,-1
 1158 860 l 2,1,2
 1223 860 1223 860 1223 795 c 2,3,-1
 1223 714 l 2,4,5
 1223 649 1223 649 1158 649 c 2,6,-1
 215 649 l 2,7,8
 150 649 150 649 150 714 c 2,9,-1
 150 795 l 2,10,11
 150 860 150 860 215 860 c 2,0,-1
EndSplineSet
Validated: 1
EndChar

StartChar: emdash
Encoding: 8212 8212 110
Width: 1653
GlyphClass: 2
Flags: MW
LayerCount: 2
Fore
SplineSet
215 860 m 2,0,-1
 1438 860 l 2,1,2
 1503 860 1503 860 1503 795 c 2,3,-1
 1503 714 l 2,4,5
 1503 649 1503 649 1438 649 c 2,6,-1
 215 649 l 2,7,8
 150 649 150 649 150 714 c 2,9,-1
 150 795 l 2,10,11
 150 860 150 860 215 860 c 2,0,-1
EndSplineSet
Validated: 1
EndChar

StartChar: afii00208
Encoding: 8213 8213 111
Width: 1653
GlyphClass: 2
Flags: MW
LayerCount: 2
Fore
SplineSet
215 860 m 2,0,-1
 1438 860 l 2,1,2
 1503 860 1503 860 1503 795 c 2,3,-1
 1503 714 l 2,4,5
 1503 649 1503 649 1438 649 c 2,6,-1
 215 649 l 2,7,8
 150 649 150 649 150 714 c 2,9,-1
 150 795 l 2,10,11
 150 860 150 860 215 860 c 2,0,-1
EndSplineSet
Validated: 1
EndChar

StartChar: quoteleft
Encoding: 8216 8216 112
Width: 484
GlyphClass: 2
Flags: MW
LayerCount: 2
Fore
SplineSet
478 1580 m 1,0,-1
 478 1549 l 1,1,2
 391 1513 391 1513 331 1461 c 0,3,4
 284 1419 284 1419 261 1363 c 1,5,6
 340 1363 340 1363 392 1311 c 0,7,8
 443 1260 443 1260 443 1180 c 0,9,10
 443 1101 443 1101 391 1047 c 128,-1,11
 339 993 339 993 252 993 c 0,12,13
 170 993 170 993 115 1050 c 0,14,15
 50 1117 50 1117 50 1226 c 0,16,17
 50 1348 50 1348 134 1447 c 0,18,19
 248 1580 248 1580 478 1580 c 1,0,-1
EndSplineSet
Validated: 1
EndChar

StartChar: quoteright
Encoding: 8217 8217 113
Width: 484
GlyphClass: 2
Flags: MW
LayerCount: 2
Fore
SplineSet
232 1580 m 0,0,1
 314 1580 314 1580 369 1523 c 0,2,3
 434 1456 434 1456 434 1347 c 0,4,5
 434 1225 434 1225 350 1126 c 0,6,7
 236 993 236 993 6 993 c 1,8,-1
 6 1024 l 1,9,10
 93 1060 93 1060 153 1112 c 0,11,12
 200 1154 200 1154 223 1210 c 1,13,14
 144 1210 144 1210 92 1262 c 0,15,16
 41 1313 41 1313 41 1393 c 0,17,18
 41 1472 41 1472 93 1526 c 128,-1,19
 145 1580 145 1580 232 1580 c 0,0,1
EndSplineSet
Validated: 1
EndChar

StartChar: quotesinglbase
Encoding: 8218 8218 114
Width: 484
GlyphClass: 2
Flags: MW
LayerCount: 2
Fore
SplineSet
232 351 m 0,0,1
 314 351 314 351 369 294 c 0,2,3
 434 227 434 227 434 118 c 0,4,5
 434 -4 434 -4 350 -103 c 0,6,7
 236 -236 236 -236 6 -236 c 1,8,-1
 6 -205 l 1,9,10
 93 -169 93 -169 153 -117 c 0,11,12
 200 -75 200 -75 223 -19 c 1,13,14
 144 -19 144 -19 92 33 c 0,15,16
 41 84 41 84 41 164 c 0,17,18
 41 243 41 243 93 297 c 128,-1,19
 145 351 145 351 232 351 c 0,0,1
EndSplineSet
Validated: 1
EndChar

StartChar: quotereversed
Encoding: 8219 8219 115
Width: 484
GlyphClass: 2
Flags: MW
LayerCount: 2
Fore
SplineSet
252 1580 m 0,0,1
 339 1580 339 1580 391 1526 c 128,-1,2
 443 1472 443 1472 443 1393 c 0,3,4
 443 1313 443 1313 392 1262 c 0,5,6
 340 1210 340 1210 261 1210 c 1,7,8
 284 1154 284 1154 331 1112 c 0,9,10
 391 1060 391 1060 478 1024 c 1,11,-1
 478 993 l 1,12,13
 248 993 248 993 134 1126 c 0,14,15
 50 1225 50 1225 50 1347 c 0,16,17
 50 1456 50 1456 115 1523 c 0,18,19
 170 1580 170 1580 252 1580 c 0,0,1
EndSplineSet
Validated: 1
EndChar

StartChar: quotedblleft
Encoding: 8220 8220 116
Width: 949
GlyphClass: 2
Flags: MW
LayerCount: 2
Fore
SplineSet
478 1580 m 1,0,-1
 478 1549 l 1,1,2
 391 1513 391 1513 331 1461 c 0,3,4
 284 1419 284 1419 261 1363 c 1,5,6
 340 1363 340 1363 392 1311 c 0,7,8
 443 1260 443 1260 443 1180 c 0,9,10
 443 1101 443 1101 391 1047 c 128,-1,11
 339 993 339 993 252 993 c 0,12,13
 170 993 170 993 115 1050 c 0,14,15
 50 1117 50 1117 50 1226 c 0,16,17
 50 1348 50 1348 134 1447 c 0,18,19
 248 1580 248 1580 478 1580 c 1,0,-1
943 1580 m 5,20,-1
 943 1549 l 1,21,22
 856 1513 856 1513 796 1461 c 0,23,24
 749 1419 749 1419 726 1363 c 1,25,26
 805 1363 805 1363 857 1311 c 0,27,28
 908 1260 908 1260 908 1180 c 0,29,30
 908 1101 908 1101 856 1047 c 128,-1,31
 804 993 804 993 717 993 c 0,32,33
 635 993 635 993 580 1050 c 0,34,35
 515 1117 515 1117 515 1226 c 0,36,37
 515 1348 515 1348 599 1447 c 0,38,39
 713 1580 713 1580 943 1580 c 5,20,-1
EndSplineSet
Validated: 1
EndChar

StartChar: quotedblright
Encoding: 8221 8221 117
Width: 949
GlyphClass: 2
Flags: MW
LayerCount: 2
Fore
SplineSet
697 1580 m 0,0,1
 779 1580 779 1580 834 1523 c 0,2,3
 899 1456 899 1456 899 1347 c 0,4,5
 899 1225 899 1225 815 1126 c 0,6,7
 701 993 701 993 471 993 c 1,8,-1
 471 1024 l 1,9,10
 558 1060 558 1060 618 1112 c 0,11,12
 665 1154 665 1154 688 1210 c 1,13,14
 609 1210 609 1210 557 1262 c 0,15,16
 506 1313 506 1313 506 1393 c 0,17,18
 506 1472 506 1472 558 1526 c 128,-1,19
 610 1580 610 1580 697 1580 c 0,0,1
232 1580 m 0,20,21
 314 1580 314 1580 369 1523 c 0,22,23
 434 1456 434 1456 434 1347 c 0,24,25
 434 1225 434 1225 350 1126 c 0,26,27
 236 993 236 993 6 993 c 1,28,-1
 6 1024 l 1,29,30
 93 1060 93 1060 153 1112 c 0,31,32
 200 1154 200 1154 223 1210 c 1,33,34
 144 1210 144 1210 92 1262 c 0,35,36
 41 1313 41 1313 41 1393 c 0,37,38
 41 1472 41 1472 93 1526 c 128,-1,39
 145 1580 145 1580 232 1580 c 0,20,21
EndSplineSet
Validated: 1
EndChar

StartChar: quotedblbase
Encoding: 8222 8222 118
Width: 949
GlyphClass: 2
Flags: MW
LayerCount: 2
Fore
SplineSet
697 351 m 0,0,1
 779 351 779 351 834 294 c 0,2,3
 899 227 899 227 899 118 c 0,4,5
 899 -4 899 -4 815 -103 c 0,6,7
 701 -236 701 -236 471 -236 c 1,8,-1
 471 -205 l 1,9,10
 558 -169 558 -169 618 -117 c 0,11,12
 665 -75 665 -75 688 -19 c 1,13,14
 609 -19 609 -19 557 33 c 0,15,16
 506 84 506 84 506 164 c 0,17,18
 506 243 506 243 558 297 c 128,-1,19
 610 351 610 351 697 351 c 0,0,1
232 351 m 0,20,21
 314 351 314 351 369 294 c 0,22,23
 434 227 434 227 434 118 c 0,24,25
 434 -4 434 -4 350 -103 c 0,26,27
 236 -236 236 -236 6 -236 c 1,28,-1
 6 -205 l 1,29,30
 93 -169 93 -169 153 -117 c 0,31,32
 200 -75 200 -75 223 -19 c 1,33,34
 144 -19 144 -19 92 33 c 0,35,36
 41 84 41 84 41 164 c 0,37,38
 41 243 41 243 93 297 c 128,-1,39
 145 351 145 351 232 351 c 0,20,21
EndSplineSet
Validated: 1
EndChar

StartChar: dagger
Encoding: 8224 8224 119
Width: 1390
VWidth: 0
GlyphClass: 2
Flags: MW
LayerCount: 2
Fore
SplineSet
690 -40 m 1,0,1
 637 105 637 105 491 159 c 1,2,-1
 491 169 l 1,3,4
 595 221 595 221 595 368 c 2,5,-1
 595 885 l 1,6,-1
 558 885 l 2,7,8
 411 885 411 885 359 781 c 1,9,-1
 349 781 l 1,10,11
 295 927 295 927 150 980 c 1,12,-1
 150 990 l 1,13,14
 295 1043 295 1043 349 1189 c 1,15,-1
 359 1189 l 1,16,17
 410 1085 410 1085 558 1085 c 2,18,-1
 595 1085 l 1,19,-1
 595 1142 l 2,20,21
 595 1289 595 1289 491 1341 c 1,22,-1
 491 1351 l 1,23,24
 637 1405 637 1405 690 1550 c 1,25,-1
 700 1550 l 1,26,27
 753 1405 753 1405 899 1351 c 1,28,-1
 899 1341 l 1,29,30
 795 1287 795 1287 795 1142 c 2,31,-1
 795 1085 l 1,32,-1
 832 1085 l 2,33,34
 980 1085 980 1085 1031 1189 c 1,35,-1
 1041 1189 l 1,36,37
 1095 1043 1095 1043 1240 990 c 1,38,-1
 1240 980 l 1,39,40
 1095 927 1095 927 1041 781 c 1,41,-1
 1031 781 l 1,42,43
 979 885 979 885 832 885 c 2,44,-1
 795 885 l 1,45,-1
 795 368 l 2,46,47
 795 221 795 221 899 169 c 1,48,-1
 899 159 l 1,49,50
 753 105 753 105 700 -40 c 1,51,-1
 690 -40 l 1,0,1
EndSplineSet
Validated: 1
EndChar

StartChar: daggerdbl
Encoding: 8225 8225 120
Width: 1390
VWidth: 0
GlyphClass: 2
Flags: MW
LayerCount: 2
Fore
SplineSet
690 -40 m 1,0,1
 637 105 637 105 491 159 c 1,2,-1
 491 169 l 1,3,4
 595 223 595 223 595 368 c 2,5,-1
 595 425 l 1,6,-1
 558 425 l 2,7,8
 410 425 410 425 359 321 c 1,9,-1
 349 321 l 1,10,11
 295 467 295 467 150 520 c 1,12,-1
 150 530 l 1,13,14
 295 583 295 583 349 729 c 1,15,-1
 359 729 l 1,16,17
 411 625 411 625 558 625 c 2,18,-1
 595 625 l 1,19,-1
 595 885 l 1,20,-1
 558 885 l 2,21,22
 411 885 411 885 359 781 c 1,23,-1
 349 781 l 1,24,25
 295 927 295 927 150 980 c 1,26,-1
 150 990 l 1,27,28
 295 1043 295 1043 349 1189 c 1,29,-1
 359 1189 l 1,30,31
 410 1085 410 1085 558 1085 c 2,32,-1
 595 1085 l 1,33,-1
 595 1142 l 2,34,35
 595 1289 595 1289 491 1341 c 1,36,-1
 491 1351 l 1,37,38
 637 1405 637 1405 690 1550 c 1,39,-1
 700 1550 l 1,40,41
 753 1405 753 1405 899 1351 c 1,42,-1
 899 1341 l 1,43,44
 795 1287 795 1287 795 1142 c 2,45,-1
 795 1085 l 1,46,-1
 832 1085 l 2,47,48
 980 1085 980 1085 1031 1189 c 1,49,-1
 1041 1189 l 1,50,51
 1095 1043 1095 1043 1240 990 c 1,52,-1
 1240 980 l 1,53,54
 1095 927 1095 927 1041 781 c 1,55,-1
 1031 781 l 1,56,57
 979 885 979 885 832 885 c 2,58,-1
 795 885 l 1,59,-1
 795 625 l 1,60,-1
 832 625 l 2,61,62
 979 625 979 625 1031 729 c 1,63,-1
 1041 729 l 1,64,65
 1095 583 1095 583 1240 530 c 1,66,-1
 1240 520 l 1,67,68
 1095 467 1095 467 1041 321 c 1,69,-1
 1031 321 l 1,70,71
 980 425 980 425 832 425 c 2,72,-1
 795 425 l 1,73,-1
 795 368 l 2,74,75
 795 221 795 221 899 169 c 1,76,-1
 899 159 l 1,77,78
 753 105 753 105 700 -40 c 1,79,-1
 690 -40 l 1,0,1
EndSplineSet
Validated: 1
EndChar

StartChar: bullet
Encoding: 8226 8226 121
Width: 1028
GlyphClass: 2
Flags: MW
LayerCount: 2
Fore
SplineSet
514 1124 m 132,-1,1
 666 1124 666 1124 772 1016 c 132,-1,2
 878 908 878 908 878 754 c 132,-1,3
 878 600 878 600 772 492 c 132,-1,4
 666 384 666 384 514 384 c 132,-1,5
 362 384 362 384 256 492 c 132,-1,6
 150 600 150 600 150 754 c 132,-1,7
 150 908 150 908 256 1016 c 132,-1,0
 362 1124 362 1124 514 1124 c 132,-1,1
EndSplineSet
Validated: 1
EndChar

StartChar: ellipsis
Encoding: 8230 8230 122
Width: 1294
GlyphClass: 2
Flags: MW
LayerCount: 2
Fore
SplineSet
1062 -20 m 132,-1,1
 986 -20 986 -20 933 34 c 132,-1,2
 880 88 880 88 880 165 c 132,-1,3
 880 242 880 242 933 296 c 132,-1,4
 986 350 986 350 1062 350 c 132,-1,5
 1138 350 1138 350 1191 296 c 132,-1,6
 1244 242 1244 242 1244 165 c 132,-1,7
 1244 88 1244 88 1191 34 c 132,-1,0
 1138 -20 1138 -20 1062 -20 c 132,-1,1
648 -20 m 132,-1,9
 572 -20 572 -20 519 34 c 132,-1,10
 466 88 466 88 466 165 c 132,-1,11
 466 242 466 242 519 296 c 132,-1,12
 572 350 572 350 648 350 c 132,-1,13
 724 350 724 350 777 296 c 132,-1,14
 830 242 830 242 830 165 c 132,-1,15
 830 88 830 88 777 34 c 132,-1,8
 724 -20 724 -20 648 -20 c 132,-1,9
232 -20 m 132,-1,17
 156 -20 156 -20 103 34 c 132,-1,18
 50 88 50 88 50 165 c 132,-1,19
 50 242 50 242 103 296 c 132,-1,20
 156 350 156 350 232 350 c 132,-1,21
 308 350 308 350 361 296 c 132,-1,22
 414 242 414 242 414 165 c 132,-1,23
 414 88 414 88 361 34 c 132,-1,16
 308 -20 308 -20 232 -20 c 132,-1,17
EndSplineSet
Validated: 1
EndChar

StartChar: perthousand
Encoding: 8240 8240 123
Width: 2593
GlyphClass: 2
Flags: MW
LayerCount: 2
Fore
SplineSet
2081 623 m 128,-1,1
 2015 623 2015 623 1978 556 c 0,2,3
 1941 486 1941 486 1941 339 c 0,4,5
 1941 191 1941 191 1978 122 c 0,6,7
 2014 55 2014 55 2082.5 55 c 128,-1,8
 2151 55 2151 55 2184 122 c 0,9,10
 2221 193 2221 193 2221 339 c 0,11,12
 2221 489 2221 489 2184 556 c 128,-1,0
 2147 623 2147 623 2081 623 c 128,-1,1
2081 -20 m 128,-1,14
 1945 -20 1945 -20 1841 66 c 0,15,16
 1719 166 1719 166 1719 340 c 0,17,18
 1719 512 1719 512 1841 612 c 0,19,20
 1944 698 1944 698 2080.5 698 c 128,-1,21
 2217 698 2217 698 2321 612 c 0,22,23
 2443 511 2443 511 2443 339 c 128,-1,24
 2443 167 2443 167 2321 66 c 0,25,13
 2217 -20 2217 -20 2081 -20 c 128,-1,14
1270 1550 m 0,26,27
 1289 1550 1289 1550 1312 1537 c 2,28,-1
 1410 1481 l 2,29,30
 1449 1459 1449 1459 1449 1423 c 0,31,32
 1449 1401 1449 1401 1437 1381 c 2,33,-1
 613 0 l 2,34,35
 589 -40 589 -40 558 -40 c 0,36,37
 536 -40 536 -40 513 -27 c 2,38,-1
 415 29 l 2,39,40
 376 51 376 51 376 87 c 0,41,42
 376 107 376 107 389 129 c 2,43,-1
 1213 1510 l 2,44,45
 1237 1550 1237 1550 1270 1550 c 0,26,27
1316 623 m 128,-1,47
 1250 623 1250 623 1213 556 c 0,48,49
 1176 486 1176 486 1176 339 c 0,50,51
 1176 191 1176 191 1213 122 c 0,52,53
 1249 55 1249 55 1317.5 55 c 128,-1,54
 1386 55 1386 55 1419 122 c 0,55,56
 1456 193 1456 193 1456 339 c 0,57,58
 1456 489 1456 489 1419 556 c 128,-1,46
 1382 623 1382 623 1316 623 c 128,-1,47
1316 -20 m 128,-1,60
 1180 -20 1180 -20 1076 66 c 0,61,62
 954 166 954 166 954 340 c 0,63,64
 954 512 954 512 1076 612 c 0,65,66
 1179 698 1179 698 1315.5 698 c 128,-1,67
 1452 698 1452 698 1556 612 c 0,68,69
 1678 511 1678 511 1678 339 c 128,-1,70
 1678 167 1678 167 1556 66 c 0,71,59
 1452 -20 1452 -20 1316 -20 c 128,-1,60
512 1530 m 128,-1,73
 648 1530 648 1530 752 1444 c 0,74,75
 874 1344 874 1344 874 1170 c 0,76,77
 874 998 874 998 752 898 c 0,78,79
 649 812 649 812 512.5 812 c 128,-1,80
 376 812 376 812 272 898 c 0,81,82
 150 999 150 999 150 1171 c 128,-1,83
 150 1343 150 1343 272 1444 c 0,84,72
 376 1530 376 1530 512 1530 c 128,-1,73
512 1455 m 128,-1,86
 446 1455 446 1455 409 1388 c 0,87,88
 372 1318 372 1318 372 1171 c 0,89,90
 372 1023 372 1023 409 954 c 0,91,92
 445 887 445 887 513.5 887 c 128,-1,93
 582 887 582 887 615 954 c 0,94,95
 652 1025 652 1025 652 1171 c 0,96,97
 652 1321 652 1321 615 1388 c 128,-1,85
 578 1455 578 1455 512 1455 c 128,-1,86
EndSplineSet
Validated: 1
EndChar

StartChar: minute
Encoding: 8242 8242 124
Width: 416
GlyphClass: 2
Flags: MW
LayerCount: 2
Fore
SplineSet
179 1570 m 0,0,1
 186 1570 186 1570 197 1566 c 2,2,-1
 337 1516 l 2,3,4
 366 1506 366 1506 366 1483 c 0,5,6
 366 1472 366 1472 360 1459 c 2,7,-1
 230 1178 l 2,8,9
 217 1150 217 1150 194 1150 c 0,10,11
 187 1150 187 1150 176 1154 c 2,12,-1
 79 1190 l 2,13,14
 50 1201 50 1201 50 1224 c 0,15,16
 50 1230 50 1230 53 1240 c 2,17,-1
 147 1540 l 2,18,19
 156 1570 156 1570 179 1570 c 0,0,1
EndSplineSet
Validated: 1
EndChar

StartChar: second
Encoding: 8243 8243 125
Width: 736
GlyphClass: 2
Flags: MW
LayerCount: 2
Fore
SplineSet
499 1570 m 0,0,1
 506 1570 506 1570 517 1566 c 2,2,-1
 657 1516 l 2,3,4
 686 1506 686 1506 686 1483 c 0,5,6
 686 1472 686 1472 680 1459 c 2,7,-1
 550 1178 l 2,8,9
 537 1150 537 1150 514 1150 c 0,10,11
 507 1150 507 1150 496 1154 c 2,12,-1
 399 1190 l 2,13,14
 370 1201 370 1201 370 1224 c 0,15,16
 370 1230 370 1230 373 1240 c 2,17,-1
 467 1540 l 2,18,19
 476 1570 476 1570 499 1570 c 0,0,1
179 1570 m 0,20,21
 186 1570 186 1570 197 1566 c 2,22,-1
 337 1516 l 2,23,24
 366 1506 366 1506 366 1483 c 0,25,26
 366 1472 366 1472 360 1459 c 2,27,-1
 230 1178 l 2,28,29
 217 1150 217 1150 194 1150 c 0,30,31
 187 1150 187 1150 176 1154 c 2,32,-1
 79 1190 l 2,33,34
 50 1201 50 1201 50 1224 c 0,35,36
 50 1230 50 1230 53 1240 c 2,37,-1
 147 1540 l 2,38,39
 156 1570 156 1570 179 1570 c 0,20,21
EndSplineSet
Validated: 1
EndChar

StartChar: guilsinglleft
Encoding: 8249 8249 126
Width: 899
GlyphClass: 2
Flags: MW
LayerCount: 2
Fore
SplineSet
571 1336 m 0,0,1
 583 1336 583 1336 596 1328 c 2,2,-1
 643 1298 l 2,3,4
 663 1285 663 1285 663 1265 c 0,5,6
 663 1254 663 1254 655 1242 c 2,7,-1
 365 806 l 1,8,-1
 684 360 l 2,9,10
 699 339 699 339 699 322 c 0,11,12
 699 295 699 295 672 274 c 2,13,-1
 594 212 l 2,14,15
 574 196 574 196 554 196 c 0,16,17
 528 196 528 196 509 223 c 2,18,-1
 150 730 l 1,19,-1
 540 1317 l 2,20,21
 553 1336 553 1336 571 1336 c 0,0,1
EndSplineSet
Validated: 1
EndChar

StartChar: guilsinglright
Encoding: 8250 8250 127
Width: 899
GlyphClass: 2
Flags: MW
LayerCount: 2
Fore
SplineSet
345 1336 m 0,0,1
 371 1336 371 1336 390 1309 c 2,2,-1
 749 802 l 1,3,-1
 359 215 l 2,4,5
 346 196 346 196 328 196 c 0,6,7
 316 196 316 196 303 204 c 2,8,-1
 256 234 l 2,9,10
 236 247 236 247 236 267 c 0,11,12
 236 278 236 278 244 290 c 2,13,-1
 534 726 l 1,14,-1
 215 1172 l 2,15,16
 200 1193 200 1193 200 1210 c 0,17,18
 200 1237 200 1237 227 1258 c 2,19,-1
 305 1320 l 2,20,21
 325 1336 325 1336 345 1336 c 0,0,1
EndSplineSet
Validated: 1
EndChar

StartChar: fraction
Encoding: 8260 8260 128
Width: 1093
GlyphClass: 2
Flags: MW
LayerCount: 2
Fore
SplineSet
904 1550 m 4,0,1
 923 1550 923 1550 946 1537 c 6,2,-1
 1044 1481 l 6,3,4
 1083 1459 1083 1459 1083 1423 c 4,5,6
 1083 1401 1083 1401 1071 1381 c 6,7,-1
 247 0 l 6,8,9
 223 -40 223 -40 192 -40 c 4,10,11
 170 -40 170 -40 147 -27 c 6,12,-1
 49 29 l 6,13,14
 10 51 10 51 10 87 c 4,15,16
 10 107 10 107 23 129 c 6,17,-1
 847 1510 l 6,18,19
 871 1550 871 1550 904 1550 c 4,0,1
EndSplineSet
Validated: 1
EndChar

StartChar: Euro
Encoding: 8364 8364 129
Width: 1649
GlyphClass: 2
Flags: MW
LayerCount: 2
Fore
SplineSet
971.5 -20 m 128,-1,1
 666 -20 666 -20 499 142 c 0,2,3
 329 307 329 307 291 586 c 1,4,-1
 190 586 l 2,5,6
 150 586 150 586 150 621 c 2,7,-1
 150 671 l 2,8,9
 150 706 150 706 190 706 c 2,10,-1
 281 706 l 1,11,12
 280 730 280 730 280 755 c 0,13,14
 280 778 280 778 281 801 c 1,15,-1
 190 801 l 2,16,17
 150 801 150 801 150 836 c 2,18,-1
 150 886 l 2,19,20
 150 921 150 921 190 921 c 2,21,-1
 290 921 l 1,22,23
 327 1202 327 1202 499 1368 c 0,24,25
 666 1529 666 1529 956 1530 c 0,26,27
 1191 1530 1191 1530 1336 1388 c 0,28,29
 1449 1278 1449 1278 1449 1154 c 0,30,31
 1449 1067 1449 1067 1395 1012 c 0,32,33
 1343 959 1343 959 1267 959 c 128,-1,34
 1191 959 1191 959 1138 1013.5 c 128,-1,35
 1085 1068 1085 1068 1085 1145 c 128,-1,36
 1085 1222 1085 1222 1142 1274 c 0,37,38
 1177 1306 1177 1306 1232 1311 c 1,39,40
 1209 1339 1209 1339 1181 1362 c 0,41,42
 1104 1425 1104 1425 991 1425 c 0,43,44
 840 1425 840 1425 754 1305 c 0,45,46
 658 1172 658 1172 636 921 c 1,47,-1
 1028 921 l 2,48,49
 1068 921 1068 921 1068 886 c 2,50,-1
 1068 836 l 2,51,52
 1068 801 1068 801 1028 801 c 2,53,-1
 629 801 l 1,54,55
 629 778 629 778 629 755 c 0,56,57
 629 730 629 730 629 706 c 1,58,-1
 1028 706 l 2,59,60
 1068 706 1068 706 1068 671 c 2,61,-1
 1068 621 l 2,62,63
 1068 586 1068 586 1028 586 c 2,64,-1
 635 586 l 1,65,66
 657 319 657 319 753 207 c 0,67,68
 857 85 857 85 1013.5 85 c 128,-1,69
 1170 85 1170 85 1271 181 c 0,70,71
 1360 265 1360 265 1431 390 c 1,72,-1
 1446 390 l 1,73,-1
 1446 189 l 1,74,-1
 1445 188 l 1,75,0
 1277 -20 1277 -20 971.5 -20 c 128,-1,1
EndSplineSet
Validated: 1
EndChar

StartChar: afii61248
Encoding: 8453 8453 130
Width: 1805
GlyphClass: 2
Flags: MW
LayerCount: 2
Fore
SplineSet
1314 697 m 128,-1,1
 1273 697 1273 697 1240 647 c 0,2,3
 1183 559 1183 559 1183 371 c 0,4,5
 1183 187 1183 187 1240 96 c 0,6,7
 1273 43 1273 43 1314 43 c 128,-1,8
 1355 43 1355 43 1388 94 c 0,9,10
 1445 182 1445 182 1445 369 c 0,11,12
 1445 554 1445 554 1388 645 c 0,13,0
 1355 697 1355 697 1314 697 c 128,-1,1
1316 764 m 128,-1,15
 1463 764 1463 764 1544 680 c 0,16,17
 1655 565 1655 565 1655 371 c 0,18,19
 1655 173 1655 173 1544 64 c 0,20,21
 1458 -20 1458 -20 1312 -20 c 0,22,23
 1165 -20 1165 -20 1084 64 c 0,24,25
 972 179 972 179 972 372 c 0,26,27
 972 569 972 569 1084 680 c 0,28,14
 1169 764 1169 764 1316 764 c 128,-1,15
508 1530 m 0,29,30
 640 1530 640 1530 708 1464 c 0,31,32
 774 1399 774 1399 774 1330 c 0,33,34
 774 1284 774 1284 743.5 1253 c 128,-1,35
 713 1222 713 1222 663.5 1222 c 128,-1,36
 614 1222 614 1222 580 1258 c 0,37,38
 553 1286 553 1286 553 1331 c 0,39,40
 553 1400 553 1400 624 1417 c 1,41,42
 590 1465 590 1465 528 1465 c 128,-1,43
 466 1465 466 1465 427 1410 c 0,44,45
 365 1322 365 1322 365 1129 c 0,46,47
 365 962 365 962 420 874 c 0,48,49
 461 808 461 808 540 808 c 0,50,51
 608 808 608 808 667 852.5 c 128,-1,52
 726 897 726 897 761 959 c 1,53,-1
 774 959 l 1,54,-1
 774 854 l 1,55,56
 682 745 682 745 516 745 c 0,57,58
 346 745 346 745 260 829 c 0,59,60
 150 937 150 937 150 1137 c 0,61,62
 150 1341 150 1341 260 1445 c 0,63,64
 349 1530 349 1530 508 1530 c 0,29,30
1266 1550 m 0,65,66
 1285 1550 1285 1550 1308 1537 c 2,67,-1
 1406 1481 l 2,68,69
 1445 1459 1445 1459 1445 1423 c 0,70,71
 1445 1401 1445 1401 1433 1381 c 2,72,-1
 609 0 l 2,73,74
 585 -40 585 -40 554 -40 c 0,75,76
 532 -40 532 -40 509 -27 c 2,77,-1
 411 29 l 2,78,79
 372 51 372 51 372 87 c 0,80,81
 372 107 372 107 385 129 c 2,82,-1
 1209 1510 l 2,83,84
 1233 1550 1233 1550 1266 1550 c 0,65,66
EndSplineSet
Validated: 1
EndChar

StartChar: afii61289
Encoding: 8467 8467 131
Width: 1327
GlyphClass: 2
Flags: MW
LayerCount: 2
Fore
SplineSet
730 -20 m 0,0,1
 622 -20 622 -20 541 44 c 1,2,-1
 514 0 l 1,3,-1
 150 0 l 1,4,5
 312 162 312 162 415 325 c 1,6,7
 404 420 404 420 404 524 c 0,8,9
 404 686 404 686 451 865 c 0,10,11
 549 1240 549 1240 701 1423 c 0,12,13
 789 1530 789 1530 900 1530 c 0,14,15
 984 1530 984 1530 1034 1480 c 0,16,17
 1098 1416 1098 1416 1098 1281 c 0,18,19
 1098 1186 1098 1186 1069 1041 c 0,20,21
 999 688 999 688 716 272 c 1,22,23
 718 216 718 216 739 216 c 128,-1,24
 760 216 760 216 785 260 c 0,25,26
 800 286 800 286 811 319 c 1,27,-1
 1127 319 l 1,28,29
 1034 144 1034 144 937 62 c 128,-1,30
 840 -20 840 -20 730 -20 c 0,0,1
EndSplineSet
Validated: 1
EndChar

StartChar: trademark
Encoding: 8482 8482 132
Width: 2059
VWidth: 1396
GlyphClass: 2
Flags: MW
LayerCount: 2
Fore
SplineSet
1020 1540 m 128,-1,1
 1117 1540 1117 1540 1168 1433 c 2,2,-1
 1339 1073 l 1,3,-1
 1513 1459 l 2,4,5
 1551 1543 1551 1543 1651 1543 c 0,6,7
 1773 1543 1773 1543 1773 1407 c 1,8,-1
 1757 1407 l 1,9,10
 1734 1476 1734 1476 1693 1476 c 0,11,12
 1666 1476 1666 1476 1666 1446 c 9,13,-1
 1757 881 l 2,14,15
 1763 846 1763 846 1796 846 c 128,-1,17
 1829 846 1829 846 1844 893 c 1,18,-1
 1859 893 l 1,19,20
 1841 756 1841 756 1714 756 c 0,21,22
 1639 756 1639 756 1598 800 c 0,23,24
 1562 839 1562 839 1552 899 c 2,25,-1
 1505 1191 l 1,26,-1
 1295 747 l 1,27,-1
 1276 747 l 1,28,-1
 1055 1206 l 1,29,-1
 1006 880 l 2,30,31
 998 824 998 824 982 803 c 0,32,33
 948 758 948 758 887 758 c 0,34,35
 822 758 822 758 799 805 c 0,36,37
 785 836 785 836 785 893 c 1,38,-1
 798 893 l 1,39,40
 812 826 812 826 853 826 c 0,41,42
 892 826 892 826 900 881 c 2,43,-1
 975 1381 l 1,44,-1
 958 1418 l 2,45,46
 944 1450 944 1450 919 1450 c 0,47,48
 883 1450 883 1450 865 1392 c 1,49,-1
 854 1392 l 1,50,51
 854 1454 854 1454 883 1490 c 0,52,53
 923 1540 923 1540 1020 1540 c 128,-1,1
276 889 m 1,54,-1
 292 889 l 1,55,56
 302 837 302 837 342 837 c 0,57,58
 381 837 381 837 381 884 c 2,59,-1
 381 1331 l 2,60,61
 381 1377 381 1377 441 1377 c 2,62,-1
 521 1377 l 2,63,64
 581 1377 581 1377 581 1331 c 2,65,-1
 581 909 l 2,66,67
 581 754 581 754 424 754 c 0,68,69
 276 754 276 754 276 889 c 1,54,-1
466 1530 m 2,70,-1
 615 1530 l 2,71,72
 754 1530 754 1530 804 1464 c 0,73,74
 829 1431 829 1431 829 1388 c 128,-1,75
 829 1345 829 1345 801 1314 c 0,76,77
 769 1277 769 1277 716 1277 c 0,78,79
 667 1277 667 1277 634 1315 c 0,80,81
 607 1345 607 1345 607 1384 c 0,82,83
 607 1438 607 1438 652 1458 c 1,84,85
 633 1459 633 1459 616 1459 c 2,86,-1
 462 1459 l 2,87,88
 207 1459 207 1459 115 1272 c 1,89,-1
 100 1280 l 1,90,91
 168 1530 168 1530 466 1530 c 2,70,-1
EndSplineSet
Validated: 1
EndChar

StartChar: uni2126
Encoding: 8486 8486 133
Width: 1542
GlyphClass: 2
Flags: MW
LayerCount: 2
Fore
SplineSet
566 0 m 2,0,1
 373 0 l 2,2,3
 123 0 123 0 100 338 c 1,4,-1
 115 338 l 1,5,6
 196 175 196 175 373 175 c 2,7,-1
 510 175 l 1,8,-1
 510 206 l 1,9,10
 346 287 346 287 242 417 c 0,11,12
 130 557 130 557 130 755 c 0,13,14
 130 1143 130 1143 349 1368 c 0,15,16
 506 1530 506 1530 771 1530 c 0,17,18
 1035 1530 1035 1530 1193 1368 c 0,19,20
 1412 1143 1412 1143 1412 755 c 0,21,22
 1412 571 1412 571 1300 417 c 0,23,24
 1202 282 1202 282 1032 206 c 1,25,-1
 1032 175 l 1,26,-1
 1169 175 l 2,27,28
 1346 175 1346 175 1427 338 c 1,29,-1
 1442 338 l 1,30,31
 1419 0 1419 0 1169 0 c 2,32,-1
 976 0 l 2,33,34
 906 0 906 0 906 70 c 2,35,-1
 906 232 l 1,36,37
 996 303 996 303 1040 440 c 0,38,39
 1073 542 1073 542 1073 755 c 0,40,41
 1073 1124 1073 1124 960 1308 c 0,42,43
 888 1425 888 1425 771 1425 c 128,-1,44
 654 1425 654 1425 582 1308 c 0,45,46
 469 1124 469 1124 469 755 c 0,47,48
 469 542 469 542 502 440 c 0,49,50
 546 303 546 303 636 232 c 1,51,-1
 636 70 l 2,52,53
 636 0 636 0 566 0 c 2,0,1
EndSplineSet
Validated: 1
EndChar

StartChar: estimated
Encoding: 8494 8494 134
Width: 1321
GlyphClass: 2
Flags: MW
LayerCount: 2
Fore
SplineSet
659 -20 m 0,0,1
 408 -20 408 -20 254 145 c 128,-1,2
 100 310 100 310 100 553 c 0,3,4
 100 802 100 802 256 960 c 0,5,6
 414 1120 414 1120 656 1120 c 0,7,8
 899 1120 899 1120 1047 974 c 0,9,10
 1221 802 1221 802 1221 491 c 1,11,-1
 433 491 l 1,12,-1
 433 239 l 1,13,14
 528 163 528 163 659 163 c 0,15,16
 867 163 867 163 985 351 c 1,17,-1
 1149 255 l 1,18,19
 1025 85 1025 85 906 32.5 c 128,-1,20
 787 -20 787 -20 659 -20 c 0,0,1
885 680 m 1,21,-1
 885 862 l 1,22,23
 787 935 787 935 657 935 c 0,24,25
 525 935 525 935 433 861 c 1,26,-1
 433 680 l 1,27,-1
 885 680 l 1,21,-1
EndSplineSet
Validated: 1
EndChar

StartChar: partialdiff
Encoding: 8706 8706 135
Width: 1405
GlyphClass: 2
Flags: MW
LayerCount: 2
Fore
SplineSet
572 -20 m 0,0,1
 302 -20 302 -20 203 171 c 0,2,3
 150 273 150 273 150 416 c 0,4,5
 150 673 150 673 304 878 c 128,-1,6
 458 1083 458 1083 730 1083 c 0,7,8
 849 1083 849 1083 946 1024 c 1,9,10
 943 1115 943 1115 905 1173 c 0,11,12
 848 1257 848 1257 726 1257 c 0,13,14
 571 1257 571 1257 420 1132 c 1,15,-1
 420 1443 l 1,16,17
 566 1530 566 1530 763 1530 c 0,18,19
 1080 1530 1080 1530 1196 1271 c 0,20,21
 1255 1139 1255 1139 1255 950 c 0,22,23
 1255 563 1255 563 1072 272 c 0,24,25
 891 -20 891 -20 572 -20 c 0,0,1
919 699 m 1,26,27
 898 756 898 756 855 788 c 0,28,29
 808 823 808 823 740 823 c 0,30,31
 631 823 631 823 550 706 c 0,32,33
 455 567 455 567 455 431 c 0,34,35
 455 344 455 344 493 295 c 0,36,37
 525 253 525 253 585 253 c 0,38,39
 692 253 692 253 787 376 c 128,-1,40
 882 499 882 499 919 699 c 1,26,27
EndSplineSet
Validated: 1
EndChar

StartChar: uni2206
Encoding: 8710 8710 136
Width: 1552
GlyphClass: 2
Flags: MW
LayerCount: 2
Fore
SplineSet
214 120 m 1,0,-1
 1125 120 l 1,1,-1
 677 1039 l 1,2,-1
 214 120 l 1,0,-1
1547 0 m 1,3,-1
 5 0 l 1,4,-1
 784 1540 l 1,5,-1
 794 1540 l 1,6,-1
 1547 0 l 1,3,-1
EndSplineSet
Validated: 1
EndChar

StartChar: product
Encoding: 8719 8719 137
Width: 1647
GlyphClass: 2
Flags: MW
LayerCount: 2
Fore
SplineSet
287 -430 m 0,0,1
 130 -430 130 -430 67 -328 c 0,2,3
 31 -270 31 -270 30 -180 c 1,4,-1
 45 -180 l 1,5,6
 82 -286 82 -286 152 -286 c 0,7,8
 240 -286 240 -286 240 -180 c 2,9,-1
 240 1440 l 2,10,11
 240 1510 240 1510 310 1510 c 2,12,-1
 1337 1510 l 2,13,14
 1407 1510 1407 1510 1407 1440 c 2,15,-1
 1407 -180 l 2,16,17
 1407 -286 1407 -286 1495 -286 c 0,18,19
 1565 -286 1565 -286 1602 -180 c 1,20,-1
 1617 -180 l 1,21,22
 1616 -270 1616 -270 1580 -328 c 0,23,24
 1517 -430 1517 -430 1360 -430 c 0,25,26
 1213 -430 1213 -430 1138 -327 c 0,27,28
 1087 -257 1087 -257 1087 -131 c 2,29,-1
 1087 1380 l 1,30,-1
 560 1380 l 1,31,-1
 560 -131 l 2,32,33
 560 -257 560 -257 509 -327 c 0,34,35
 434 -430 434 -430 287 -430 c 0,0,1
EndSplineSet
Validated: 1
EndChar

StartChar: summation
Encoding: 8721 8721 138
Width: 1587
GlyphClass: 2
Flags: MW
LayerCount: 2
Fore
SplineSet
80 -410 m 1,0,-1
 80 -400 l 1,1,-1
 612 527 l 1,2,-1
 80 1500 l 1,3,-1
 80 1510 l 1,4,-1
 999 1510 l 2,5,6
 1241 1510 1241 1510 1337 1386 c 0,7,8
 1386 1323 1386 1323 1386 1245 c 0,9,10
 1386 1154 1386 1154 1332 1099 c 0,11,12
 1280 1046 1280 1046 1204 1046 c 128,-1,13
 1128 1046 1128 1046 1075 1100.5 c 128,-1,14
 1022 1155 1022 1155 1022 1231 c 0,15,16
 1022 1305 1022 1305 1066 1346 c 0,17,18
 1098 1376 1098 1376 1139 1383 c 1,19,20
 1122 1389 1122 1389 1002 1389 c 2,21,-1
 482 1389 l 9,22,-1
 962 531 l 1,23,-1
 478 -289 l 17,24,-1
 1123 -289 l 2,25,26
 1247 -289 1247 -289 1260 -283 c 1,27,28
 1219 -276 1219 -276 1187 -246 c 0,29,30
 1143 -205 1143 -205 1143 -131 c 0,31,32
 1143 -55 1143 -55 1196 -0.5 c 128,-1,33
 1249 54 1249 54 1325 54 c 128,-1,34
 1401 54 1401 54 1453 1 c 0,35,36
 1507 -54 1507 -54 1507 -145 c 0,37,38
 1507 -223 1507 -223 1458 -286 c 0,39,40
 1362 -410 1362 -410 1120 -410 c 2,41,-1
 80 -410 l 1,0,-1
EndSplineSet
Validated: 1
EndChar

StartChar: minus
Encoding: 8722 8722 139
Width: 1373
GlyphClass: 2
Flags: MW
LayerCount: 2
Fore
SplineSet
215 860 m 2,0,-1
 1158 860 l 2,1,2
 1223 860 1223 860 1223 795 c 2,3,-1
 1223 714 l 2,4,5
 1223 649 1223 649 1158 649 c 2,6,-1
 215 649 l 2,7,8
 150 649 150 649 150 714 c 2,9,-1
 150 795 l 2,10,11
 150 860 150 860 215 860 c 2,0,-1
EndSplineSet
Validated: 1
EndChar

StartChar: uni2215
Encoding: 8725 8725 140
Width: 1093
GlyphClass: 2
Flags: MW
LayerCount: 2
Fore
SplineSet
904 1550 m 4,0,1
 923 1550 923 1550 946 1537 c 6,2,-1
 1044 1481 l 6,3,4
 1083 1459 1083 1459 1083 1423 c 4,5,6
 1083 1401 1083 1401 1071 1381 c 6,7,-1
 247 0 l 6,8,9
 223 -40 223 -40 192 -40 c 4,10,11
 170 -40 170 -40 147 -27 c 6,12,-1
 49 29 l 6,13,14
 10 51 10 51 10 87 c 4,15,16
 10 107 10 107 23 129 c 6,17,-1
 847 1510 l 6,18,19
 871 1550 871 1550 904 1550 c 4,0,1
EndSplineSet
Validated: 1
EndChar

StartChar: uni2219
Encoding: 8729 8729 141
Width: 464
GlyphClass: 2
Flags: MW
LayerCount: 2
Fore
SplineSet
232 939 m 128,-1,1
 308 939 308 939 361 885 c 128,-1,2
 414 831 414 831 414 754 c 128,-1,3
 414 677 414 677 361 623 c 128,-1,4
 308 569 308 569 232 569 c 128,-1,5
 156 569 156 569 103 623 c 128,-1,6
 50 677 50 677 50 754 c 128,-1,7
 50 831 50 831 103 885 c 128,-1,0
 156 939 156 939 232 939 c 128,-1,1
EndSplineSet
Validated: 1
EndChar

StartChar: radical
Encoding: 8730 8730 142
Width: 1505
GlyphClass: 2
Flags: MW
LayerCount: 2
Fore
SplineSet
542 -40 m 1,0,-1
 238 725 l 1,1,-1
 90 725 l 2,2,3
 50 725 50 725 50 765 c 2,4,-1
 50 806 l 2,5,6
 50 846 50 846 90 846 c 2,7,-1
 449 846 l 2,8,9
 509 846 509 846 529 796 c 2,10,-1
 652 494 l 1,11,-1
 1173 1631 l 2,12,13
 1191 1671 1191 1671 1233 1671 c 2,14,-1
 1415 1671 l 2,15,16
 1455 1671 1455 1671 1455 1631 c 2,17,-1
 1455 1590 l 2,18,19
 1455 1550 1455 1550 1415 1550 c 2,20,-1
 1280 1550 l 1,21,-1
 552 -40 l 1,22,-1
 542 -40 l 1,0,-1
EndSplineSet
Validated: 1
EndChar

StartChar: infinity
Encoding: 8734 8734 143
Width: 1778
GlyphClass: 2
Flags: MW
LayerCount: 2
Fore
SplineSet
565 1163 m 0,0,1
 714 1163 714 1163 783 1102 c 0,2,3
 800 1087 800 1087 800 1072 c 0,4,5
 800 1061 800 1061 791 1049 c 2,6,-1
 760 1006 l 2,7,8
 748 989 748 989 733 989 c 0,9,10
 717 989 717 989 705 999 c 0,11,12
 653 1042 653 1042 575 1042 c 0,13,14
 457 1042 457 1042 393 968 c 0,15,16
 320 884 320 884 320 758 c 0,17,18
 320 675 320 675 364 618 c 0,19,20
 413 555 413 555 506 555 c 0,21,22
 628 555 628 555 700 711 c 2,23,-1
 772 866 l 2,24,25
 910 1163 910 1163 1187 1163 c 0,26,27
 1397 1163 1397 1163 1512.5 1045 c 128,-1,28
 1628 927 1628 927 1628 751 c 0,29,30
 1628 584 1628 584 1524 472 c 0,31,32
 1407 346 1407 346 1213 346 c 0,33,34
 1064 346 1064 346 995 407 c 0,35,36
 978 422 978 422 978 437 c 0,37,38
 978 448 978 448 987 460 c 2,39,-1
 1018 503 l 2,40,41
 1030 520 1030 520 1045 520 c 0,42,43
 1061 520 1061 520 1073 510 c 0,44,45
 1125 467 1125 467 1203 467 c 0,46,47
 1321 467 1321 467 1385 541 c 0,48,49
 1458 625 1458 625 1458 751 c 0,50,51
 1458 834 1458 834 1414 891 c 0,52,53
 1365 954 1365 954 1272 954 c 0,54,55
 1150 954 1150 954 1078 798 c 2,56,-1
 1006 643 l 2,57,58
 868 346 868 346 591 346 c 0,59,60
 381 346 381 346 265.5 464 c 128,-1,61
 150 582 150 582 150 758 c 0,62,63
 150 925 150 925 254 1037 c 0,64,65
 371 1163 371 1163 565 1163 c 0,0,1
EndSplineSet
Validated: 1
EndChar

StartChar: approxequal
Encoding: 8776 8776 144
Width: 1315
GlyphClass: 2
Flags: MW
LayerCount: 2
Fore
SplineSet
444 719 m 0,0,1
 511 719 511 719 584 687 c 2,2,-1
 828 580 l 2,3,4
 880 557 880 557 933 557 c 0,5,6
 1088 557 1088 557 1146 693 c 1,7,-1
 1165 693 l 1,8,9
 1121 376 1121 376 874 376 c 0,10,11
 807 376 807 376 734 408 c 2,12,-1
 490 515 l 2,13,14
 438 538 438 538 384 538 c 0,15,16
 230 538 230 538 172 402 c 1,17,-1
 152 402 l 1,18,19
 185 719 185 719 444 719 c 0,0,1
442 1117 m 0,20,21
 509 1117 509 1117 582 1085 c 2,22,-1
 826 978 l 2,23,24
 878 955 878 955 931 955 c 0,25,26
 1086 955 1086 955 1144 1091 c 1,27,-1
 1163 1091 l 1,28,29
 1119 774 1119 774 872 774 c 0,30,31
 805 774 805 774 732 806 c 2,32,-1
 488 913 l 2,33,34
 436 936 436 936 382 936 c 0,35,36
 228 936 228 936 170 800 c 1,37,-1
 150 800 l 1,38,39
 183 1117 183 1117 442 1117 c 0,20,21
EndSplineSet
Validated: 1
EndChar

StartChar: notequal
Encoding: 8800 8800 145
Width: 1373
GlyphClass: 2
Flags: MW
LayerCount: 2
Fore
SplineSet
215 1065 m 2,0,-1
 789 1065 l 1,1,-1
 932 1312 l 2,2,3
 945 1334 945 1334 963 1334 c 0,4,5
 975 1334 975 1334 987 1327 c 2,6,-1
 1035 1298 l 2,7,8
 1057 1285 1057 1285 1057 1267 c 0,9,10
 1057 1258 1057 1258 1049 1244 c 2,11,-1
 946 1065 l 1,12,-1
 1158 1065 l 2,13,14
 1223 1065 1223 1065 1223 1000 c 2,15,-1
 1223 919 l 2,16,17
 1223 854 1223 854 1158 854 c 2,18,-1
 824 854 l 1,19,-1
 709 655 l 1,20,-1
 1158 655 l 2,21,22
 1223 655 1223 655 1223 590 c 2,23,-1
 1223 509 l 2,24,25
 1223 444 1223 444 1158 444 c 2,26,-1
 587 444 l 1,27,-1
 441 192 l 2,28,29
 428 170 428 170 410 170 c 0,30,31
 398 170 398 170 386 177 c 2,32,-1
 338 206 l 2,33,34
 316 219 316 219 316 237 c 0,35,36
 316 246 316 246 324 260 c 2,37,-1
 430 444 l 1,38,-1
 215 444 l 2,39,40
 150 444 150 444 150 509 c 2,41,-1
 150 590 l 2,42,43
 150 655 150 655 215 655 c 2,44,-1
 552 655 l 1,45,-1
 667 854 l 1,46,-1
 215 854 l 2,47,48
 150 854 150 854 150 919 c 2,49,-1
 150 1000 l 2,50,51
 150 1065 150 1065 215 1065 c 2,0,-1
EndSplineSet
Validated: 1
EndChar

StartChar: lessequal
Encoding: 8804 8804 146
Width: 1292
GlyphClass: 2
Flags: MW
LayerCount: 2
Fore
SplineSet
265 355 m 2,0,-1
 1027 355 l 2,1,2
 1092 355 1092 355 1092 290 c 2,3,-1
 1092 209 l 2,4,5
 1092 144 1092 144 1027 144 c 2,6,-1
 265 144 l 2,7,8
 200 144 200 144 200 209 c 2,9,-1
 200 290 l 2,10,11
 200 355 200 355 265 355 c 2,0,-1
1006 1393 m 0,12,13
 1031 1393 1031 1393 1047 1366 c 2,14,-1
 1084 1302 l 2,15,16
 1092 1288 1092 1288 1092 1275 c 0,17,18
 1092 1248 1092 1248 1065 1233 c 2,19,-1
 501 913 l 1,20,-1
 1050 613 l 2,21,22
 1087 593 1087 593 1087 560 c 0,23,24
 1087 542 1087 542 1076 523 c 2,25,-1
 1026 436 l 2,26,27
 1006 401 1006 401 974 401 c 0,28,29
 955 401 955 401 935 412 c 2,30,-1
 250 788 l 2,31,32
 200 815 200 815 200 858 c 2,33,-1
 200 899 l 2,34,35
 200 940 200 940 250 969 c 2,36,-1
 978 1385 l 2,37,38
 992 1393 992 1393 1006 1393 c 0,12,13
EndSplineSet
Validated: 1
EndChar

StartChar: greaterequal
Encoding: 8805 8805 147
Width: 1292
GlyphClass: 2
Flags: MW
LayerCount: 2
Fore
SplineSet
265 355 m 2,0,-1
 1027 355 l 2,1,2
 1092 355 1092 355 1092 290 c 2,3,-1
 1092 209 l 2,4,5
 1092 144 1092 144 1027 144 c 2,6,-1
 265 144 l 2,7,8
 200 144 200 144 200 209 c 2,9,-1
 200 290 l 2,10,11
 200 355 200 355 265 355 c 2,0,-1
318 1393 m 0,12,13
 337 1393 337 1393 357 1382 c 2,14,-1
 1042 1006 l 2,15,16
 1092 979 1092 979 1092 936 c 2,17,-1
 1092 895 l 2,18,19
 1092 854 1092 854 1042 825 c 2,20,-1
 314 409 l 2,21,22
 300 401 300 401 286 401 c 0,23,24
 261 401 261 401 245 428 c 2,25,-1
 208 492 l 2,26,27
 200 506 200 506 200 519 c 0,28,29
 200 546 200 546 227 561 c 2,30,-1
 791 881 l 1,31,-1
 242 1181 l 2,32,33
 205 1201 205 1201 205 1234 c 0,34,35
 205 1252 205 1252 216 1271 c 2,36,-1
 266 1358 l 2,37,38
 286 1393 286 1393 318 1393 c 0,12,13
EndSplineSet
Validated: 1
EndChar

StartChar: lozenge
Encoding: 9674 9674 148
Width: 1258
GlyphClass: 2
Flags: MW
LayerCount: 2
Fore
SplineSet
720 336 m 1,0,-1
 906 613 l 1,1,-1
 533 1157 l 1,2,-1
 344 874 l 1,3,-1
 720 336 l 1,0,-1
629 -20 m 1,4,-1
 100 738 l 1,5,-1
 629 1530 l 1,6,-1
 1158 741 l 1,7,-1
 629 -20 l 1,4,-1
EndSplineSet
Validated: 1
EndChar

StartChar: multiply
Encoding: 215 215 149
Width: 1262
Flags: MW
LayerCount: 2
Fore
SplineSet
372 1163 m 2,0,-1
 631 904 l 1,1,-1
 890 1163 l 2,2,3
 912 1185 912 1185 936 1185 c 128,-1,4
 960 1185 960 1185 982 1163 c 2,5,-1
 1039 1105 l 2,6,7
 1062 1082 1062 1082 1062 1059 c 128,-1,8
 1062 1036 1062 1036 1039 1013 c 2,9,-1
 780 754 l 1,10,-1
 1039 496 l 2,11,12
 1062 473 1062 473 1062 450 c 128,-1,13
 1062 427 1062 427 1039 404 c 2,14,-1
 982 346 l 2,15,16
 960 324 960 324 936 324 c 128,-1,17
 912 324 912 324 890 346 c 2,18,-1
 631 605 l 1,19,-1
 372 346 l 2,20,21
 350 324 350 324 326 324 c 128,-1,22
 302 324 302 324 280 346 c 2,23,-1
 223 404 l 2,24,25
 200 427 200 427 200 450 c 128,-1,26
 200 473 200 473 223 496 c 2,27,-1
 482 754 l 1,28,-1
 223 1013 l 2,29,30
 200 1036 200 1036 200 1059 c 128,-1,32
 200 1082 200 1082 223 1105 c 2,33,-1
 280 1163 l 2,34,35
 302 1185 302 1185 326 1185 c 128,-1,36
 350 1185 350 1185 372 1163 c 2,0,-1
EndSplineSet
Validated: 1
EndChar

StartChar: divide
Encoding: 247 247 150
Width: 1373
Flags: MW
LayerCount: 2
Fore
SplineSet
215 860 m 2,0,-1
 1158 860 l 2,1,2
 1223 860 1223 860 1223 795 c 2,3,-1
 1223 714 l 2,4,5
 1223 649 1223 649 1158 649 c 2,6,-1
 215 649 l 2,7,8
 150 649 150 649 150 714 c 2,9,-1
 150 795 l 2,10,11
 150 860 150 860 215 860 c 2,0,-1
686 1330 m 128,-1,13
 762 1330 762 1330 815 1276 c 128,-1,14
 868 1222 868 1222 868 1145 c 128,-1,15
 868 1068 868 1068 815 1014 c 128,-1,16
 762 960 762 960 686 960 c 128,-1,17
 610 960 610 960 557 1014 c 128,-1,18
 504 1068 504 1068 504 1145 c 128,-1,19
 504 1222 504 1222 557 1276 c 128,-1,12
 610 1330 610 1330 686 1330 c 128,-1,13
686 179 m 128,-1,21
 610 179 610 179 557 233 c 128,-1,22
 504 287 504 287 504 364 c 128,-1,23
 504 441 504 441 557 495 c 128,-1,24
 610 549 610 549 686 549 c 128,-1,25
 762 549 762 549 815 495 c 128,-1,26
 868 441 868 441 868 364 c 128,-1,27
 868 287 868 287 815 233 c 128,-1,20
 762 179 762 179 686 179 c 128,-1,21
EndSplineSet
Validated: 1
EndChar

StartChar: g
Encoding: 103 103 151
Width: 1319
Flags: MW
LayerCount: 2
Fore
SplineSet
661 85 m 0,0,1
 725 85 725 85 765 148 c 0,2,3
 799 201 799 201 799 327 c 2,4,-1
 799 773 l 2,5,6
 799 897 799 897 764 952 c 0,7,8
 725 1015 725 1015 661 1015 c 0,9,10
 562 1015 562 1015 491 879 c 0,11,12
 430 760 430 760 430 550 c 0,13,14
 430 347 430 347 491 221 c 0,15,16
 558 85 558 85 661 85 c 0,0,1
604 -20 m 0,17,18
 393 -20 393 -20 240 151 c 0,19,20
 110 297 110 297 110 550 c 0,21,22
 110 788 110 788 236 942 c 0,23,24
 381 1120 381 1120 610 1120 c 0,25,26
 723 1120 723 1120 800 1040 c 1,27,28
 800 1100 800 1100 879 1100 c 2,29,-1
 1019 1100 l 2,30,31
 1099 1100 1099 1100 1099 1020 c 2,32,-1
 1099 106 l 2,33,34
 1099 -140 1099 -140 949 -291 c 0,35,36
 810 -430 810 -430 564 -430 c 0,37,38
 371 -430 371 -430 258 -350 c 0,39,40
 171 -288 171 -288 171 -197 c 0,41,42
 171 -131 171 -131 216 -85.5 c 128,-1,43
 261 -40 261 -40 326 -40 c 128,-1,44
 391 -40 391 -40 436 -85.5 c 128,-1,45
 481 -131 481 -131 481 -197 c 0,46,47
 481 -262 481 -262 436 -308 c 0,48,49
 428 -316 428 -316 417 -324 c 1,50,51
 463 -338 463 -338 525 -338 c 0,52,53
 642 -338 642 -338 719 -246 c 0,54,55
 799 -148 799 -148 799 15 c 2,56,-1
 799 41 l 1,57,58
 725 -20 725 -20 604 -20 c 0,17,18
EndSplineSet
Validated: 1
EndChar

StartChar: k
Encoding: 107 107 152
Width: 1278
Flags: MW
LayerCount: 2
Fore
SplineSet
300 0 m 2,0,1
 220 0 220 0 220 80 c 2,2,-1
 220 1280 l 2,3,4
 220 1386 220 1386 132 1386 c 0,5,6
 62 1386 62 1386 25 1280 c 1,7,-1
 10 1280 l 1,8,9
 10 1369 10 1369 53 1425 c 0,10,11
 130 1530 130 1530 272.5 1530 c 128,-1,12
 415 1530 415 1530 479 1427 c 0,13,14
 520 1361 520 1361 520 1231 c 2,15,-1
 520 490 l 1,16,17
 669 917 669 917 815 1066 c 0,18,19
 868 1120 868 1120 944 1120 c 128,-1,20
 1020 1120 1020 1120 1073 1066 c 128,-1,21
 1126 1012 1126 1012 1126 935 c 128,-1,22
 1126 858 1126 858 1072 803 c 0,23,24
 1020 750 1020 750 946 750 c 0,25,26
 864 750 864 750 824 799 c 0,27,28
 810 816 810 816 804 833 c 1,29,30
 746 730 746 730 692 586 c 1,31,32
 979 564 979 564 1043 340 c 0,33,34
 1058 288 1058 288 1058 230 c 0,35,36
 1058 124 1058 124 1146 124 c 0,37,38
 1216 124 1216 124 1253 230 c 1,39,-1
 1268 230 l 1,40,41
 1268 141 1268 141 1225 85 c 0,42,43
 1144 -20 1144 -20 1006 -20 c 0,44,45
 863 -20 863 -20 799 83 c 0,46,47
 758 149 758 149 758 279 c 0,48,49
 758 408 758 408 646 471 c 1,50,51
 571 273 571 273 520 80 c 1,52,53
 520 0 520 0 440 0 c 2,54,-1
 300 0 l 2,0,1
EndSplineSet
Validated: 1
EndChar

StartChar: v
Encoding: 118 118 153
Width: 1342
Flags: MW
LayerCount: 2
Fore
SplineSet
667 -20 m 0,0,1
 445 -20 445 -20 329 98 c 24,2,3
 220 209 220 209 220 387 c 2,4,-1
 220 870 l 2,5,6
 220 976 220 976 132 976 c 0,7,8
 62 976 62 976 25 870 c 1,9,-1
 10 870 l 1,10,11
 10 957 10 957 53 1015 c 0,12,13
 131 1120 131 1120 273 1120 c 128,-1,14
 415 1120 415 1120 479 1017 c 0,15,16
 520 951 520 951 520 821 c 2,17,-1
 520 388 l 2,18,19
 520 268 520 268 570 193 c 0,20,21
 627 109 627 109 731 109 c 0,22,23
 848 109 848 109 922 186 c 0,24,25
 1024 291 1024 291 1024 458 c 0,26,27
 1024 569 1024 569 969 664 c 0,28,29
 926 739 926 739 815 818 c 0,30,31
 742 870 742 870 742 961 c 0,32,33
 742 1032 742 1032 789 1077 c 0,34,35
 834 1120 834 1120 915 1120 c 0,36,37
 1041 1120 1041 1120 1122 985 c 0,38,39
 1232 801 1232 801 1232 557 c 0,40,41
 1232 372 1232 372 1138 220 c 0,42,43
 990 -20 990 -20 667 -20 c 0,0,1
EndSplineSet
Validated: 1
EndChar

StartChar: w
Encoding: 119 119 154
Width: 1992
Flags: MW
LayerCount: 2
Fore
SplineSet
618 -20 m 0,0,1
 426 -20 426 -20 329 83 c 0,2,3
 220 199 220 199 220 394 c 2,4,-1
 220 870 l 2,5,6
 220 976 220 976 132 976 c 0,7,8
 62 976 62 976 25 870 c 1,9,-1
 10 870 l 1,10,11
 10 957 10 957 53 1015 c 0,12,13
 131 1120 131 1120 273 1120 c 128,-1,14
 415 1120 415 1120 479 1017 c 0,15,16
 520 951 520 951 520 821 c 2,17,-1
 520 397 l 2,18,19
 520 267 520 267 559 203 c 0,20,21
 608 122 608 122 699 122 c 0,22,23
 788 122 788 122 840 216 c 0,24,25
 870 271 870 271 870 397 c 2,26,-1
 870 1020 l 2,27,28
 870 1100 870 1100 950 1100 c 2,29,-1
 1090 1100 l 2,30,31
 1170 1100 1170 1100 1170 1020 c 2,32,-1
 1170 388 l 2,33,34
 1170 268 1170 268 1220 193 c 0,35,36
 1277 109 1277 109 1381 109 c 0,37,38
 1498 109 1498 109 1572 186 c 0,39,40
 1674 291 1674 291 1674 458 c 0,41,42
 1674 569 1674 569 1619 664 c 0,43,44
 1576 739 1576 739 1465 818 c 0,45,46
 1392 870 1392 870 1392 961 c 0,47,48
 1392 1032 1392 1032 1439 1077 c 0,49,50
 1484 1120 1484 1120 1565 1120 c 0,51,52
 1691 1120 1691 1120 1772 985 c 0,53,54
 1882 801 1882 801 1882 557 c 0,55,56
 1882 372 1882 372 1788 220 c 0,57,58
 1640 -20 1640 -20 1317 -20 c 0,59,60
 1095 -20 1095 -20 979 98 c 0,61,62
 961 116 961 116 946 137 c 1,63,64
 829 -20 829 -20 618 -20 c 0,0,1
EndSplineSet
Validated: 1
EndChar

StartChar: y
Encoding: 121 121 155
Width: 1390
Flags: MW
LayerCount: 2
Fore
SplineSet
590 -20 m 0,0,1
 426 -20 426 -20 329 83 c 0,2,3
 220 199 220 199 220 394 c 2,4,-1
 220 870 l 2,5,6
 220 976 220 976 132 976 c 0,7,8
 62 976 62 976 25 870 c 1,9,-1
 10 870 l 1,10,11
 10 957 10 957 53 1015 c 0,12,13
 131 1120 131 1120 273 1120 c 128,-1,14
 415 1120 415 1120 479 1017 c 0,15,16
 520 951 520 951 520 821 c 2,17,-1
 520 397 l 2,18,19
 520 267 520 267 559 203 c 0,20,21
 608 122 608 122 699 122 c 0,22,23
 788 122 788 122 840 216 c 0,24,25
 870 271 870 271 870 397 c 2,26,-1
 870 1020 l 2,27,28
 870 1100 870 1100 950 1100 c 2,29,-1
 1090 1100 l 2,30,31
 1170 1100 1170 1100 1170 1020 c 2,32,-1
 1170 106 l 2,33,34
 1170 -140 1170 -140 1020 -291 c 0,35,36
 881 -430 881 -430 635 -430 c 0,37,38
 442 -430 442 -430 329 -350 c 0,39,40
 242 -288 242 -288 242 -197 c 0,41,42
 242 -131 242 -131 287 -85.5 c 128,-1,43
 332 -40 332 -40 397 -40 c 128,-1,44
 462 -40 462 -40 507 -85.5 c 128,-1,45
 552 -131 552 -131 552 -197 c 0,46,47
 552 -262 552 -262 507 -308 c 0,48,49
 499 -316 499 -316 488 -324 c 1,50,51
 534 -338 534 -338 596 -338 c 0,52,53
 712 -338 712 -338 790 -246 c 0,54,55
 870 -153 870 -153 870 15 c 2,56,-1
 870 124 l 1,57,58
 768 -20 768 -20 590 -20 c 0,0,1
EndSplineSet
Validated: 1
EndChar

StartChar: z
Encoding: 122 122 156
Width: 1157
Flags: MW
LayerCount: 2
Fore
SplineSet
62 -20 m 1,0,1
 50 -11 l 1,2,-1
 676 957 l 1,3,4
 613 962 613 962 551 987 c 0,5,6
 478 1016 478 1016 420 1016 c 0,7,8
 391 1016 391 1016 367 1008 c 1,9,10
 440 961 440 961 440 882 c 128,-1,11
 440 803 440 803 388 749 c 0,12,13
 335 695 335 695 259 695 c 128,-1,14
 183 695 183 695 130 749 c 128,-1,15
 77 803 77 803 77 880 c 0,16,17
 77 987 77 987 156 1050 c 8,18,19
 244 1120 244 1120 413 1120 c 0,20,21
 512 1120 512 1120 639 1088 c 0,22,23
 731 1065 731 1065 844 1065 c 128,-1,24
 957 1065 957 1065 1073 1120 c 1,25,26
 1085 1111 l 1,27,-1
 461 143 l 1,28,29
 544 136 544 136 618 110 c 0,30,31
 686 86 686 86 761 86 c 0,32,33
 789 86 789 86 817 90 c 1,34,35
 740 143 740 143 740 220 c 128,-1,36
 740 297 740 297 794 351 c 0,37,38
 847 405 847 405 923 405 c 128,-1,39
 999 405 999 405 1052 351 c 128,-1,40
 1105 297 1105 297 1105 220 c 0,41,42
 1105 115 1105 115 1026 50 c 0,43,44
 941 -20 941 -20 770 -20 c 0,45,46
 670 -20 670 -20 550 8 c 0,47,48
 437 35 437 35 329 35 c 0,49,50
 190 35 190 35 62 -20 c 1,0,1
EndSplineSet
Validated: 1
EndChar

StartChar: x
Encoding: 120 120 157
Width: 1191
Flags: MW
LayerCount: 2
Fore
SplineSet
271 -20 m 0,0,1
 130 -20 130 -20 53 85 c 0,2,3
 10 144 10 144 10 230 c 1,4,-1
 25 230 l 1,5,6
 87 96 87 96 226 96 c 0,7,8
 332 96 332 96 454 204 c 0,9,10
 535 275 535 275 568 315 c 1,11,-1
 238 904 l 2,12,13
 198 976 198 976 133 976 c 0,14,15
 63 976 63 976 26 870 c 1,16,-1
 11 870 l 1,17,18
 11 956 11 956 54 1015 c 0,19,20
 131 1120 131 1120 272 1120 c 0,21,22
 437 1120 437 1120 517 976 c 2,23,-1
 767 530 l 1,24,25
 850 627 850 627 929 768 c 1,26,27
 857 771 857 771 811 817 c 0,28,29
 761 867 761 867 761 934 c 0,30,31
 761 1011 761 1011 814.5 1065.5 c 128,-1,32
 868 1120 868 1120 944 1120 c 128,-1,33
 1020 1120 1020 1120 1073 1066 c 128,-1,34
 1126 1012 1126 1012 1126 935 c 0,35,36
 1126 869 1126 869 1086 786 c 0,37,38
 1052 716 1052 716 990 616 c 0,39,40
 935 528 935 528 835 408 c 1,41,-1
 954 196 l 2,42,43
 994 124 994 124 1059 124 c 0,44,45
 1129 124 1129 124 1166 230 c 1,46,-1
 1181 230 l 1,47,48
 1181 144 1181 144 1138 85 c 0,49,50
 1061 -20 1061 -20 920 -20 c 0,51,52
 755 -20 755 -20 675 124 c 2,53,-1
 635 195 l 1,54,55
 558 117 558 117 477 56 c 0,56,57
 376 -20 376 -20 271 -20 c 0,0,1
EndSplineSet
Validated: 1
EndChar

StartChar: AE
Encoding: 198 198 158
Width: 2295
Flags: MW
LayerCount: 2
Fore
SplineSet
176 -20 m 0,0,1
 93 -20 93 -20 48 48 c 0,2,3
 10 106 10 106 10 230 c 1,4,-1
 25 230 l 1,5,6
 60 103 60 103 158 103 c 0,7,8
 212 103 212 103 247 188 c 2,9,-1
 704 1296 l 1,10,11
 676 1385 676 1385 615 1385 c 0,12,13
 548 1385 548 1385 503 1286 c 1,14,-1
 488 1286 l 1,15,16
 488 1370 488 1370 530 1430 c 0,17,18
 600 1530 600 1530 756 1530 c 0,19,20
 954 1530 954 1530 1030 1349 c 2,21,-1
 1260 804 l 1,22,23
 1344 868 1344 868 1456 889 c 1,24,25
 1386 918 1386 918 1338 961 c 0,26,27
 1235 1053 1235 1053 1235 1199 c 0,28,29
 1235 1339 1235 1339 1366 1437 c 0,30,31
 1492 1530 1492 1530 1703 1530 c 0,32,33
 1893 1530 1893 1530 2008 1415 c 0,34,35
 2085 1338 2085 1338 2085 1238 c 0,36,37
 2085 1159 2085 1159 2032 1105 c 128,-1,38
 1979 1051 1979 1051 1903 1051 c 128,-1,39
 1827 1051 1827 1051 1774 1104.5 c 128,-1,40
 1721 1158 1721 1158 1721 1235 c 0,41,42
 1721 1307 1721 1307 1769 1355 c 0,43,44
 1799 1384 1799 1384 1848 1394 c 1,45,46
 1800 1435 1800 1435 1730.5 1435 c 128,-1,47
 1661 1435 1661 1435 1612 1388 c 0,48,49
 1549 1323 1549 1323 1549 1200 c 0,50,51
 1549 1064 1549 1064 1616 990 c 0,52,53
 1681 918 1681 918 1820 874 c 1,54,-1
 1820 859 l 1,55,56
 1679 845 1679 845 1561 750 c 128,-1,57
 1443 655 1443 655 1443 475 c 128,-1,58
 1443 295 1443 295 1526 196 c 0,59,60
 1619 85 1619 85 1762 85 c 0,61,62
 1917 85 1917 85 2019 181 c 0,63,64
 2107 265 2107 265 2179 390 c 1,65,-1
 2195 390 l 1,66,-1
 2195 189 l 1,67,-1
 2193 188 l 1,68,69
 2025 -20 2025 -20 1720 -20 c 0,70,71
 1637 -20 1637 -20 1564 -9 c 1,72,73
 1520 -20 1520 -20 1465 -20 c 0,74,75
 1259 -20 1259 -20 1178 172 c 2,76,-1
 1043 491 l 1,77,-1
 521 491 l 1,78,-1
 372 136 l 2,79,80
 307 -20 307 -20 176 -20 c 0,0,1
783 1119 m 1,81,-1
 572 612 l 1,82,-1
 992 612 l 1,83,-1
 783 1119 l 1,81,-1
EndSplineSet
Validated: 1
EndChar

StartChar: Eth
Encoding: 208 208 159
Width: 1625
Flags: MW
LayerCount: 2
Fore
SplineSet
338 -20 m 0,0,1
 181 -20 181 -20 118 82 c 0,2,3
 82 140 82 140 81 230 c 1,4,-1
 96 230 l 1,5,6
 133 124 133 124 203 124 c 0,7,8
 290 124 290 124 290 230 c 2,9,-1
 290 585 l 1,10,-1
 153 585 l 2,11,12
 113 585 113 585 113 620 c 2,13,-1
 113 670 l 2,14,15
 113 705 113 705 153 705 c 2,16,-1
 291 705 l 1,17,-1
 291 1125 l 2,18,19
 291 1205 291 1205 371 1205 c 2,20,-1
 531 1205 l 2,21,22
 610 1205 610 1205 610 1125 c 2,23,-1
 610 705 l 1,24,-1
 853 705 l 2,25,26
 893 705 893 705 893 670 c 2,27,-1
 893 620 l 2,28,29
 893 585 893 585 853 585 c 2,30,-1
 610 585 l 1,31,-1
 610 278 l 2,32,33
 610 90 610 90 759 90 c 0,34,35
 958 90 958 90 1060 318 c 0,36,37
 1140 498 1140 498 1140 755 c 0,38,39
 1140 1011 1140 1011 1044 1189 c 0,40,41
 924 1410 924 1410 671 1410 c 0,42,43
 284 1410 284 1410 34 1036 c 1,44,-1
 20 1044 l 1,45,46
 228 1530 228 1530 773 1530 c 0,47,48
 1086 1530 1086 1530 1273 1338 c 0,49,50
 1495 1110 1495 1110 1495 755 c 0,51,52
 1495 462 1495 462 1331 239 c 0,53,54
 1141 -20 1141 -20 790 -20 c 0,55,56
 617 -20 617 -20 544 61 c 1,57,58
 480 -20 480 -20 338 -20 c 0,0,1
EndSplineSet
Validated: 1
EndChar

StartChar: Dcroat
Encoding: 272 272 160
Width: 1625
Flags: MW
LayerCount: 2
Fore
SplineSet
338 -20 m 0,0,1
 181 -20 181 -20 118 82 c 0,2,3
 82 140 82 140 81 230 c 1,4,-1
 96 230 l 1,5,6
 133 124 133 124 203 124 c 0,7,8
 290 124 290 124 290 230 c 2,9,-1
 290 585 l 1,10,-1
 153 585 l 2,11,12
 113 585 113 585 113 620 c 2,13,-1
 113 670 l 2,14,15
 113 705 113 705 153 705 c 2,16,-1
 291 705 l 1,17,-1
 291 1125 l 2,18,19
 291 1205 291 1205 371 1205 c 2,20,-1
 531 1205 l 2,21,22
 610 1205 610 1205 610 1125 c 2,23,-1
 610 705 l 1,24,-1
 853 705 l 2,25,26
 893 705 893 705 893 670 c 2,27,-1
 893 620 l 2,28,29
 893 585 893 585 853 585 c 2,30,-1
 610 585 l 1,31,-1
 610 278 l 2,32,33
 610 90 610 90 759 90 c 0,34,35
 958 90 958 90 1060 318 c 0,36,37
 1140 498 1140 498 1140 755 c 0,38,39
 1140 1011 1140 1011 1044 1189 c 0,40,41
 924 1410 924 1410 671 1410 c 0,42,43
 284 1410 284 1410 34 1036 c 1,44,-1
 20 1044 l 1,45,46
 228 1530 228 1530 773 1530 c 0,47,48
 1086 1530 1086 1530 1273 1338 c 0,49,50
 1495 1110 1495 1110 1495 755 c 0,51,52
 1495 462 1495 462 1331 239 c 0,53,54
 1141 -20 1141 -20 790 -20 c 0,55,56
 617 -20 617 -20 544 61 c 1,57,58
 480 -20 480 -20 338 -20 c 0,0,1
EndSplineSet
Validated: 1
EndChar

StartChar: Hbar
Encoding: 294 294 161
Width: 1537
Flags: MW
LayerCount: 2
Fore
SplineSet
287 -20 m 0,0,1
 130 -20 130 -20 67 82 c 0,2,3
 31 140 31 140 30 230 c 1,4,-1
 45 230 l 1,5,6
 82 124 82 124 152 124 c 0,7,8
 240 124 240 124 240 230 c 2,9,-1
 240 1194 l 1,10,-1
 155 1194 l 2,11,12
 115 1194 115 1194 115 1229 c 2,13,-1
 115 1279 l 2,14,15
 115 1314 115 1314 155 1314 c 2,16,-1
 237 1314 l 1,17,18
 224 1386 224 1386 152 1386 c 0,19,20
 82 1386 82 1386 45 1280 c 1,21,-1
 30 1280 l 1,22,23
 31 1370 31 1370 67 1428 c 0,24,25
 130 1530 130 1530 287 1530 c 0,26,27
 434 1530 434 1530 509 1427 c 0,28,29
 542 1382 542 1382 553 1314 c 1,30,-1
 984 1314 l 1,31,32
 996 1382 996 1382 1028 1427 c 0,33,34
 1103 1530 1103 1530 1250 1530 c 0,35,36
 1407 1530 1407 1530 1470 1428 c 0,37,38
 1506 1370 1506 1370 1507 1280 c 1,39,-1
 1492 1280 l 1,40,41
 1455 1386 1455 1386 1385 1386 c 0,42,43
 1312 1386 1312 1386 1300 1314 c 1,44,-1
 1382 1314 l 2,45,46
 1422 1314 1422 1314 1422 1279 c 2,47,-1
 1422 1229 l 2,48,49
 1422 1194 1422 1194 1382 1194 c 2,50,-1
 1297 1194 l 1,51,-1
 1297 230 l 2,52,53
 1297 124 1297 124 1385 124 c 0,54,55
 1455 124 1455 124 1492 230 c 1,56,-1
 1507 230 l 1,57,58
 1506 140 1506 140 1470 82 c 0,59,60
 1407 -20 1407 -20 1250 -20 c 0,61,62
 1103 -20 1103 -20 1028 83 c 0,63,64
 977 153 977 153 977 279 c 2,65,-1
 977 586 l 1,66,-1
 560 586 l 1,67,-1
 560 279 l 2,68,69
 560 153 560 153 509 83 c 0,70,71
 434 -20 434 -20 287 -20 c 0,0,1
560 1194 m 1,72,-1
 560 707 l 1,73,-1
 977 707 l 1,74,-1
 977 1194 l 1,75,-1
 560 1194 l 1,72,-1
EndSplineSet
Validated: 1
EndChar

StartChar: Lslash
Encoding: 321 321 162
Width: 1338
Flags: MW
LayerCount: 2
Fore
SplineSet
287 -20 m 0,0,1
 130 -20 130 -20 67 82 c 0,2,3
 31 140 31 140 30 230 c 1,4,-1
 45 230 l 1,5,6
 82 124 82 124 152 124 c 0,7,8
 240 124 240 124 240 230 c 2,9,-1
 240 466 l 1,10,-1
 174 428 l 2,11,12
 160 420 160 420 147 420 c 0,13,14
 130 420 130 420 117 443 c 2,15,-1
 97 479 l 2,16,17
 90 492 90 492 90 503 c 0,18,19
 90 523 90 523 112 536 c 2,20,-1
 240 610 l 1,21,-1
 240 956 l 2,22,23
 240 1239 240 1239 395 1380 c 0,24,25
 560 1530 560 1530 790 1530 c 0,26,27
 1031 1530 1031 1530 1157 1393 c 0,28,29
 1218 1327 1218 1327 1218 1242 c 0,30,31
 1218 1155 1218 1155 1164 1100 c 0,32,33
 1112 1047 1112 1047 1036 1047 c 128,-1,34
 960 1047 960 1047 907 1101.5 c 128,-1,35
 854 1156 854 1156 854 1233 c 0,36,37
 854 1320 854 1320 911 1362 c 0,38,39
 943 1386 943 1386 976 1396 c 1,40,41
 922 1425 922 1425 841 1425 c 0,42,43
 759 1425 759 1425 693 1368 c 0,44,45
 560 1253 560 1253 560 955 c 2,46,-1
 560 795 l 1,47,-1
 814 942 l 2,48,49
 826 949 826 949 836 949 c 0,50,51
 858 949 858 949 871 926 c 2,52,-1
 891 891 l 2,53,54
 898 879 898 879 898 868 c 0,55,56
 898 847 898 847 876 834 c 2,57,-1
 560 651 l 1,58,-1
 560 279 l 2,59,60
 560 211 560 211 541 146 c 1,61,62
 568 147 568 147 592 147 c 0,63,64
 707 147 707 147 797 116 c 128,-1,65
 887 85 887 85 965 85 c 0,66,67
 1005 85 1005 85 1040 97 c 1,68,69
 943 140 943 140 943 225 c 0,70,71
 943 301 943 301 996 355 c 0,72,73
 1050 409 1050 409 1126 409 c 128,-1,74
 1202 409 1202 409 1255 355 c 128,-1,75
 1308 301 1308 301 1308 224 c 0,76,77
 1308 114 1308 114 1229 51 c 0,78,79
 1141 -19 1141 -19 999 -19 c 0,80,81
 860 -19 860 -19 745 8 c 0,82,83
 634 35 634 35 587 35 c 0,84,85
 532 35 532 35 484 15 c 0,86,87
 401 -20 401 -20 287 -20 c 0,0,1
EndSplineSet
Validated: 1
EndChar

StartChar: Eng
Encoding: 330 330 163
Width: 1600
Flags: MW
LayerCount: 2
Fore
SplineSet
320 0 m 2,0,1
 240 0 240 0 240 80 c 2,2,-1
 240 1280 l 2,3,4
 240 1386 240 1386 152 1386 c 0,5,6
 82 1386 82 1386 45 1280 c 1,7,-1
 30 1280 l 1,8,9
 31 1370 31 1370 67 1428 c 0,10,11
 130 1530 130 1530 287 1530 c 0,12,13
 429 1530 429 1530 509 1427 c 0,14,15
 524 1408 524 1408 534 1381 c 1,16,17
 667 1530 667 1530 875 1530 c 0,18,19
 1139 1530 1139 1530 1271 1366 c 0,20,21
 1360 1255 1360 1255 1360 1068 c 2,22,-1
 1360 0 l 2,23,24
 1360 -430 1360 -430 830 -430 c 1,25,-1
 830 -415 l 1,26,27
 1040 -309 1040 -309 1040 0 c 2,28,-1
 1040 1058 l 2,29,30
 1040 1196 1040 1196 1006 1260 c 0,31,32
 938 1388 938 1388 802 1388 c 0,33,34
 663 1388 663 1388 596 1265 c 0,35,36
 560 1199 560 1199 560 1058 c 2,37,-1
 560 80 l 2,38,39
 560 0 560 0 480 0 c 2,40,-1
 320 0 l 2,0,1
EndSplineSet
Validated: 1
EndChar

StartChar: Oslash
Encoding: 216 216 164
Width: 1542
Flags: MW
LayerCount: 2
Fore
SplineSet
771 -20 m 0,0,1
 660 -20 660 -20 568 8 c 1,2,-1
 536 -80 l 2,3,4
 526 -108 526 -108 503 -108 c 0,5,6
 495 -108 495 -108 485 -104 c 2,7,-1
 438 -87 l 2,8,9
 410 -77 410 -77 410 -54 c 0,10,11
 410 -46 410 -46 414 -36 c 2,12,-1
 449 61 l 1,13,14
 394 94 394 94 349 142 c 0,15,16
 130 367 130 367 130 755 c 128,-1,17
 130 1143 130 1143 349 1368 c 0,18,19
 506 1530 506 1530 771 1530 c 0,20,21
 882 1530 882 1530 974 1502 c 1,22,-1
 1006 1590 l 2,23,24
 1016 1618 1016 1618 1038 1618 c 0,25,26
 1046 1618 1046 1618 1057 1614 c 2,27,-1
 1104 1597 l 2,28,29
 1132 1587 1132 1587 1132 1564 c 0,30,31
 1132 1556 1132 1556 1128 1546 c 2,32,-1
 1093 1449 l 1,33,34
 1148 1416 1148 1416 1193 1368 c 0,35,36
 1412 1143 1412 1143 1412 755 c 128,-1,37
 1412 367 1412 367 1193 142 c 0,38,39
 1036 -20 1036 -20 771 -20 c 0,0,1
771 85 m 0,40,41
 888 85 888 85 960 202 c 0,42,43
 1073 386 1073 386 1073 755 c 0,44,45
 1073 1038 1073 1038 1007 1212 c 1,46,-1
 620 151 l 1,47,48
 676 85 676 85 771 85 c 0,40,41
535 298 m 1,49,-1
 922 1359 l 1,50,51
 859 1425 859 1425 771 1425 c 0,52,53
 654 1425 654 1425 582 1308 c 0,54,55
 469 1124 469 1124 469 755 c 0,56,57
 469 472 469 472 535 298 c 1,49,-1
EndSplineSet
Validated: 1
EndChar

StartChar: OE
Encoding: 338 338 165
Width: 2092
Flags: MW
LayerCount: 2
Fore
SplineSet
771 -20 m 0,0,1
 506 -20 506 -20 349 142 c 0,2,3
 130 368 130 368 130 755 c 128,-1,4
 130 1142 130 1142 349 1368 c 0,5,6
 506 1530 506 1530 771 1530 c 0,7,8
 992 1530 992 1530 1138 1417 c 1,9,10
 1150 1427 1150 1427 1163 1437 c 0,11,12
 1284 1530 1284 1530 1500 1530 c 0,13,14
 1690 1530 1690 1530 1805 1415 c 0,15,16
 1882 1338 1882 1338 1882 1238 c 0,17,18
 1882 1159 1882 1159 1829 1105 c 128,-1,19
 1776 1051 1776 1051 1700 1051 c 128,-1,20
 1624 1051 1624 1051 1571 1104.5 c 128,-1,21
 1518 1158 1518 1158 1518 1235 c 0,22,23
 1518 1307 1518 1307 1566 1355 c 0,24,25
 1596 1384 1596 1384 1645 1394 c 1,26,27
 1599 1433 1599 1433 1528.5 1433 c 128,-1,28
 1458 1433 1458 1433 1409 1386 c 24,29,30
 1346 1326 1346 1326 1346 1198 c 0,31,32
 1346 1062 1346 1062 1413 988 c 0,33,34
 1478 916 1478 916 1617 872 c 1,35,-1
 1617 857 l 1,36,37
 1507 848 1507 848 1412 788 c 1,38,39
 1412 772 1412 772 1412 755 c 0,40,41
 1412 458 1412 458 1284 256 c 1,42,43
 1300 223 1300 223 1323 196 c 0,44,45
 1418 85 1418 85 1559 85 c 0,46,47
 1714 85 1714 85 1816 181 c 0,48,49
 1904 265 1904 265 1976 390 c 1,50,-1
 1992 390 l 1,51,-1
 1992 189 l 1,52,-1
 1990 188 l 1,53,54
 1822 -20 1822 -20 1517 -20 c 0,55,56
 1270 -20 1270 -20 1118 78 c 1,57,58
 1070 44 1070 44 1019 24 c 0,59,60
 908 -20 908 -20 771 -20 c 0,0,1
771 85 m 128,-1,62
 888 85 888 85 960 202 c 0,63,64
 1073 386 1073 386 1073.08398438 755.051757812 c 128,-1,65
 1073 1124 1073 1124 960 1308 c 0,66,67
 888 1425 888 1425 771 1425 c 128,-1,68
 654 1425 654 1425 582 1308 c 0,69,70
 469 1124 469 1124 469 755 c 128,-1,71
 469 386 469 386 582 202 c 0,72,61
 654 85 654 85 771 85 c 128,-1,62
EndSplineSet
Validated: 1
EndChar

StartChar: Scommaaccent
Encoding: 536 536 166
Width: 1381
Flags: MW
LayerCount: 2
Fore
SplineSet
657 -80 m 0,0,1
 713 -80 713 -80 745 -116 c 128,-1,2
 777 -152 777 -152 777 -200 c 0,3,4
 777 -272 777 -272 721 -298 c 2,5,6
 437 -428 l 1,7,-1
 417 -404 l 1,8,-1
 551 -138 l 2,9,10
 581 -80 581 -80 657 -80 c 0,0,1
653 -20 m 0,11,12
 370 -20 370 -20 232 118 c 0,13,14
 120 230 120 230 120 356 c 0,15,16
 120 433 120 433 173 487 c 128,-1,17
 226 541 226 541 302 541 c 128,-1,18
 378 541 378 541 431 487 c 128,-1,19
 484 433 484 433 484 356 c 0,20,21
 484 277 484 277 431 225 c 0,22,23
 394 188 394 188 330 179 c 1,24,25
 448 86 448 86 622 86 c 0,26,27
 775 86 775 86 866 202 c 0,28,29
 937 292 937 292 937 409 c 0,30,31
 937 581 937 581 694 683 c 2,32,-1
 516 758 l 2,33,34
 222 882 222 882 222 1137 c 0,35,36
 222 1318 222 1318 365 1431 c 0,37,38
 490 1530 490 1530 700 1530 c 0,39,40
 989 1530 989 1530 1104 1336 c 0,41,42
 1136 1280 1136 1280 1136 1217 c 0,43,44
 1136 1140 1136 1140 1083 1086 c 128,-1,45
 1030 1032 1030 1032 954 1032 c 128,-1,46
 878 1032 878 1032 825 1086 c 128,-1,47
 772 1140 772 1140 772 1217 c 0,48,49
 772 1293 772 1293 825 1348 c 0,50,51
 856 1380 856 1380 898 1388 c 1,52,53
 841 1423 841 1423 747.5 1423 c 128,-1,54
 654 1423 654 1423 596 1373 c 0,55,56
 530 1316 530 1316 530 1214 c 0,57,58
 530 1093 530 1093 724 1011 c 2,59,-1
 925 926 l 2,60,61
 1261 784 1261 784 1261 470 c 0,62,63
 1261 269 1261 269 1097 124.5 c 128,-1,64
 933 -20 933 -20 653 -20 c 0,11,12
EndSplineSet
Validated: 1
EndChar

StartChar: Tbar
Encoding: 358 358 167
Width: 1416
Flags: MW
LayerCount: 2
Fore
SplineSet
700 1510 m 2,0,-1
 999 1510 l 2,1,2
 1241 1510 1241 1510 1337 1386 c 0,3,4
 1386 1323 1386 1323 1386 1245 c 0,5,6
 1386 1154 1386 1154 1332 1099 c 0,7,8
 1280 1046 1280 1046 1204 1046 c 128,-1,9
 1128 1046 1128 1046 1075 1100.5 c 128,-1,10
 1022 1155 1022 1155 1022 1231 c 0,11,12
 1022 1305 1022 1305 1066 1346 c 0,13,14
 1098 1376 1098 1376 1139 1383 c 1,15,16
 1082 1390 1082 1390 1001 1390 c 2,17,-1
 692 1390 l 2,18,19
 211 1390 211 1390 24 1015 c 1,20,-1
 10 1023 l 1,21,22
 141 1510 141 1510 700 1510 c 2,0,-1
617 -20 m 0,23,24
 460 -20 460 -20 397 82 c 0,25,26
 361 140 361 140 360 230 c 1,27,-1
 375 230 l 1,28,29
 412 124 412 124 482 124 c 0,30,31
 570 124 570 124 570 230 c 2,32,-1
 570 555 l 1,33,-1
 421 555 l 2,34,35
 381 555 381 555 381 590 c 2,36,-1
 381 640 l 2,37,38
 381 675 381 675 421 675 c 2,39,-1
 570 675 l 1,40,-1
 570 1125 l 2,41,42
 570 1205 570 1205 650 1205 c 2,43,-1
 810 1205 l 2,44,45
 890 1205 890 1205 890 1125 c 2,46,-1
 890 675 l 1,47,-1
 1057 675 l 2,48,49
 1097 675 1097 675 1097 640 c 2,50,-1
 1097 590 l 2,51,52
 1097 555 1097 555 1057 555 c 2,53,-1
 890 555 l 1,54,-1
 890 279 l 2,55,56
 890 153 890 153 839 83 c 0,57,58
 764 -20 764 -20 617 -20 c 0,23,24
EndSplineSet
Validated: 1
EndChar

StartChar: uni021A
Encoding: 538 538 168
Width: 1416
Flags: MW
LayerCount: 2
Fore
SplineSet
628 -80 m 0,0,1
 684 -80 684 -80 716 -116 c 128,-1,2
 748 -152 748 -152 748 -200 c 0,3,4
 748 -272 748 -272 692 -298 c 2,5,6
 408 -428 l 1,7,-1
 388 -404 l 1,8,-1
 522 -138 l 2,9,10
 552 -80 552 -80 628 -80 c 0,0,1
617 -20 m 0,11,12
 460 -20 460 -20 397 82 c 0,13,14
 361 140 361 140 360 230 c 1,15,-1
 375 230 l 1,16,17
 412 124 412 124 482 124 c 0,18,19
 570 124 570 124 570 230 c 2,20,-1
 570 1125 l 2,21,22
 570 1205 570 1205 650 1205 c 2,23,-1
 810 1205 l 2,24,25
 890 1205 890 1205 890 1125 c 2,26,-1
 890 279 l 2,27,28
 890 153 890 153 839 83 c 0,29,30
 764 -20 764 -20 617 -20 c 0,11,12
700 1510 m 2,31,-1
 999 1510 l 2,32,33
 1241 1510 1241 1510 1337 1386 c 0,34,35
 1386 1323 1386 1323 1386 1245 c 0,36,37
 1386 1154 1386 1154 1332 1099 c 0,38,39
 1280 1046 1280 1046 1204 1046 c 128,-1,40
 1128 1046 1128 1046 1075 1100.5 c 128,-1,41
 1022 1155 1022 1155 1022 1231 c 0,42,43
 1022 1305 1022 1305 1066 1346 c 0,44,45
 1098 1376 1098 1376 1139 1383 c 1,46,47
 1082 1390 1082 1390 1001 1390 c 2,48,-1
 692 1390 l 2,49,50
 211 1390 211 1390 24 1015 c 1,51,-1
 10 1023 l 1,52,53
 141 1510 141 1510 700 1510 c 2,31,-1
EndSplineSet
Validated: 1
EndChar

StartChar: uni1E02
Encoding: 7682 7682 169
Width: 1525
Flags: MW
LayerCount: 2
Fore
SplineSet
706 1930 m 128,-1,1
 782 1930 782 1930 835 1876 c 128,-1,2
 888 1822 888 1822 888 1745 c 128,-1,3
 888 1668 888 1668 835 1614 c 128,-1,4
 782 1560 782 1560 706 1560 c 128,-1,5
 630 1560 630 1560 577 1614 c 128,-1,6
 524 1668 524 1668 524 1745 c 128,-1,7
 524 1822 524 1822 577 1876 c 128,-1,0
 630 1930 630 1930 706 1930 c 128,-1,1
338 -20 m 0,8,9
 181 -20 181 -20 118 82 c 0,10,11
 82 140 82 140 81 230 c 1,12,-1
 96 230 l 1,13,14
 133 124 133 124 203 124 c 0,15,16
 290 124 290 124 290 230 c 2,17,-1
 291 1125 l 2,18,19
 291 1205 291 1205 371 1205 c 2,20,-1
 530 1205 l 2,21,22
 610 1205 610 1205 610 1125 c 2,23,-1
 610 278 l 2,24,25
 610 90 610 90 759 90 c 0,26,27
 897 90 897 90 990 229 c 0,28,29
 1055 326 1055 326 1055 476 c 0,30,31
 1055 629 1055 629 942 729 c 0,32,33
 841 819 841 819 669 848 c 1,34,35
 775 876 775 876 833 947 c 0,36,37
 909 1041 909 1041 909 1156.5 c 128,-1,38
 909 1272 909 1272 845 1335 c 0,39,40
 768 1410 768 1410 640 1410 c 0,41,42
 270 1410 270 1410 33 1036 c 1,43,-1
 20 1044 l 1,44,45
 219 1530 219 1530 741 1530 c 0,46,47
 1004 1530 1004 1530 1134 1396 c 0,48,49
 1234 1294 1234 1294 1234 1161 c 0,50,51
 1234 1031 1234 1031 1126 936 c 0,52,53
 1075 891 1075 891 1004 861 c 1,54,55
 1131 837 1131 837 1202 794 c 0,56,57
 1395 678 1395 678 1395 466 c 128,-1,58
 1395 254 1395 254 1220 118 c 0,59,60
 1044 -20 1044 -20 782 -20 c 0,61,62
 617 -20 617 -20 544 61 c 1,63,64
 482 -20 482 -20 338 -20 c 0,8,9
EndSplineSet
Validated: 1
EndChar

StartChar: uni1E03
Encoding: 7683 7683 170
Width: 1319
Flags: MW
LayerCount: 2
Fore
SplineSet
334 1930 m 128,-1,1
 410 1930 410 1930 463 1876 c 128,-1,2
 516 1822 516 1822 516 1745 c 128,-1,3
 516 1668 516 1668 463 1614 c 128,-1,4
 410 1560 410 1560 334 1560 c 128,-1,5
 258 1560 258 1560 205 1614 c 128,-1,6
 152 1668 152 1668 152 1745 c 128,-1,7
 152 1822 152 1822 205 1876 c 128,-1,0
 258 1930 258 1930 334 1930 c 128,-1,1
658 1015 m 0,8,9
 594 1015 594 1015 554 952 c 0,10,11
 520 899 520 899 520 773 c 2,12,-1
 520 327 l 2,13,14
 520 203 520 203 555 148 c 0,15,16
 594 85 594 85 658 85 c 0,17,18
 757 85 757 85 828 221 c 0,19,20
 889 340 889 340 889 550 c 0,21,22
 889 753 889 753 828 879 c 0,23,24
 761 1015 761 1015 658 1015 c 0,8,9
684 -20 m 0,25,26
 463 -20 463 -20 327 116 c 24,27,28
 220 223 220 223 220 455 c 2,29,-1
 220 1280 l 2,30,31
 220 1386 220 1386 132 1386 c 0,32,33
 62 1386 62 1386 25 1280 c 1,34,-1
 10 1280 l 1,35,36
 10 1366 10 1366 53 1425 c 0,37,38
 130 1530 130 1530 272 1530 c 0,39,40
 417 1530 417 1530 479 1427 c 0,41,42
 520 1359 520 1359 520 1231 c 2,43,-1
 520 1056 l 1,44,45
 598 1120 598 1120 718 1120 c 0,46,47
 905 1120 905 1120 1027 1004 c 0,48,49
 1209 832 1209 832 1209 550 c 0,50,51
 1209 296 1209 296 1079 152 c 0,52,53
 924 -20 924 -20 684 -20 c 0,25,26
EndSplineSet
Validated: 1
EndChar

StartChar: uni1E0A
Encoding: 7690 7690 171
Width: 1625
Flags: MW
LayerCount: 2
Fore
SplineSet
797 1930 m 128,-1,1
 873 1930 873 1930 926 1876 c 128,-1,2
 979 1822 979 1822 979 1745 c 128,-1,3
 979 1668 979 1668 926 1614 c 128,-1,4
 873 1560 873 1560 797 1560 c 128,-1,5
 721 1560 721 1560 668 1614 c 128,-1,6
 615 1668 615 1668 615 1745 c 128,-1,7
 615 1822 615 1822 668 1876 c 128,-1,0
 721 1930 721 1930 797 1930 c 128,-1,1
338 -20 m 0,8,9
 181 -20 181 -20 118 82 c 0,10,11
 82 140 82 140 81 230 c 1,12,-1
 96 230 l 1,13,14
 133 124 133 124 203 124 c 0,15,16
 290 124 290 124 290 230 c 2,17,-1
 291 1125 l 2,18,19
 291 1205 291 1205 371 1205 c 2,20,-1
 531 1205 l 2,21,22
 610 1205 610 1205 610 1125 c 2,23,-1
 610 278 l 2,24,25
 610 90 610 90 759 90 c 0,26,27
 958 90 958 90 1060 318 c 0,28,29
 1140 498 1140 498 1140 755 c 0,30,31
 1140 1011 1140 1011 1044 1189 c 0,32,33
 924 1410 924 1410 671 1410 c 0,34,35
 284 1410 284 1410 34 1036 c 1,36,-1
 20 1044 l 1,37,38
 228 1530 228 1530 773 1530 c 0,39,40
 1086 1530 1086 1530 1273 1338 c 0,41,42
 1495 1110 1495 1110 1495 755 c 0,43,44
 1495 462 1495 462 1331 239 c 0,45,46
 1141 -20 1141 -20 790 -20 c 0,47,48
 617 -20 617 -20 544 61 c 1,49,50
 480 -20 480 -20 338 -20 c 0,8,9
EndSplineSet
Validated: 1
EndChar

StartChar: uni1E0B
Encoding: 7691 7691 172
Width: 1319
Flags: MW
LayerCount: 2
Fore
SplineSet
876 1930 m 128,-1,1
 952 1930 952 1930 1005 1876 c 128,-1,2
 1058 1822 1058 1822 1058 1745 c 128,-1,3
 1058 1668 1058 1668 1005 1614 c 128,-1,4
 952 1560 952 1560 876 1560 c 128,-1,5
 800 1560 800 1560 747 1614 c 128,-1,6
 694 1668 694 1668 694 1745 c 128,-1,7
 694 1822 694 1822 747 1876 c 128,-1,0
 800 1930 800 1930 876 1930 c 128,-1,1
604 -20 m 0,8,9
 393 -20 393 -20 240 151 c 0,10,11
 110 297 110 297 110 550 c 0,12,13
 110 788 110 788 236 942 c 0,14,15
 381 1120 381 1120 610 1120 c 0,16,17
 723 1120 723 1120 800 1040 c 1,18,-1
 799 1280 l 2,19,20
 799 1386 799 1386 711 1386 c 0,21,22
 641 1386 641 1386 604 1280 c 1,23,-1
 589 1280 l 1,24,25
 589 1369 589 1369 632 1425 c 0,26,27
 709 1530 709 1530 851.5 1530 c 128,-1,28
 994 1530 994 1530 1058 1427 c 0,29,30
 1099 1361 1099 1361 1099 1231 c 2,31,-1
 1099 230 l 2,32,33
 1099 124 1099 124 1187 124 c 0,34,35
 1257 124 1257 124 1294 230 c 1,36,-1
 1309 230 l 1,37,38
 1309 143 1309 143 1266 85 c 0,39,40
 1188 -20 1188 -20 1045 -20 c 0,41,42
 912 -20 912 -20 840 83 c 1,43,44
 762 -20 762 -20 604 -20 c 0,8,9
661 85 m 0,45,46
 725 85 725 85 765 148 c 0,47,48
 799 201 799 201 799 327 c 2,49,-1
 799 773 l 2,50,51
 799 897 799 897 764 952 c 0,52,53
 725 1015 725 1015 661 1015 c 0,54,55
 562 1015 562 1015 491 879 c 0,56,57
 430 760 430 760 430 550 c 0,58,59
 430 347 430 347 491 221 c 0,60,61
 558 85 558 85 661 85 c 0,45,46
EndSplineSet
Validated: 1
EndChar

StartChar: uni1E1E
Encoding: 7710 7710 173
Width: 1248
Flags: MW
LayerCount: 2
Fore
SplineSet
720 1930 m 128,-1,1
 796 1930 796 1930 849 1876 c 128,-1,2
 902 1822 902 1822 902 1745 c 128,-1,3
 902 1668 902 1668 849 1614 c 128,-1,4
 796 1560 796 1560 720 1560 c 128,-1,5
 644 1560 644 1560 591 1614 c 128,-1,6
 538 1668 538 1668 538 1745 c 128,-1,7
 538 1822 538 1822 591 1876 c 128,-1,0
 644 1930 644 1930 720 1930 c 128,-1,1
287 -20 m 0,8,9
 130 -20 130 -20 67 82 c 0,10,11
 31 140 31 140 30 230 c 1,12,-1
 45 230 l 1,13,14
 82 124 82 124 152 124 c 0,15,16
 240 124 240 124 240 230 c 2,17,-1
 240 586 l 1,18,-1
 99 586 l 2,19,20
 59 586 59 586 59 621 c 2,21,-1
 59 671 l 2,22,23
 59 706 59 706 99 706 c 2,24,-1
 240 706 l 1,25,-1
 240 956 l 2,26,27
 240 1239 240 1239 395 1380 c 0,28,29
 560 1530 560 1530 790 1530 c 0,30,31
 1031 1530 1031 1530 1157 1393 c 0,32,33
 1218 1327 1218 1327 1218 1242 c 0,34,35
 1218 1155 1218 1155 1164 1100 c 0,36,37
 1112 1047 1112 1047 1036 1047 c 128,-1,38
 960 1047 960 1047 907 1101.5 c 128,-1,39
 854 1156 854 1156 854 1233 c 0,40,41
 854 1320 854 1320 911 1362 c 0,42,43
 943 1386 943 1386 976 1396 c 1,44,45
 922 1425 922 1425 841 1425 c 0,46,47
 759 1425 759 1425 693 1368 c 0,48,49
 560 1253 560 1253 560 955 c 2,50,-1
 560 706 l 1,51,-1
 949 706 l 2,52,53
 989 706 989 706 989 671 c 2,54,-1
 989 621 l 2,55,56
 989 586 989 586 949 586 c 2,57,-1
 560 586 l 1,58,-1
 560 279 l 2,59,60
 560 153 560 153 509 83 c 0,61,62
 434 -20 434 -20 287 -20 c 0,8,9
EndSplineSet
Validated: 1
EndChar

StartChar: uni1E1F
Encoding: 7711 7711 174
Width: 1098
Flags: MW
LayerCount: 2
Fore
SplineSet
600 1930 m 128,-1,1
 676 1930 676 1930 729 1876 c 128,-1,2
 782 1822 782 1822 782 1745 c 128,-1,3
 782 1668 782 1668 729 1614 c 128,-1,4
 676 1560 676 1560 600 1560 c 128,-1,5
 524 1560 524 1560 471 1614 c 128,-1,6
 418 1668 418 1668 418 1745 c 128,-1,7
 418 1822 418 1822 471 1876 c 128,-1,0
 524 1930 524 1930 600 1930 c 128,-1,1
273 -430 m 128,-1,9
 131 -430 131 -430 53 -325 c 0,10,11
 10 -267 10 -267 10 -180 c 1,12,-1
 25 -180 l 1,13,14
 62 -286 62 -286 132 -286 c 0,15,16
 220 -286 220 -286 220 -180 c 2,17,-1
 220 583 l 1,18,-1
 99 583 l 2,19,20
 59 583 59 583 59 618 c 2,21,-1
 59 668 l 2,22,23
 59 703 59 703 99 703 c 2,24,-1
 220 703 l 1,25,-1
 220 1123 l 2,26,27
 220 1310 220 1310 340 1416 c 0,28,29
 469 1530 469 1530 694 1530 c 0,30,31
 876 1530 876 1530 991 1415 c 0,32,33
 1068 1338 1068 1338 1068 1238 c 0,34,35
 1068 1159 1068 1159 1015 1105 c 128,-1,36
 962 1051 962 1051 886 1051 c 128,-1,37
 810 1051 810 1051 757 1104.5 c 128,-1,38
 704 1158 704 1158 704 1235 c 0,39,40
 704 1307 704 1307 752 1355 c 0,41,42
 782 1384 782 1384 831 1394 c 1,43,44
 782 1430 782 1430 721 1430 c 0,45,46
 633 1430 633 1430 582 1360 c 0,47,48
 520 1275 520 1275 520 1122 c 2,49,-1
 520 703 l 1,50,-1
 799 703 l 2,51,52
 839 703 839 703 839 668 c 2,53,-1
 839 618 l 2,54,55
 839 583 839 583 799 583 c 2,56,-1
 520 583 l 1,57,-1
 520 -131 l 2,58,59
 520 -261 520 -261 479 -327 c 0,60,8
 415 -430 415 -430 273 -430 c 128,-1,9
EndSplineSet
Validated: 1
EndChar

StartChar: uni1E40
Encoding: 7744 7744 175
Width: 2086
Flags: MW
LayerCount: 2
Fore
SplineSet
1066 1930 m 128,-1,1
 1142 1930 1142 1930 1195 1876 c 128,-1,2
 1248 1822 1248 1822 1248 1745 c 128,-1,3
 1248 1668 1248 1668 1195 1614 c 128,-1,4
 1142 1560 1142 1560 1066 1560 c 128,-1,5
 990 1560 990 1560 937 1614 c 128,-1,6
 884 1668 884 1668 884 1745 c 128,-1,7
 884 1822 884 1822 937 1876 c 128,-1,0
 990 1930 990 1930 1066 1930 c 128,-1,1
177 -20 m 0,8,9
 76 -20 76 -20 36 66 c 0,10,11
 10 122 10 122 10 230 c 1,12,-1
 25 230 l 1,13,14
 60 94 60 94 147 94 c 0,15,16
 221 94 221 94 239 216 c 2,17,-1
 389 1219 l 1,18,-1
 356 1293 l 2,19,20
 322 1370 322 1370 266 1370 c 0,21,22
 201 1370 201 1370 163 1250 c 1,23,-1
 147 1250 l 1,24,25
 147 1368 147 1368 187 1426 c 0,26,27
 259 1530 259 1530 414 1530 c 0,28,29
 608 1530 608 1530 697 1332 c 2,30,-1
 1076 492 l 1,31,-1
 1462 1374 l 2,32,33
 1530 1530 1530 1530 1700 1530 c 0,34,35
 1806 1530 1806 1530 1860 1456 c 0,36,37
 1906 1393 1906 1393 1906 1280 c 1,38,-1
 1891 1280 l 1,39,40
 1854 1419 1854 1419 1762 1419 c 0,41,42
 1697 1419 1697 1419 1684 1384 c 1,43,-1
 1873 216 l 2,44,45
 1886 134 1886 134 1956 134 c 0,46,47
 2027 134 2027 134 2060 230 c 1,48,-1
 2076 230 l 1,49,50
 2076 142 2076 142 2039 84 c 0,51,52
 1972 -20 1972 -20 1821 -20 c 0,53,54
 1684 -20 1684 -20 1616 67 c 0,55,56
 1562 136 1562 136 1543 253 c 2,57,-1
 1428 972 l 1,58,-1
 981 -40 l 1,59,-1
 966 -40 l 1,60,-1
 490 998 l 1,61,-1
 372 214 l 2,62,63
 356 110 356 110 324 62 c 0,64,65
 269 -20 269 -20 177 -20 c 0,8,9
EndSplineSet
Validated: 1
EndChar

StartChar: uni1E41
Encoding: 7745 7745 176
Width: 2040
Flags: MW
LayerCount: 2
Fore
SplineSet
1040 1530 m 128,-1,1
 1116 1530 1116 1530 1169 1476 c 128,-1,2
 1222 1422 1222 1422 1222 1345 c 128,-1,3
 1222 1268 1222 1268 1169 1214 c 128,-1,4
 1116 1160 1116 1160 1040 1160 c 128,-1,5
 964 1160 964 1160 911 1214 c 128,-1,6
 858 1268 858 1268 858 1345 c 128,-1,7
 858 1422 858 1422 911 1476 c 128,-1,0
 964 1530 964 1530 1040 1530 c 128,-1,1
300 0 m 2,8,9
 220 0 220 0 220 80 c 2,10,-1
 220 870 l 2,11,12
 220 976 220 976 132 976 c 0,13,14
 62 976 62 976 25 870 c 1,15,-1
 10 870 l 1,16,17
 10 957 10 957 53 1015 c 0,18,19
 131 1120 131 1120 274 1120 c 0,20,21
 419 1120 419 1120 479 1017 c 0,22,23
 496 988 496 988 506 952 c 1,24,25
 610 1120 610 1120 809 1120 c 0,26,27
 974 1120 974 1120 1066 1002 c 0,28,29
 1097 963 1097 963 1119 912 c 1,30,31
 1221 1120 1221 1120 1450 1120 c 0,32,33
 1614 1120 1614 1120 1711 1017 c 0,34,35
 1820 901 1820 901 1820 706 c 2,36,-1
 1820 230 l 2,37,38
 1820 124 1820 124 1908 124 c 0,39,40
 1978 124 1978 124 2015 230 c 1,41,-1
 2030 230 l 1,42,43
 2030 143 2030 143 1987 85 c 0,44,45
 1909 -20 1909 -20 1767 -20 c 128,-1,46
 1625 -20 1625 -20 1561 83 c 0,47,48
 1520 149 1520 149 1520 279 c 2,49,-1
 1520 703 l 2,50,51
 1520 833 1520 833 1481 897 c 0,52,53
 1432 978 1432 978 1341 978 c 0,54,55
 1252 978 1252 978 1200 884 c 0,56,57
 1170 829 1170 829 1170 703 c 2,58,-1
 1170 80 l 2,59,60
 1170 0 1170 0 1090 0 c 2,61,-1
 950 0 l 2,62,63
 870 0 870 0 870 80 c 2,64,-1
 870 703 l 2,65,66
 870 833 870 833 831 897 c 0,67,68
 782 978 782 978 691 978 c 0,69,70
 602 978 602 978 550 884 c 0,71,72
 520 829 520 829 520 703 c 2,73,-1
 520 80 l 2,74,75
 520 0 520 0 440 0 c 2,76,-1
 300 0 l 2,8,9
EndSplineSet
Validated: 1
EndChar

StartChar: uni1E56
Encoding: 7766 7766 177
Width: 1538
Flags: MW
LayerCount: 2
Fore
SplineSet
773 1930 m 128,-1,1
 849 1930 849 1930 902 1876 c 128,-1,2
 955 1822 955 1822 955 1745 c 128,-1,3
 955 1668 955 1668 902 1614 c 128,-1,4
 849 1560 849 1560 773 1560 c 128,-1,5
 697 1560 697 1560 644 1614 c 128,-1,6
 591 1668 591 1668 591 1745 c 128,-1,7
 591 1822 591 1822 644 1876 c 128,-1,0
 697 1930 697 1930 773 1930 c 128,-1,1
339 -20 m 0,8,9
 182 -20 182 -20 119 82 c 0,10,11
 83 140 83 140 82 230 c 1,12,-1
 97 230 l 1,13,14
 134 124 134 124 204 124 c 0,15,16
 292 124 292 124 292 230 c 2,17,-1
 292 1125 l 2,18,19
 292 1205 292 1205 372 1205 c 2,20,-1
 532 1205 l 2,21,22
 612 1205 612 1205 612 1125 c 2,23,-1
 612 660 l 1,24,25
 670 547 670 547 789 547 c 0,26,27
 869 547 869 547 928 601 c 0,28,29
 1063 724 1063 724 1063 988 c 0,30,31
 1063 1183 1063 1183 975 1287 c 0,32,33
 872 1410 872 1410 659 1410 c 0,34,35
 287 1410 287 1410 35 1036 c 1,36,-1
 20 1042 l 1,37,38
 222 1530 222 1530 763 1530 c 0,39,40
 1074 1530 1074 1530 1242 1373 c 0,41,42
 1408 1218 1408 1218 1408 1003 c 0,43,44
 1408 789 1408 789 1295 649 c 0,45,46
 1131 446 1131 446 840 446 c 0,47,48
 703 446 703 446 612 505 c 1,49,-1
 612 279 l 2,50,51
 612 154 612 154 561 83 c 0,52,53
 486 -20 486 -20 339 -20 c 0,8,9
EndSplineSet
Validated: 1
EndChar

StartChar: uni1E57
Encoding: 7767 7767 178
Width: 1319
Flags: MW
LayerCount: 2
Fore
SplineSet
700 1530 m 128,-1,1
 776 1530 776 1530 829 1476 c 128,-1,2
 882 1422 882 1422 882 1345 c 128,-1,3
 882 1268 882 1268 829 1214 c 128,-1,4
 776 1160 776 1160 700 1160 c 128,-1,5
 624 1160 624 1160 571 1214 c 128,-1,6
 518 1268 518 1268 518 1345 c 128,-1,7
 518 1422 518 1422 571 1476 c 128,-1,0
 624 1530 624 1530 700 1530 c 128,-1,1
658 1015 m 0,8,9
 594 1015 594 1015 554 952 c 0,10,11
 520 899 520 899 520 773 c 2,12,-1
 520 327 l 2,13,14
 520 203 520 203 555 148 c 0,15,16
 594 85 594 85 658 85 c 0,17,18
 757 85 757 85 828 221 c 0,19,20
 889 340 889 340 889 550 c 0,21,22
 889 753 889 753 828 879 c 0,23,24
 761 1015 761 1015 658 1015 c 0,8,9
709 -20 m 0,25,26
 596 -20 596 -20 519 60 c 1,27,-1
 520 -330 l 2,28,29
 520 -410 520 -410 440 -410 c 2,30,-1
 300 -410 l 2,31,32
 220 -410 220 -410 220 -330 c 2,33,-1
 220 870 l 2,34,35
 220 976 220 976 132 976 c 0,36,37
 62 976 62 976 25 870 c 1,38,-1
 10 870 l 1,39,40
 10 957 10 957 53 1015 c 0,41,42
 131 1120 131 1120 274 1120 c 0,43,44
 407 1120 407 1120 479 1017 c 1,45,46
 557 1120 557 1120 715 1120 c 0,47,48
 940 1120 940 1120 1079 949 c 0,49,50
 1209 785 1209 785 1209 550 c 0,51,52
 1209 312 1209 312 1083 158 c 0,53,54
 938 -20 938 -20 709 -20 c 0,25,26
EndSplineSet
Validated: 1
EndChar

StartChar: uni1E60
Encoding: 7776 7776 179
Width: 1381
Flags: MW
LayerCount: 2
Fore
SplineSet
696 1930 m 128,-1,1
 772 1930 772 1930 825 1876 c 128,-1,2
 878 1822 878 1822 878 1745 c 128,-1,3
 878 1668 878 1668 825 1614 c 128,-1,4
 772 1560 772 1560 696 1560 c 128,-1,5
 620 1560 620 1560 567 1614 c 128,-1,6
 514 1668 514 1668 514 1745 c 128,-1,7
 514 1822 514 1822 567 1876 c 128,-1,0
 620 1930 620 1930 696 1930 c 128,-1,1
653 -20 m 0,8,9
 370 -20 370 -20 232 118 c 0,10,11
 120 230 120 230 120 356 c 0,12,13
 120 433 120 433 173 487 c 128,-1,14
 226 541 226 541 302 541 c 128,-1,15
 378 541 378 541 431 487 c 128,-1,16
 484 433 484 433 484 356 c 0,17,18
 484 277 484 277 431 225 c 0,19,20
 394 188 394 188 330 179 c 1,21,22
 448 86 448 86 622 86 c 0,23,24
 775 86 775 86 866 202 c 0,25,26
 937 292 937 292 937 409 c 0,27,28
 937 581 937 581 694 683 c 2,29,-1
 516 758 l 2,30,31
 222 882 222 882 222 1137 c 0,32,33
 222 1318 222 1318 365 1431 c 0,34,35
 490 1530 490 1530 700 1530 c 0,36,37
 989 1530 989 1530 1104 1336 c 0,38,39
 1136 1280 1136 1280 1136 1217 c 0,40,41
 1136 1140 1136 1140 1083 1086 c 128,-1,42
 1030 1032 1030 1032 954 1032 c 128,-1,43
 878 1032 878 1032 825 1086 c 128,-1,44
 772 1140 772 1140 772 1217 c 0,45,46
 772 1293 772 1293 825 1348 c 0,47,48
 856 1380 856 1380 898 1388 c 1,49,50
 841 1423 841 1423 747.5 1423 c 128,-1,51
 654 1423 654 1423 596 1373 c 0,52,53
 530 1316 530 1316 530 1214 c 0,54,55
 530 1093 530 1093 724 1011 c 2,56,-1
 925 926 l 2,57,58
 1261 784 1261 784 1261 470 c 0,59,60
 1261 269 1261 269 1097 124.5 c 128,-1,61
 933 -20 933 -20 653 -20 c 0,8,9
EndSplineSet
Validated: 1
EndChar

StartChar: uni1E61
Encoding: 7777 7777 180
Width: 1140
Flags: MW
LayerCount: 2
Fore
SplineSet
607 1530 m 128,-1,1
 683 1530 683 1530 736 1476 c 128,-1,2
 789 1422 789 1422 789 1345 c 128,-1,3
 789 1268 789 1268 736 1214 c 128,-1,4
 683 1160 683 1160 607 1160 c 128,-1,5
 531 1160 531 1160 478 1214 c 128,-1,6
 425 1268 425 1268 425 1345 c 128,-1,7
 425 1422 425 1422 478 1476 c 128,-1,0
 531 1530 531 1530 607 1530 c 128,-1,1
538 -20 m 0,8,9
 282 -20 282 -20 160 149 c 0,10,11
 110 218 110 218 110 288 c 0,12,13
 110 365 110 365 163 419 c 128,-1,14
 216 473 216 473 292 473 c 128,-1,15
 368 473 368 473 421 419 c 128,-1,16
 474 365 474 365 474 288 c 0,17,18
 474 224 474 224 425 177 c 0,19,20
 392 145 392 145 346 133 c 1,21,22
 431 93 431 93 520 93 c 128,-1,23
 609 93 609 93 666 139 c 0,24,25
 740 199 740 199 740 294 c 0,26,27
 739 408 739 408 602 471 c 2,28,-1
 432 549 l 2,29,30
 207 652 207 652 207 826 c 0,31,32
 207 969 207 969 322 1047 c 0,33,34
 430 1120 430 1120 612 1120 c 0,35,36
 807 1120 807 1120 897 1012 c 0,37,38
 947 952 947 952 947 885 c 128,-1,39
 947 818 947 818 902 774 c 0,40,41
 855 728 855 728 792 728 c 0,42,43
 727 728 727 728 682 774 c 0,44,45
 644 813 644 813 644 873 c 0,46,47
 644 977 644 977 750 996 c 1,48,49
 711 1017 711 1017 650 1017 c 0,50,51
 586 1017 586 1017 543 983 c 0,52,53
 485 937 485 937 485 864 c 0,54,55
 485 770 485 770 621 709 c 2,56,-1
 776 639 l 2,57,58
 1030 524 1030 524 1030 332 c 0,59,60
 1030 176 1030 176 896 78 c 0,61,62
 764 -20 764 -20 538 -20 c 0,8,9
EndSplineSet
Validated: 1
EndChar

StartChar: uni1E6A
Encoding: 7786 7786 181
Width: 1416
Flags: MW
LayerCount: 2
Fore
SplineSet
735 1930 m 128,-1,1
 811 1930 811 1930 864 1876 c 128,-1,2
 917 1822 917 1822 917 1745 c 128,-1,3
 917 1668 917 1668 864 1614 c 128,-1,4
 811 1560 811 1560 735 1560 c 128,-1,5
 659 1560 659 1560 606 1614 c 128,-1,6
 553 1668 553 1668 553 1745 c 128,-1,7
 553 1822 553 1822 606 1876 c 128,-1,0
 659 1930 659 1930 735 1930 c 128,-1,1
617 -20 m 0,8,9
 460 -20 460 -20 397 82 c 0,10,11
 361 140 361 140 360 230 c 1,12,-1
 375 230 l 1,13,14
 412 124 412 124 482 124 c 0,15,16
 570 124 570 124 570 230 c 2,17,-1
 570 1125 l 2,18,19
 570 1205 570 1205 650 1205 c 2,20,-1
 810 1205 l 2,21,22
 890 1205 890 1205 890 1125 c 2,23,-1
 890 279 l 2,24,25
 890 153 890 153 839 83 c 0,26,27
 764 -20 764 -20 617 -20 c 0,8,9
700 1510 m 2,28,-1
 999 1510 l 2,29,30
 1241 1510 1241 1510 1337 1386 c 0,31,32
 1386 1323 1386 1323 1386 1245 c 0,33,34
 1386 1154 1386 1154 1332 1099 c 0,35,36
 1280 1046 1280 1046 1204 1046 c 128,-1,37
 1128 1046 1128 1046 1075 1100.5 c 128,-1,38
 1022 1155 1022 1155 1022 1231 c 0,39,40
 1022 1305 1022 1305 1066 1346 c 0,41,42
 1098 1376 1098 1376 1139 1383 c 1,43,44
 1082 1390 1082 1390 1001 1390 c 2,45,-1
 692 1390 l 2,46,47
 211 1390 211 1390 24 1015 c 1,48,-1
 10 1023 l 1,49,50
 141 1510 141 1510 700 1510 c 2,28,-1
EndSplineSet
Validated: 1
EndChar

StartChar: uni1E6B
Encoding: 7787 7787 182
Width: 820
Flags: MW
LayerCount: 2
Fore
SplineSet
377 1930 m 128,-1,1
 453 1930 453 1930 506 1876 c 128,-1,2
 559 1822 559 1822 559 1745 c 128,-1,3
 559 1668 559 1668 506 1614 c 128,-1,4
 453 1560 453 1560 377 1560 c 128,-1,5
 301 1560 301 1560 248 1614 c 128,-1,6
 195 1668 195 1668 195 1745 c 128,-1,7
 195 1822 195 1822 248 1876 c 128,-1,0
 301 1930 301 1930 377 1930 c 128,-1,1
507 -20 m 128,-1,9
 365 -20 365 -20 301 83 c 0,10,11
 260 149 260 149 260 279 c 2,12,-1
 260 980 l 1,13,-1
 60 980 l 2,14,15
 20 980 20 980 20 1015 c 2,16,-1
 20 1065 l 2,17,18
 20 1100 20 1100 60 1100 c 2,19,-1
 260 1100 l 1,20,-1
 260 1280 l 2,21,22
 260 1386 260 1386 172 1386 c 0,23,24
 102 1386 102 1386 65 1280 c 1,25,-1
 50 1280 l 1,26,27
 50 1369 50 1369 93 1425 c 0,28,29
 170 1530 170 1530 312.5 1530 c 128,-1,30
 455 1530 455 1530 519 1427 c 0,31,32
 560 1361 560 1361 560 1231 c 2,33,-1
 560 1100 l 1,34,-1
 760 1100 l 2,35,36
 800 1100 800 1100 800 1065 c 2,37,-1
 800 1015 l 2,38,39
 800 980 800 980 760 980 c 2,40,-1
 560 980 l 1,41,-1
 560 230 l 2,42,43
 560 124 560 124 648 124 c 0,44,45
 718 124 718 124 755 230 c 1,46,-1
 770 230 l 1,47,48
 770 145 770 145 727 85 c 0,49,8
 649 -20 649 -20 507 -20 c 128,-1,9
EndSplineSet
Validated: 1
EndChar

StartChar: Wgrave
Encoding: 7808 7808 183
Width: 2365
Flags: MW
LayerCount: 2
Fore
SplineSet
1050 1928 m 0,0,1
 1126 1928 1126 1928 1156 1870 c 2,2,-1
 1290 1604 l 1,3,-1
 1270 1580 l 1,4,-1
 986 1710 l 2,5,6
 930 1736 930 1736 930 1808 c 0,7,8
 930 1856 930 1856 962 1892 c 128,-1,9
 994 1928 994 1928 1050 1928 c 0,0,1
725 -20 m 0,10,11
 461 -20 461 -20 329 144 c 0,12,13
 240 255 240 255 240 442 c 2,14,-1
 240 1280 l 2,15,16
 240 1386 240 1386 152 1386 c 0,17,18
 82 1386 82 1386 45 1280 c 1,19,-1
 30 1280 l 1,20,21
 31 1370 31 1370 67 1428 c 0,22,23
 130 1530 130 1530 287 1530 c 0,24,25
 434 1530 434 1530 509 1427 c 0,26,27
 560 1357 560 1357 560 1231 c 2,28,-1
 560 452 l 2,29,30
 560 314 560 314 594 250 c 0,31,32
 662 122 662 122 798 122 c 0,33,34
 936 122 936 122 1004 245 c 0,35,36
 1040 311 1040 311 1040 452 c 2,37,-1
 1040 1430 l 2,38,39
 1040 1510 1040 1510 1120 1510 c 2,40,-1
 1280 1510 l 2,41,42
 1360 1510 1360 1510 1360 1430 c 2,43,-1
 1360 515 l 2,44,45
 1360 341 1360 341 1400 265 c 0,46,47
 1472 129 1472 129 1611 129 c 0,48,49
 1741 129 1741 129 1825 208 c 0,50,51
 1917 294 1917 294 1962 426 c 0,52,53
 2010 567 2010 567 2010 730 c 0,54,55
 2010 879 2010 879 1930 1015 c 0,56,57
 1876 1106 1876 1106 1770 1189 c 0,58,59
 1678 1261 1678 1261 1678 1349 c 0,60,61
 1678 1432 1678 1432 1729 1480 c 0,62,63
 1781 1530 1781 1530 1866 1530 c 0,64,65
 1985 1530 1985 1530 2060 1426 c 0,66,67
 2235 1180 2235 1180 2235 825 c 0,68,69
 2235 522 2235 522 2122 324 c 0,70,71
 1927 -20 1927 -20 1563 -20 c 0,72,73
 1250 -20 1250 -20 1118 175 c 1,74,75
 998 -20 998 -20 725 -20 c 0,10,11
EndSplineSet
Validated: 1
EndChar

StartChar: wgrave
Encoding: 7809 7809 184
Width: 1992
Flags: MW
LayerCount: 2
Fore
SplineSet
865 1508 m 0,0,1
 941 1508 941 1508 971 1450 c 2,2,-1
 1105 1184 l 1,3,-1
 1085 1160 l 1,4,-1
 801 1290 l 2,5,6
 745 1316 745 1316 745 1388 c 0,7,8
 745 1436 745 1436 777 1472 c 128,-1,9
 809 1508 809 1508 865 1508 c 0,0,1
618 -20 m 0,10,11
 426 -20 426 -20 329 83 c 0,12,13
 220 199 220 199 220 394 c 2,14,-1
 220 870 l 2,15,16
 220 976 220 976 132 976 c 0,17,18
 62 976 62 976 25 870 c 1,19,-1
 10 870 l 1,20,21
 10 957 10 957 53 1015 c 0,22,23
 131 1120 131 1120 273 1120 c 128,-1,24
 415 1120 415 1120 479 1017 c 0,25,26
 520 951 520 951 520 821 c 2,27,-1
 520 397 l 2,28,29
 520 267 520 267 559 203 c 0,30,31
 608 122 608 122 699 122 c 0,32,33
 788 122 788 122 840 216 c 0,34,35
 870 271 870 271 870 397 c 2,36,-1
 870 1020 l 2,37,38
 870 1100 870 1100 950 1100 c 2,39,-1
 1090 1100 l 2,40,41
 1170 1100 1170 1100 1170 1020 c 2,42,-1
 1170 388 l 2,43,44
 1170 268 1170 268 1220 193 c 0,45,46
 1277 109 1277 109 1381 109 c 0,47,48
 1498 109 1498 109 1572 186 c 0,49,50
 1674 291 1674 291 1674 458 c 0,51,52
 1674 569 1674 569 1619 664 c 0,53,54
 1576 739 1576 739 1465 818 c 0,55,56
 1392 870 1392 870 1392 961 c 0,57,58
 1392 1032 1392 1032 1439 1077 c 0,59,60
 1484 1120 1484 1120 1565 1120 c 0,61,62
 1691 1120 1691 1120 1772 985 c 0,63,64
 1882 801 1882 801 1882 557 c 0,65,66
 1882 372 1882 372 1788 220 c 0,67,68
 1640 -20 1640 -20 1317 -20 c 0,69,70
 1095 -20 1095 -20 979 98 c 0,71,72
 961 116 961 116 946 137 c 1,73,74
 829 -20 829 -20 618 -20 c 0,10,11
EndSplineSet
Validated: 1
EndChar

StartChar: Wacute
Encoding: 7810 7810 185
Width: 2365
Flags: MW
LayerCount: 2
Fore
SplineSet
1353 1928 m 0,0,1
 1409 1928 1409 1928 1441 1892 c 128,-1,2
 1473 1856 1473 1856 1473 1808 c 0,3,4
 1473 1736 1473 1736 1417 1710 c 2,5,6
 1133 1580 l 1,7,-1
 1113 1604 l 1,8,-1
 1247 1870 l 2,9,10
 1277 1928 1277 1928 1353 1928 c 0,0,1
725 -20 m 0,11,12
 461 -20 461 -20 329 144 c 0,13,14
 240 255 240 255 240 442 c 2,15,-1
 240 1280 l 2,16,17
 240 1386 240 1386 152 1386 c 0,18,19
 82 1386 82 1386 45 1280 c 1,20,-1
 30 1280 l 1,21,22
 31 1370 31 1370 67 1428 c 0,23,24
 130 1530 130 1530 287 1530 c 0,25,26
 434 1530 434 1530 509 1427 c 0,27,28
 560 1357 560 1357 560 1231 c 2,29,-1
 560 452 l 2,30,31
 560 314 560 314 594 250 c 0,32,33
 662 122 662 122 798 122 c 0,34,35
 936 122 936 122 1004 245 c 0,36,37
 1040 311 1040 311 1040 452 c 2,38,-1
 1040 1430 l 2,39,40
 1040 1510 1040 1510 1120 1510 c 2,41,-1
 1280 1510 l 2,42,43
 1360 1510 1360 1510 1360 1430 c 2,44,-1
 1360 515 l 2,45,46
 1360 341 1360 341 1400 265 c 0,47,48
 1472 129 1472 129 1611 129 c 0,49,50
 1741 129 1741 129 1825 208 c 0,51,52
 1917 294 1917 294 1962 426 c 0,53,54
 2010 567 2010 567 2010 730 c 0,55,56
 2010 879 2010 879 1930 1015 c 0,57,58
 1876 1106 1876 1106 1770 1189 c 0,59,60
 1678 1261 1678 1261 1678 1349 c 0,61,62
 1678 1432 1678 1432 1729 1480 c 0,63,64
 1781 1530 1781 1530 1866 1530 c 0,65,66
 1985 1530 1985 1530 2060 1426 c 0,67,68
 2235 1180 2235 1180 2235 825 c 0,69,70
 2235 522 2235 522 2122 324 c 0,71,72
 1927 -20 1927 -20 1563 -20 c 0,73,74
 1250 -20 1250 -20 1118 175 c 1,75,76
 998 -20 998 -20 725 -20 c 0,11,12
EndSplineSet
Validated: 1
EndChar

StartChar: wacute
Encoding: 7811 7811 186
Width: 1992
Flags: MW
LayerCount: 2
Fore
SplineSet
1176 1508 m 0,0,1
 1232 1508 1232 1508 1264 1472 c 128,-1,2
 1296 1436 1296 1436 1296 1388 c 0,3,4
 1296 1316 1296 1316 1240 1290 c 2,5,6
 956 1160 l 1,7,-1
 936 1184 l 1,8,-1
 1070 1450 l 2,9,10
 1100 1508 1100 1508 1176 1508 c 0,0,1
618 -20 m 0,11,12
 426 -20 426 -20 329 83 c 0,13,14
 220 199 220 199 220 394 c 2,15,-1
 220 870 l 2,16,17
 220 976 220 976 132 976 c 0,18,19
 62 976 62 976 25 870 c 1,20,-1
 10 870 l 1,21,22
 10 957 10 957 53 1015 c 0,23,24
 131 1120 131 1120 273 1120 c 128,-1,25
 415 1120 415 1120 479 1017 c 0,26,27
 520 951 520 951 520 821 c 2,28,-1
 520 397 l 2,29,30
 520 267 520 267 559 203 c 0,31,32
 608 122 608 122 699 122 c 0,33,34
 788 122 788 122 840 216 c 0,35,36
 870 271 870 271 870 397 c 2,37,-1
 870 1020 l 2,38,39
 870 1100 870 1100 950 1100 c 2,40,-1
 1090 1100 l 2,41,42
 1170 1100 1170 1100 1170 1020 c 2,43,-1
 1170 388 l 2,44,45
 1170 268 1170 268 1220 193 c 0,46,47
 1277 109 1277 109 1381 109 c 0,48,49
 1498 109 1498 109 1572 186 c 0,50,51
 1674 291 1674 291 1674 458 c 0,52,53
 1674 569 1674 569 1619 664 c 0,54,55
 1576 739 1576 739 1465 818 c 0,56,57
 1392 870 1392 870 1392 961 c 0,58,59
 1392 1032 1392 1032 1439 1077 c 0,60,61
 1484 1120 1484 1120 1565 1120 c 0,62,63
 1691 1120 1691 1120 1772 985 c 0,64,65
 1882 801 1882 801 1882 557 c 0,66,67
 1882 372 1882 372 1788 220 c 0,68,69
 1640 -20 1640 -20 1317 -20 c 0,70,71
 1095 -20 1095 -20 979 98 c 0,72,73
 961 116 961 116 946 137 c 1,74,75
 829 -20 829 -20 618 -20 c 0,11,12
EndSplineSet
Validated: 1
EndChar

StartChar: Wdieresis
Encoding: 7812 7812 187
Width: 2365
Flags: MW
LayerCount: 2
Fore
SplineSet
1379 1904 m 128,-1,1
 1444 1904 1444 1904 1489 1858 c 128,-1,2
 1534 1812 1534 1812 1534 1746.5 c 128,-1,3
 1534 1681 1534 1681 1489 1635.5 c 128,-1,4
 1444 1590 1444 1590 1379 1590 c 128,-1,5
 1314 1590 1314 1590 1269 1635.5 c 128,-1,6
 1224 1681 1224 1681 1224 1746.5 c 128,-1,7
 1224 1812 1224 1812 1269 1858 c 128,-1,0
 1314 1904 1314 1904 1379 1904 c 128,-1,1
1031 1904 m 128,-1,9
 1096 1904 1096 1904 1141 1858 c 128,-1,10
 1186 1812 1186 1812 1186 1746.5 c 128,-1,11
 1186 1681 1186 1681 1141 1635.5 c 128,-1,12
 1096 1590 1096 1590 1031 1590 c 128,-1,13
 966 1590 966 1590 921 1635.5 c 128,-1,14
 876 1681 876 1681 876 1746.5 c 128,-1,15
 876 1812 876 1812 921 1858 c 128,-1,8
 966 1904 966 1904 1031 1904 c 128,-1,9
725 -20 m 0,16,17
 461 -20 461 -20 329 144 c 0,18,19
 240 255 240 255 240 442 c 2,20,-1
 240 1280 l 2,21,22
 240 1386 240 1386 152 1386 c 0,23,24
 82 1386 82 1386 45 1280 c 1,25,-1
 30 1280 l 1,26,27
 31 1370 31 1370 67 1428 c 0,28,29
 130 1530 130 1530 287 1530 c 0,30,31
 434 1530 434 1530 509 1427 c 0,32,33
 560 1357 560 1357 560 1231 c 2,34,-1
 560 452 l 2,35,36
 560 314 560 314 594 250 c 0,37,38
 662 122 662 122 798 122 c 0,39,40
 936 122 936 122 1004 245 c 0,41,42
 1040 311 1040 311 1040 452 c 2,43,-1
 1040 1430 l 2,44,45
 1040 1510 1040 1510 1120 1510 c 2,46,-1
 1280 1510 l 2,47,48
 1360 1510 1360 1510 1360 1430 c 2,49,-1
 1360 515 l 2,50,51
 1360 341 1360 341 1400 265 c 0,52,53
 1472 129 1472 129 1611 129 c 0,54,55
 1741 129 1741 129 1825 208 c 0,56,57
 1917 294 1917 294 1962 426 c 0,58,59
 2010 567 2010 567 2010 730 c 0,60,61
 2010 879 2010 879 1930 1015 c 0,62,63
 1876 1106 1876 1106 1770 1189 c 0,64,65
 1678 1261 1678 1261 1678 1349 c 0,66,67
 1678 1432 1678 1432 1729 1480 c 0,68,69
 1781 1530 1781 1530 1866 1530 c 0,70,71
 1985 1530 1985 1530 2060 1426 c 0,72,73
 2235 1180 2235 1180 2235 825 c 0,74,75
 2235 522 2235 522 2122 324 c 0,76,77
 1927 -20 1927 -20 1563 -20 c 0,78,79
 1250 -20 1250 -20 1118 175 c 1,80,81
 998 -20 998 -20 725 -20 c 0,16,17
EndSplineSet
Validated: 1
EndChar

StartChar: wdieresis
Encoding: 7813 7813 188
Width: 1992
Flags: MW
LayerCount: 2
Fore
SplineSet
1194 1484 m 128,-1,1
 1259 1484 1259 1484 1304 1438 c 128,-1,2
 1349 1392 1349 1392 1349 1326.5 c 128,-1,3
 1349 1261 1349 1261 1304 1215.5 c 128,-1,4
 1259 1170 1259 1170 1194 1170 c 128,-1,5
 1129 1170 1129 1170 1084 1215.5 c 128,-1,6
 1039 1261 1039 1261 1039 1326.5 c 128,-1,7
 1039 1392 1039 1392 1084 1438 c 128,-1,0
 1129 1484 1129 1484 1194 1484 c 128,-1,1
846 1484 m 128,-1,9
 911 1484 911 1484 956 1438 c 128,-1,10
 1001 1392 1001 1392 1001 1326.5 c 128,-1,11
 1001 1261 1001 1261 956 1215.5 c 128,-1,12
 911 1170 911 1170 846 1170 c 128,-1,13
 781 1170 781 1170 736 1215.5 c 128,-1,14
 691 1261 691 1261 691 1326.5 c 128,-1,15
 691 1392 691 1392 736 1438 c 128,-1,8
 781 1484 781 1484 846 1484 c 128,-1,9
618 -20 m 0,16,17
 426 -20 426 -20 329 83 c 0,18,19
 220 199 220 199 220 394 c 2,20,-1
 220 870 l 2,21,22
 220 976 220 976 132 976 c 0,23,24
 62 976 62 976 25 870 c 1,25,-1
 10 870 l 1,26,27
 10 957 10 957 53 1015 c 0,28,29
 131 1120 131 1120 273 1120 c 128,-1,30
 415 1120 415 1120 479 1017 c 0,31,32
 520 951 520 951 520 821 c 2,33,-1
 520 397 l 2,34,35
 520 267 520 267 559 203 c 0,36,37
 608 122 608 122 699 122 c 0,38,39
 788 122 788 122 840 216 c 0,40,41
 870 271 870 271 870 397 c 2,42,-1
 870 1020 l 2,43,44
 870 1100 870 1100 950 1100 c 2,45,-1
 1090 1100 l 2,46,47
 1170 1100 1170 1100 1170 1020 c 2,48,-1
 1170 388 l 2,49,50
 1170 268 1170 268 1220 193 c 0,51,52
 1277 109 1277 109 1381 109 c 0,53,54
 1498 109 1498 109 1572 186 c 0,55,56
 1674 291 1674 291 1674 458 c 0,57,58
 1674 569 1674 569 1619 664 c 0,59,60
 1576 739 1576 739 1465 818 c 0,61,62
 1392 870 1392 870 1392 961 c 0,63,64
 1392 1032 1392 1032 1439 1077 c 0,65,66
 1484 1120 1484 1120 1565 1120 c 0,67,68
 1691 1120 1691 1120 1772 985 c 0,69,70
 1882 801 1882 801 1882 557 c 0,71,72
 1882 372 1882 372 1788 220 c 0,73,74
 1640 -20 1640 -20 1317 -20 c 0,75,76
 1095 -20 1095 -20 979 98 c 0,77,78
 961 116 961 116 946 137 c 1,79,80
 829 -20 829 -20 618 -20 c 0,16,17
EndSplineSet
Validated: 1
EndChar

StartChar: Ygrave
Encoding: 7922 7922 189
Width: 1540
Flags: MW
LayerCount: 2
Fore
SplineSet
592 1928 m 0,0,1
 668 1928 668 1928 698 1870 c 2,2,-1
 832 1604 l 1,3,-1
 812 1580 l 1,4,-1
 528 1710 l 2,5,6
 472 1736 472 1736 472 1808 c 0,7,8
 472 1856 472 1856 504 1892 c 128,-1,9
 536 1928 536 1928 592 1928 c 0,0,1
730 -20 m 0,10,11
 469 -20 469 -20 343 117 c 0,12,13
 282 183 282 183 282 268 c 0,14,15
 282 355 282 355 336 410 c 0,16,17
 388 463 388 463 464 463 c 128,-1,18
 540 463 540 463 593 408.5 c 128,-1,19
 646 354 646 354 646 277 c 0,20,21
 646 190 646 190 589 148 c 0,22,23
 557 124 557 124 524 114 c 1,24,25
 578 85 578 85 679 85 c 0,26,27
 781 85 781 85 847 142 c 0,28,29
 980 257 980 257 980 555 c 2,30,-1
 980 594 l 1,31,32
 863 492 863 492 695 492 c 0,33,34
 453 492 453 492 329 631 c 0,35,36
 240 732 240 732 240 904 c 2,37,-1
 240 1280 l 2,38,39
 240 1386 240 1386 152 1386 c 0,40,41
 82 1386 82 1386 45 1280 c 1,42,-1
 30 1280 l 1,43,44
 31 1370 31 1370 67 1428 c 0,45,46
 130 1530 130 1530 287 1530 c 0,47,48
 434 1530 434 1530 509 1427 c 0,49,50
 560 1357 560 1357 560 1231 c 2,51,-1
 560 914 l 2,52,53
 560 810 560 810 594 737 c 0,54,55
 642 634 642 634 770 634 c 0,56,57
 894 634 894 634 944 732 c 0,58,59
 980 803 980 803 980 914 c 2,60,-1
 980 1430 l 2,61,62
 980 1510 980 1510 1060 1510 c 2,63,-1
 1220 1510 l 2,64,65
 1300 1510 1300 1510 1300 1430 c 2,66,-1
 1300 554 l 2,67,68
 1300 271 1300 271 1145 130 c 0,69,70
 980 -20 980 -20 730 -20 c 0,10,11
EndSplineSet
Validated: 1
EndChar

StartChar: ygrave
Encoding: 7923 7923 190
Width: 1390
Flags: MW
LayerCount: 2
Fore
SplineSet
535 1508 m 0,0,1
 611 1508 611 1508 641 1450 c 2,2,-1
 775 1184 l 1,3,-1
 755 1160 l 1,4,-1
 471 1290 l 2,5,6
 415 1316 415 1316 415 1388 c 0,7,8
 415 1436 415 1436 447 1472 c 128,-1,9
 479 1508 479 1508 535 1508 c 0,0,1
590 -20 m 0,10,11
 426 -20 426 -20 329 83 c 0,12,13
 220 199 220 199 220 394 c 2,14,-1
 220 870 l 2,15,16
 220 976 220 976 132 976 c 0,17,18
 62 976 62 976 25 870 c 1,19,-1
 10 870 l 1,20,21
 10 957 10 957 53 1015 c 0,22,23
 131 1120 131 1120 273 1120 c 128,-1,24
 415 1120 415 1120 479 1017 c 0,25,26
 520 951 520 951 520 821 c 2,27,-1
 520 397 l 2,28,29
 520 267 520 267 559 203 c 0,30,31
 608 122 608 122 699 122 c 0,32,33
 788 122 788 122 840 216 c 0,34,35
 870 271 870 271 870 397 c 2,36,-1
 870 1020 l 2,37,38
 870 1100 870 1100 950 1100 c 2,39,-1
 1090 1100 l 2,40,41
 1170 1100 1170 1100 1170 1020 c 2,42,-1
 1170 106 l 2,43,44
 1170 -140 1170 -140 1020 -291 c 0,45,46
 881 -430 881 -430 635 -430 c 0,47,48
 442 -430 442 -430 329 -350 c 0,49,50
 242 -288 242 -288 242 -197 c 0,51,52
 242 -131 242 -131 287 -85.5 c 128,-1,53
 332 -40 332 -40 397 -40 c 128,-1,54
 462 -40 462 -40 507 -85.5 c 128,-1,55
 552 -131 552 -131 552 -197 c 0,56,57
 552 -262 552 -262 507 -308 c 0,58,59
 499 -316 499 -316 488 -324 c 1,60,61
 534 -338 534 -338 596 -338 c 0,62,63
 712 -338 712 -338 790 -246 c 0,64,65
 870 -153 870 -153 870 15 c 2,66,-1
 870 124 l 1,67,68
 768 -20 768 -20 590 -20 c 0,10,11
EndSplineSet
Validated: 1
EndChar

StartChar: ae
Encoding: 230 230 191
Width: 1801
Flags: MW
LayerCount: 2
Fore
SplineSet
747 588 m 1,0,1
 586 577 586 577 519 516 c 0,2,3
 427 432 427 432 427 309 c 128,-1,4
 427 186 427 186 502 124 c 0,5,6
 549 85 549 85 619 85 c 0,7,8
 687 85 687 85 724 144 c 0,9,10
 747 180 747 180 747 261 c 2,11,-1
 747 588 l 1,0,1
1047 468 m 1,12,-1
 1269 539 l 2,13,14
 1378 574 1378 574 1378 700 c 0,15,16
 1378 830 1378 830 1339 909 c 0,17,18
 1282 1025 1282 1025 1193 1025 c 128,-1,19
 1104 1025 1104 1025 1047 920 c 1,20,-1
 1047 468 l 1,12,-1
626 -20 m 0,21,22
 359 -20 359 -20 234.5 71.5 c 128,-1,23
 110 163 110 163 110 322 c 128,-1,24
 110 481 110 481 259 586 c 0,25,26
 400 685 400 685 747 694 c 1,27,-1
 747 780 l 2,28,29
 747 921 747 921 681 980 c 0,30,31
 631 1025 631 1025 555 1025 c 128,-1,32
 479 1025 479 1025 418 1001 c 1,33,34
 518 974 518 974 518 875 c 0,35,36
 518 809 518 809 474 769.5 c 128,-1,37
 430 730 430 730 365 730 c 0,38,39
 297 730 297 730 252 774 c 0,40,41
 207 820 207 820 207 886 c 0,42,43
 207 956 207 956 257 1012 c 0,44,45
 354 1120 354 1120 573 1120 c 0,46,47
 784 1120 784 1120 905 1043 c 1,48,49
 1030 1120 1030 1120 1204 1120 c 0,50,51
 1446 1120 1446 1120 1571 991 c 0,52,53
 1691 867 1691 867 1691 706 c 0,54,55
 1691 549 1691 549 1520 495 c 2,56,-1
 1047 345 l 1,57,-1
 1047 206 l 1,58,59
 1121 86 1121 86 1263 86 c 0,60,61
 1370 86 1370 86 1445 140 c 0,62,63
 1531 201 1531 201 1594 284 c 1,64,-1
 1607 284 l 1,65,-1
 1607 128 l 1,66,67
 1459 -20 1459 -20 1205 -20 c 0,68,69
 1041 -20 1041 -20 923 43 c 1,70,71
 782 -20 782 -20 626 -20 c 0,21,22
EndSplineSet
Validated: 1
EndChar

StartChar: dcroat
Encoding: 273 273 192
Width: 1319
Flags: MW
LayerCount: 2
Fore
SplineSet
661 85 m 0,0,1
 725 85 725 85 765 148 c 0,2,3
 799 201 799 201 799 327 c 2,4,-1
 799 496 l 1,5,-1
 565 496 l 2,6,7
 525 496 525 496 525 531 c 2,8,-1
 525 581 l 2,9,10
 525 616 525 616 565 616 c 2,11,-1
 799 616 l 1,12,-1
 799 773 l 2,13,14
 799 897 799 897 764 952 c 0,15,16
 725 1015 725 1015 661 1015 c 0,17,18
 562 1015 562 1015 491 879 c 0,19,20
 430 760 430 760 430 550 c 0,21,22
 430 347 430 347 491 221 c 0,23,24
 558 85 558 85 661 85 c 0,0,1
604 -20 m 0,25,26
 393 -20 393 -20 240 151 c 0,27,28
 110 297 110 297 110 550 c 0,29,30
 110 788 110 788 236 942 c 0,31,32
 381 1120 381 1120 610 1120 c 0,33,34
 723 1120 723 1120 800 1040 c 1,35,-1
 799 1280 l 2,36,37
 799 1386 799 1386 711 1386 c 0,38,39
 641 1386 641 1386 604 1280 c 1,40,-1
 589 1280 l 1,41,42
 589 1369 589 1369 632 1425 c 0,43,44
 709 1530 709 1530 851.5 1530 c 128,-1,45
 994 1530 994 1530 1058 1427 c 0,46,47
 1099 1361 1099 1361 1099 1231 c 2,48,-1
 1099 616 l 1,49,-1
 1200 616 l 2,50,51
 1240 616 1240 616 1240 581 c 2,52,-1
 1240 531 l 2,53,54
 1240 496 1240 496 1200 496 c 2,55,-1
 1099 496 l 1,56,-1
 1099 230 l 2,57,58
 1099 124 1099 124 1187 124 c 0,59,60
 1257 124 1257 124 1294 230 c 1,61,-1
 1309 230 l 1,62,63
 1309 143 1309 143 1266 85 c 0,64,65
 1188 -20 1188 -20 1045 -20 c 0,66,67
 912 -20 912 -20 840 83 c 1,68,69
 762 -20 762 -20 604 -20 c 0,25,26
EndSplineSet
Validated: 1
EndChar

StartChar: longs
Encoding: 383 383 193
Width: 1098
Flags: MW
LayerCount: 2
Fore
SplineSet
273 -430 m 128,-1,1
 131 -430 131 -430 53 -325 c 0,2,3
 10 -267 10 -267 10 -180 c 1,4,-1
 25 -180 l 1,5,6
 62 -286 62 -286 132 -286 c 0,7,8
 220 -286 220 -286 220 -180 c 2,9,-1
 220 583 l 1,10,-1
 50 583 l 2,11,12
 10 583 10 583 10 618 c 2,13,-1
 10 668 l 2,14,15
 10 703 10 703 50 703 c 2,16,-1
 220 703 l 1,17,-1
 220 1123 l 2,18,19
 220 1310 220 1310 340 1416 c 0,20,21
 469 1530 469 1530 694 1530 c 0,22,23
 876 1530 876 1530 991 1415 c 0,24,25
 1068 1338 1068 1338 1068 1238 c 0,26,27
 1068 1159 1068 1159 1015 1105 c 128,-1,28
 962 1051 962 1051 886 1051 c 128,-1,29
 810 1051 810 1051 757 1104.5 c 128,-1,30
 704 1158 704 1158 704 1235 c 0,31,32
 704 1307 704 1307 752 1355 c 0,33,34
 782 1384 782 1384 831 1394 c 1,35,36
 782 1430 782 1430 721 1430 c 0,37,38
 633 1430 633 1430 582 1360 c 0,39,40
 520 1275 520 1275 520 1122 c 2,41,-1
 520 -131 l 2,42,43
 520 -261 520 -261 479 -327 c 0,44,0
 415 -430 415 -430 273 -430 c 128,-1,1
EndSplineSet
Validated: 1
EndChar

